<?xml version="1.0" encoding="us-ascii" standalone="no"?><svg xmlns="http://www.w3.org/2000/svg" xmlns:xlink="http://www.w3.org/1999/xlink" contentStyleType="text/css" height="189px" preserveAspectRatio="none" style="width:255px;height:189px;background:#FFFFFF;" version="1.1" viewBox="0 0 255 189" width="255px" zoomAndPan="magnify"><defs/><g><!--class trans--><g id="elem_trans"><rect codeLine="1" fill="#F1F1F1" height="64.2969" id="trans" rx="2.5" ry="2.5" style="stroke:#181818;stroke-width:0.5;" width="139" x="51.5" y="10"/><ellipse cx="66.5" cy="26" fill="#B4A7E5" rx="11" ry="11" style="stroke:#181818;stroke-width:1.0;"/><path d="M62.4219,21.7656 L62.4219,19.6094 L69.8125,19.6094 L69.8125,21.7656 L67.3438,21.7656 L67.3438,29.8438 L69.8125,29.8438 L69.8125,32 L62.4219,32 L62.4219,29.8438 L64.8906,29.8438 L64.8906,21.7656 L62.4219,21.7656 Z " fill="#000000"/><text fill="#000000" font-family="sans-serif" font-size="14" font-style="italic" lengthAdjust="spacing" textLength="83" x="80.5" y="30.8467">Transformer</text><rect fill="#FFFFFF" height="15.9688" style="stroke:#181818;stroke-width:1.0;stroke-dasharray:2.0,2.0;" width="22" x="171.5" y="7"/><text fill="#000000" font-family="sans-serif" font-size="12" font-style="italic" lengthAdjust="spacing" textLength="20" x="172.5" y="19.1387">I, O</text><line style="stroke:#181818;stroke-width:0.5;" x1="52.5" x2="189.5" y1="42" y2="42"/><line style="stroke:#181818;stroke-width:0.5;" x1="52.5" x2="189.5" y1="50" y2="50"/><ellipse cx="62.5" cy="63.6484" fill="#84BE84" rx="3" ry="3" style="stroke:#038048;stroke-width:1.0;"/><text fill="#000000" font-family="sans-serif" font-size="14" lengthAdjust="spacing" textLength="99" x="71.5" y="66.9951">transform(I): O</text></g><!--class heap--><g id="elem_heap"><rect codeLine="5" fill="#F1F1F1" height="48" id="heap" rx="2.5" ry="2.5" style="stroke:#181818;stroke-width:0.5;" width="92" x="7" y="134"/><ellipse cx="22" cy="150" fill="#F1F1F1" rx="11" ry="11" style="stroke:#181818;stroke-width:1.0;"/><path d="M21.4844,150.5625 Q19.625,149.8594 18.9688,149.0938 Q18.3281,148.3125 18.3281,147 Q18.3281,145.3125 19.4063,144.3438 Q20.4844,143.375 22.3594,143.375 Q23.2188,143.375 24.0625,143.5781 Q24.9219,143.7656 25.7656,144.1563 L25.7656,146.5469 Q24.9844,145.9844 24.1563,145.7031 Q23.3438,145.4063 22.5469,145.4063 Q21.6719,145.4063 21.1875,145.7656 Q20.7188,146.125 20.7188,146.7813 Q20.7188,147.2969 21.0625,147.6406 Q21.4063,147.9688 22.5,148.375 L23.5625,148.7813 Q25.0469,149.3281 25.75,150.2344 Q26.4688,151.1406 26.4688,152.5156 Q26.4688,154.3906 25.3594,155.3125 Q24.25,156.2344 22,156.2344 Q21.0781,156.2344 20.1563,156.0156 Q19.2344,155.7969 18.375,155.375 L18.375,152.8438 Q19.3438,153.5313 20.2656,153.875 Q21.1875,154.2188 22.0781,154.2188 Q22.9844,154.2188 23.4844,153.8125 Q23.9844,153.3906 23.9844,152.6563 Q23.9844,152.0938 23.6406,151.6875 Q23.3125,151.2656 22.6875,151.0156 L21.4844,150.5625 Z " fill="#000000"/><text fill="#000000" font-family="sans-serif" font-size="14" lengthAdjust="spacing" textLength="36" x="36" y="154.8467">Heap</text><rect fill="#FFFFFF" height="15.9688" style="stroke:#181818;stroke-width:1.0;stroke-dasharray:2.0,2.0;" width="22" x="80" y="131"/><text fill="#000000" font-family="sans-serif" font-size="12" font-style="italic" lengthAdjust="spacing" textLength="20" x="81" y="143.1387">I, O</text><line style="stroke:#181818;stroke-width:0.5;" x1="8" x2="98" y1="166" y2="166"/><line style="stroke:#181818;stroke-width:0.5;" x1="8" x2="98" y1="174" y2="174"/></g><!--class lambda--><g id="elem_lambda"><rect codeLine="8" fill="#F1F1F1" height="48" id="lambda" rx="2.5" ry="2.5" style="stroke:#181818;stroke-width:0.5;" width="110" x="134" y="134"/><ellipse cx="149" cy="150" fill="#F1F1F1" rx="11" ry="11" style="stroke:#181818;stroke-width:1.0;"/><path d="M148.4844,150.5625 Q146.625,149.8594 145.9688,149.0938 Q145.3281,148.3125 145.3281,147 Q145.3281,145.3125 146.4063,144.3438 Q147.4844,143.375 149.3594,143.375 Q150.2188,143.375 151.0625,143.5781 Q151.9219,143.7656 152.7656,144.1563 L152.7656,146.5469 Q151.9844,145.9844 151.1563,145.7031 Q150.3438,145.4063 149.5469,145.4063 Q148.6719,145.4063 148.1875,145.7656 Q147.7188,146.125 147.7188,146.7813 Q147.7188,147.2969 148.0625,147.6406 Q148.4063,147.9688 149.5,148.375 L150.5625,148.7813 Q152.0469,149.3281 152.75,150.2344 Q153.4688,151.1406 153.4688,152.5156 Q153.4688,154.3906 152.3594,155.3125 Q151.25,156.2344 149,156.2344 Q148.0781,156.2344 147.1563,156.0156 Q146.2344,155.7969 145.375,155.375 L145.375,152.8438 Q146.3438,153.5313 147.2656,153.875 Q148.1875,154.2188 149.0781,154.2188 Q149.9844,154.2188 150.4844,153.8125 Q150.9844,153.3906 150.9844,152.6563 Q150.9844,152.0938 150.6406,151.6875 Q150.3125,151.2656 149.6875,151.0156 L148.4844,150.5625 Z " fill="#000000"/><text fill="#000000" font-family="sans-serif" font-size="14" lengthAdjust="spacing" textLength="54" x="163" y="154.8467">Lambda</text><rect fill="#FFFFFF" height="15.9688" style="stroke:#181818;stroke-width:1.0;stroke-dasharray:2.0,2.0;" width="22" x="225" y="131"/><text fill="#000000" font-family="sans-serif" font-size="12" font-style="italic" lengthAdjust="spacing" textLength="20" x="226" y="143.1387">I, O</text><line style="stroke:#181818;stroke-width:0.5;" x1="135" x2="243" y1="166" y2="166"/><line style="stroke:#181818;stroke-width:0.5;" x1="135" x2="243" y1="174" y2="174"/></g><!--reverse link trans to heap--><g id="link_trans_heap"><path codeLine="11" d="M91.45,92.54 C82.93,106.82 74.04,121.73 66.95,133.61 " fill="none" id="trans-backto-heap" style="stroke:#181818;stroke-width:1.0;stroke-dasharray:7.0,7.0;"/><polygon fill="none" points="85.21,89.34,101.46,75.75,97.23,96.52,85.21,89.34" style="stroke:#181818;stroke-width:1.0;"/></g><!--reverse link trans to lambda--><g id="link_trans_lambda"><path codeLine="12" d="M150.55,92.54 C159.07,106.82 167.96,121.73 175.05,133.61 " fill="none" id="trans-backto-lambda" style="stroke:#181818;stroke-width:1.0;stroke-dasharray:7.0,7.0;"/><polygon fill="none" points="144.77,96.52,140.54,75.75,156.79,89.34,144.77,96.52" style="stroke:#181818;stroke-width:1.0;"/></g><!--SRC=[oymhIIrAIqnELL0AAKhCAqxBByfDBL9II2nMA07nRJnr5Fpj5Agv582WEZUr92C_fLP16o89KgpXgMcbuCzLoyLLN59KcboYeEIHcbW0DY03o83hHrBWavYRb988Lf83PY8h0cbIq2lLgx63sC45KO8Y1000]--></g></svg>