<?xml version="1.0" encoding="us-ascii" standalone="no"?><svg xmlns="http://www.w3.org/2000/svg" xmlns:xlink="http://www.w3.org/1999/xlink" contentStyleType="text/css" height="189px" preserveAspectRatio="none" style="width:203px;height:189px;background:#FFFFFF;" version="1.1" viewBox="0 0 203 189" width="203px" zoomAndPan="magnify"><defs/><g><!--class trans--><g id="elem_trans"><rect codeLine="1" fill="#F1F1F1" height="64.2969" id="trans" rx="2.5" ry="2.5" style="stroke:#181818;stroke-width:0.5;" width="133" x="30.5" y="10"/><ellipse cx="45.5" cy="26" fill="#B4A7E5" rx="11" ry="11" style="stroke:#181818;stroke-width:1.0;"/><path d="M41.4219,21.7656 L41.4219,19.6094 L48.8125,19.6094 L48.8125,21.7656 L46.3438,21.7656 L46.3438,29.8438 L48.8125,29.8438 L48.8125,32 L41.4219,32 L41.4219,29.8438 L43.8906,29.8438 L43.8906,21.7656 L41.4219,21.7656 Z " fill="#000000"/><text fill="#000000" font-family="sans-serif" font-size="14" font-style="italic" lengthAdjust="spacing" textLength="77" x="59.5" y="30.8467">Executable</text><rect fill="#FFFFFF" height="15.9688" style="stroke:#181818;stroke-width:1.0;stroke-dasharray:2.0,2.0;" width="22" x="144.5" y="7"/><text fill="#000000" font-family="sans-serif" font-size="12" font-style="italic" lengthAdjust="spacing" textLength="20" x="145.5" y="19.1387">I, O</text><line style="stroke:#181818;stroke-width:0.5;" x1="31.5" x2="162.5" y1="42" y2="42"/><line style="stroke:#181818;stroke-width:0.5;" x1="31.5" x2="162.5" y1="50" y2="50"/><ellipse cx="41.5" cy="63.6484" fill="#84BE84" rx="3" ry="3" style="stroke:#038048;stroke-width:1.0;"/><text fill="#000000" font-family="sans-serif" font-size="14" lengthAdjust="spacing" textLength="71" x="50.5" y="66.9951">execute();</text></g><!--class heap--><g id="elem_heap"><rect codeLine="5" fill="#F1F1F1" height="48" id="heap" rx="2.5" ry="2.5" style="stroke:#181818;stroke-width:0.5;" width="68" x="7" y="134"/><ellipse cx="22" cy="150" fill="#F1F1F1" rx="11" ry="11" style="stroke:#181818;stroke-width:1.0;"/><path d="M21.4844,150.5625 Q19.625,149.8594 18.9688,149.0938 Q18.3281,148.3125 18.3281,147 Q18.3281,145.3125 19.4063,144.3438 Q20.4844,143.375 22.3594,143.375 Q23.2188,143.375 24.0625,143.5781 Q24.9219,143.7656 25.7656,144.1563 L25.7656,146.5469 Q24.9844,145.9844 24.1563,145.7031 Q23.3438,145.4063 22.5469,145.4063 Q21.6719,145.4063 21.1875,145.7656 Q20.7188,146.125 20.7188,146.7813 Q20.7188,147.2969 21.0625,147.6406 Q21.4063,147.9688 22.5,148.375 L23.5625,148.7813 Q25.0469,149.3281 25.75,150.2344 Q26.4688,151.1406 26.4688,152.5156 Q26.4688,154.3906 25.3594,155.3125 Q24.25,156.2344 22,156.2344 Q21.0781,156.2344 20.1563,156.0156 Q19.2344,155.7969 18.375,155.375 L18.375,152.8438 Q19.3438,153.5313 20.2656,153.875 Q21.1875,154.2188 22.0781,154.2188 Q22.9844,154.2188 23.4844,153.8125 Q23.9844,153.3906 23.9844,152.6563 Q23.9844,152.0938 23.6406,151.6875 Q23.3125,151.2656 22.6875,151.0156 L21.4844,150.5625 Z " fill="#000000"/><text fill="#000000" font-family="sans-serif" font-size="14" lengthAdjust="spacing" textLength="36" x="36" y="154.8467">Heap</text><line style="stroke:#181818;stroke-width:0.5;" x1="8" x2="74" y1="166" y2="166"/><line style="stroke:#181818;stroke-width:0.5;" x1="8" x2="74" y1="174" y2="174"/></g><!--class lambda--><g id="elem_lambda"><rect codeLine="8" fill="#F1F1F1" height="48" id="lambda" rx="2.5" ry="2.5" style="stroke:#181818;stroke-width:0.5;" width="86" x="110" y="134"/><ellipse cx="125" cy="150" fill="#F1F1F1" rx="11" ry="11" style="stroke:#181818;stroke-width:1.0;"/><path d="M124.4844,150.5625 Q122.625,149.8594 121.9688,149.0938 Q121.3281,148.3125 121.3281,147 Q121.3281,145.3125 122.4063,144.3438 Q123.4844,143.375 125.3594,143.375 Q126.2188,143.375 127.0625,143.5781 Q127.9219,143.7656 128.7656,144.1563 L128.7656,146.5469 Q127.9844,145.9844 127.1563,145.7031 Q126.3438,145.4063 125.5469,145.4063 Q124.6719,145.4063 124.1875,145.7656 Q123.7188,146.125 123.7188,146.7813 Q123.7188,147.2969 124.0625,147.6406 Q124.4063,147.9688 125.5,148.375 L126.5625,148.7813 Q128.0469,149.3281 128.75,150.2344 Q129.4688,151.1406 129.4688,152.5156 Q129.4688,154.3906 128.3594,155.3125 Q127.25,156.2344 125,156.2344 Q124.0781,156.2344 123.1563,156.0156 Q122.2344,155.7969 121.375,155.375 L121.375,152.8438 Q122.3438,153.5313 123.2656,153.875 Q124.1875,154.2188 125.0781,154.2188 Q125.9844,154.2188 126.4844,153.8125 Q126.9844,153.3906 126.9844,152.6563 Q126.9844,152.0938 126.6406,151.6875 Q126.3125,151.2656 125.6875,151.0156 L124.4844,150.5625 Z " fill="#000000"/><text fill="#000000" font-family="sans-serif" font-size="14" lengthAdjust="spacing" textLength="54" x="139" y="154.8467">Lambda</text><line style="stroke:#181818;stroke-width:0.5;" x1="111" x2="195" y1="166" y2="166"/><line style="stroke:#181818;stroke-width:0.5;" x1="111" x2="195" y1="174" y2="174"/></g><!--reverse link trans to heap--><g id="link_trans_heap"><path codeLine="11" d="M72.19,93.51 C65.32,107.49 58.2,121.99 52.49,133.61 " fill="none" id="trans-backto-heap" style="stroke:#181818;stroke-width:1.0;stroke-dasharray:7.0,7.0;"/><polygon fill="none" points="65.78,90.68,80.88,75.81,78.35,96.85,65.78,90.68" style="stroke:#181818;stroke-width:1.0;"/></g><!--reverse link trans to lambda--><g id="link_trans_lambda"><path codeLine="12" d="M121.81,93.51 C128.68,107.49 135.8,121.99 141.51,133.61 " fill="none" id="trans-backto-lambda" style="stroke:#181818;stroke-width:1.0;stroke-dasharray:7.0,7.0;"/><polygon fill="none" points="115.65,96.85,113.12,75.81,128.22,90.68,115.65,96.85" style="stroke:#181818;stroke-width:1.0;"/></g><!--SRC=[oymhIIrAIqnELL1ohKXDBYr9JCf9LL98B5OeAKhCAxRnr57mjrEevb80WkhSr9AC_9HQ1Ms5LB3QL0rDQwvQBgxYagBIv1859O_Kn0AmtWmW0wW9ISedCJSf9H4icGDcGgJ12lLAzMhi8FPnGIMHXG00]--></g></svg>