<?xml version="1.0" encoding="us-ascii" standalone="no"?><svg xmlns="http://www.w3.org/2000/svg" xmlns:xlink="http://www.w3.org/1999/xlink" contentStyleType="text/css" height="186px" preserveAspectRatio="none" style="width:229px;height:186px;background:#FFFFFF;" version="1.1" viewBox="0 0 229 186" width="229px" zoomAndPan="magnify"><defs/><g><!--class pub--><g id="elem_pub"><rect codeLine="2" fill="#F1F1F1" height="48" id="pub" rx="2.5" ry="2.5" style="stroke:#181818;stroke-width:0.5;" width="94" x="128" y="7"/><ellipse cx="143" cy="23" fill="#B4A7E5" rx="11" ry="11" style="stroke:#181818;stroke-width:1.0;"/><path d="M138.9219,18.7656 L138.9219,16.6094 L146.3125,16.6094 L146.3125,18.7656 L143.8438,18.7656 L143.8438,26.8438 L146.3125,26.8438 L146.3125,29 L138.9219,29 L138.9219,26.8438 L141.3906,26.8438 L141.3906,18.7656 L138.9219,18.7656 Z " fill="#000000"/><text fill="#000000" font-family="sans-serif" font-size="14" font-style="italic" lengthAdjust="spacing" textLength="62" x="157" y="27.8467">Publisher</text><line style="stroke:#181818;stroke-width:0.5;" x1="129" x2="221" y1="39" y2="39"/><line style="stroke:#181818;stroke-width:0.5;" x1="129" x2="221" y1="47" y2="47"/></g><!--class pubHandler--><g id="elem_pubHandler"><rect codeLine="3" fill="#F1F1F1" height="64.2969" id="pubHandler" rx="2.5" ry="2.5" style="stroke:#181818;stroke-width:0.5;" width="156" x="34" y="115"/><ellipse cx="49" cy="131" fill="#F1F1F1" rx="11" ry="11" style="stroke:#181818;stroke-width:1.0;"/><path d="M48.4844,131.5625 Q46.625,130.8594 45.9688,130.0938 Q45.3281,129.3125 45.3281,128 Q45.3281,126.3125 46.4063,125.3438 Q47.4844,124.375 49.3594,124.375 Q50.2188,124.375 51.0625,124.5781 Q51.9219,124.7656 52.7656,125.1563 L52.7656,127.5469 Q51.9844,126.9844 51.1563,126.7031 Q50.3438,126.4063 49.5469,126.4063 Q48.6719,126.4063 48.1875,126.7656 Q47.7188,127.125 47.7188,127.7813 Q47.7188,128.2969 48.0625,128.6406 Q48.4063,128.9688 49.5,129.375 L50.5625,129.7813 Q52.0469,130.3281 52.75,131.2344 Q53.4688,132.1406 53.4688,133.5156 Q53.4688,135.3906 52.3594,136.3125 Q51.25,137.2344 49,137.2344 Q48.0781,137.2344 47.1563,137.0156 Q46.2344,136.7969 45.375,136.375 L45.375,133.8438 Q46.3438,134.5313 47.2656,134.875 Q48.1875,135.2188 49.0781,135.2188 Q49.9844,135.2188 50.4844,134.8125 Q50.9844,134.3906 50.9844,133.6563 Q50.9844,133.0938 50.6406,132.6875 Q50.3125,132.2656 49.6875,132.0156 L48.4844,131.5625 Z " fill="#000000"/><text fill="#000000" font-family="sans-serif" font-size="14" lengthAdjust="spacing" textLength="124" x="63" y="135.8467">HandlingPublisher</text><line style="stroke:#181818;stroke-width:0.5;" x1="35" x2="189" y1="147" y2="147"/><text fill="#000000" font-family="sans-serif" font-size="14" lengthAdjust="spacing" textLength="134" x="40" y="163.9951">delegate: Publisher</text><line style="stroke:#181818;stroke-width:0.5;" x1="35" x2="189" y1="171.2969" y2="171.2969"/></g><!--class hndl--><g id="elem_hndl"><rect codeLine="6" fill="#F1F1F1" height="48" id="hndl" rx="2.5" ry="2.5" style="stroke:#181818;stroke-width:0.5;" width="86" x="7" y="7"/><ellipse cx="22" cy="23" fill="#B4A7E5" rx="11" ry="11" style="stroke:#181818;stroke-width:1.0;"/><path d="M17.9219,18.7656 L17.9219,16.6094 L25.3125,16.6094 L25.3125,18.7656 L22.8438,18.7656 L22.8438,26.8438 L25.3125,26.8438 L25.3125,29 L17.9219,29 L17.9219,26.8438 L20.3906,26.8438 L20.3906,18.7656 L17.9219,18.7656 Z " fill="#000000"/><text fill="#000000" font-family="sans-serif" font-size="14" font-style="italic" lengthAdjust="spacing" textLength="54" x="36" y="27.8467">Handler</text><line style="stroke:#181818;stroke-width:0.5;" x1="8" x2="92" y1="39" y2="39"/><line style="stroke:#181818;stroke-width:0.5;" x1="8" x2="92" y1="47" y2="47"/></g><!--reverse link pub to pubHandler--><g id="link_pub_pubHandler"><path codeLine="8" d="M151.82,73.94 C144.33,87.49 136.16,102.27 129.19,114.9 " fill="none" id="pub-backto-pubHandler" style="stroke:#181818;stroke-width:1.0;stroke-dasharray:7.0,7.0;"/><polygon fill="none" points="145.57,70.79,161.37,56.67,157.82,77.56,145.57,70.79" style="stroke:#181818;stroke-width:1.0;"/></g><!--reverse link hndl to pubHandler--><g id="link_hndl_pubHandler"><path codeLine="9" d="M72.81,73.94 C80.18,87.49 88.22,102.27 95.09,114.9 " fill="none" id="hndl-backto-pubHandler" style="stroke:#181818;stroke-width:1.0;stroke-dasharray:7.0,7.0;"/><polygon fill="none" points="66.83,77.59,63.42,56.67,79.12,70.9,66.83,77.59" style="stroke:#181818;stroke-width:1.0;"/></g><!--SRC=[POsn3O0m30HxJs5b00QWeAPaXK0CiMH5AB6hmEwW2471LzR_-P-JKbxzGkWccuLBfEpG5znjXgBP5aKt-XI4q_OZMa2v0jwgAvE44mC9RLwfnvU74_WRUhvQIRnFWAyAE-kEeQt_pCPU]--></g></svg>