<?xml version="1.0" encoding="us-ascii" standalone="no"?><svg xmlns="http://www.w3.org/2000/svg" xmlns:xlink="http://www.w3.org/1999/xlink" contentStyleType="text/css" height="186px" preserveAspectRatio="none" style="width:229px;height:186px;background:#FFFFFF;" version="1.1" viewBox="0 0 229 186" width="229px" zoomAndPan="magnify"><defs/><g><!--class pub--><g id="elem_pub"><rect codeLine="2" fill="#F1F1F1" height="48" id="pub" rx="2.5" ry="2.5" style="stroke:#181818;stroke-width:0.5;" width="94" x="128" y="7"/><ellipse cx="143" cy="23" fill="#B4A7E5" rx="11" ry="11" style="stroke:#181818;stroke-width:1.0;"/><path d="M138.9219,18.7656 L138.9219,16.6094 L146.3125,16.6094 L146.3125,18.7656 L143.8438,18.7656 L143.8438,26.8438 L146.3125,26.8438 L146.3125,29 L138.9219,29 L138.9219,26.8438 L141.3906,26.8438 L141.3906,18.7656 L138.9219,18.7656 Z " fill="#000000"/><text fill="#000000" font-family="sans-serif" font-size="14" font-style="italic" lengthAdjust="spacing" textLength="62" x="157" y="27.8467">Publisher</text><line style="stroke:#181818;stroke-width:0.5;" x1="129" x2="221" y1="39" y2="39"/><line style="stroke:#181818;stroke-width:0.5;" x1="129" x2="221" y1="47" y2="47"/></g><!--class pubHandler--><g id="elem_pubHandler"><rect codeLine="3" fill="#F1F1F1" height="64.2969" id="pubHandler" rx="2.5" ry="2.5" style="stroke:#181818;stroke-width:0.5;" width="149" x="37.5" y="115"/><ellipse cx="52.5" cy="131" fill="#F1F1F1" rx="11" ry="11" style="stroke:#181818;stroke-width:1.0;"/><path d="M51.9844,131.5625 Q50.125,130.8594 49.4688,130.0938 Q48.8281,129.3125 48.8281,128 Q48.8281,126.3125 49.9063,125.3438 Q50.9844,124.375 52.8594,124.375 Q53.7188,124.375 54.5625,124.5781 Q55.4219,124.7656 56.2656,125.1563 L56.2656,127.5469 Q55.4844,126.9844 54.6563,126.7031 Q53.8438,126.4063 53.0469,126.4063 Q52.1719,126.4063 51.6875,126.7656 Q51.2188,127.125 51.2188,127.7813 Q51.2188,128.2969 51.5625,128.6406 Q51.9063,128.9688 53,129.375 L54.0625,129.7813 Q55.5469,130.3281 56.25,131.2344 Q56.9688,132.1406 56.9688,133.5156 Q56.9688,135.3906 55.8594,136.3125 Q54.75,137.2344 52.5,137.2344 Q51.5781,137.2344 50.6563,137.0156 Q49.7344,136.7969 48.875,136.375 L48.875,133.8438 Q49.8438,134.5313 50.7656,134.875 Q51.6875,135.2188 52.5781,135.2188 Q53.4844,135.2188 53.9844,134.8125 Q54.4844,134.3906 54.4844,133.6563 Q54.4844,133.0938 54.1406,132.6875 Q53.8125,132.2656 53.1875,132.0156 L51.9844,131.5625 Z " fill="#000000"/><text fill="#000000" font-family="sans-serif" font-size="14" lengthAdjust="spacing" textLength="117" x="66.5" y="135.8467">PublisherHandler</text><line style="stroke:#181818;stroke-width:0.5;" x1="38.5" x2="185.5" y1="147" y2="147"/><text fill="#000000" font-family="sans-serif" font-size="14" lengthAdjust="spacing" textLength="123" x="43.5" y="163.9951">delegate: Handler</text><line style="stroke:#181818;stroke-width:0.5;" x1="38.5" x2="185.5" y1="171.2969" y2="171.2969"/></g><!--class hndl--><g id="elem_hndl"><rect codeLine="6" fill="#F1F1F1" height="48" id="hndl" rx="2.5" ry="2.5" style="stroke:#181818;stroke-width:0.5;" width="86" x="7" y="7"/><ellipse cx="22" cy="23" fill="#B4A7E5" rx="11" ry="11" style="stroke:#181818;stroke-width:1.0;"/><path d="M17.9219,18.7656 L17.9219,16.6094 L25.3125,16.6094 L25.3125,18.7656 L22.8438,18.7656 L22.8438,26.8438 L25.3125,26.8438 L25.3125,29 L17.9219,29 L17.9219,26.8438 L20.3906,26.8438 L20.3906,18.7656 L17.9219,18.7656 Z " fill="#000000"/><text fill="#000000" font-family="sans-serif" font-size="14" font-style="italic" lengthAdjust="spacing" textLength="54" x="36" y="27.8467">Handler</text><line style="stroke:#181818;stroke-width:0.5;" x1="8" x2="92" y1="39" y2="39"/><line style="stroke:#181818;stroke-width:0.5;" x1="8" x2="92" y1="47" y2="47"/></g><!--reverse link pub to pubHandler--><g id="link_pub_pubHandler"><path codeLine="8" d="M151.82,73.94 C144.33,87.49 136.16,102.27 129.19,114.9 " fill="none" id="pub-backto-pubHandler" style="stroke:#181818;stroke-width:1.0;stroke-dasharray:7.0,7.0;"/><polygon fill="none" points="145.57,70.79,161.37,56.67,157.82,77.56,145.57,70.79" style="stroke:#181818;stroke-width:1.0;"/></g><!--reverse link hndl to pubHandler--><g id="link_hndl_pubHandler"><path codeLine="9" d="M72.81,73.94 C80.18,87.49 88.22,102.27 95.09,114.9 " fill="none" id="hndl-backto-pubHandler" style="stroke:#181818;stroke-width:1.0;stroke-dasharray:7.0,7.0;"/><polygon fill="none" points="66.83,77.59,63.42,56.67,79.12,70.9,66.83,77.59" style="stroke:#181818;stroke-width:1.0;"/></g><!--SRC=[oymhIIrAIqnELL0AA4tAoIpEI2rIKaWiLYWeJU8gBYagJIv1al58p4l9GIY0Sgkv582WEYqpDIUbLY4bDISrFR4arKe1AirLovM9i0NPY0mWauiBOP22NgbUZHtOQWn1i5e0]--></g></svg>