<?xml version="1.0" encoding="UTF-8" standalone="no"?><svg xmlns="http://www.w3.org/2000/svg" xmlns:xlink="http://www.w3.org/1999/xlink" contentStyleType="text/css" height="326px" preserveAspectRatio="none" style="width:616px;height:326px;background:#FFFFFF;" version="1.1" viewBox="0 0 616 326" width="616px" zoomAndPan="magnify"><defs/><g><!--MD5=[ad09bf1a4d7901f1995603af9a772d83]
class notif--><g id="elem_notif"><rect codeLine="1" fill="#F1F1F1" height="64.2969" id="notif" rx="2.5" ry="2.5" style="stroke:#181818;stroke-width:0.5;" width="96" x="48.5" y="7"/><ellipse cx="63.5" cy="23" fill="#B4A7E5" rx="11" ry="11" style="stroke:#181818;stroke-width:1.0;"/><path d="M59.4219,18.7656 L59.4219,16.6094 L66.8125,16.6094 L66.8125,18.7656 L64.3438,18.7656 L64.3438,26.8438 L66.8125,26.8438 L66.8125,29 L59.4219,29 L59.4219,26.8438 L61.8906,26.8438 L61.8906,18.7656 L59.4219,18.7656 Z " fill="#000000"/><text fill="#000000" font-family="sans-serif" font-size="14" font-style="italic" lengthAdjust="spacing" textLength="64" x="77.5" y="27.8467">Notifiable</text><line style="stroke:#181818;stroke-width:0.5;" x1="49.5" x2="143.5" y1="39" y2="39"/><line style="stroke:#181818;stroke-width:0.5;" x1="49.5" x2="143.5" y1="47" y2="47"/><ellipse cx="59.5" cy="60.6484" fill="#84BE84" rx="3" ry="3" style="stroke:#038048;stroke-width:1.0;"/><text fill="#000000" font-family="sans-serif" font-size="14" lengthAdjust="spacing" textLength="47" x="68.5" y="63.9951">notify()</text></g><!--MD5=[8ab7eb4cd4e39d2a6a19fed9f9b9e14d]
class obs--><g id="elem_obs"><rect codeLine="5" fill="#F1F1F1" height="48" id="obs" rx="2.5" ry="2.5" style="stroke:#181818;stroke-width:0.5;" width="95" x="11" y="139"/><ellipse cx="26" cy="155" fill="#B4A7E5" rx="11" ry="11" style="stroke:#181818;stroke-width:1.0;"/><path d="M21.9219,150.7656 L21.9219,148.6094 L29.3125,148.6094 L29.3125,150.7656 L26.8438,150.7656 L26.8438,158.8438 L29.3125,158.8438 L29.3125,161 L21.9219,161 L21.9219,158.8438 L24.3906,158.8438 L24.3906,150.7656 L21.9219,150.7656 Z " fill="#000000"/><text fill="#000000" font-family="sans-serif" font-size="14" font-style="italic" lengthAdjust="spacing" textLength="63" x="40" y="159.8467">Observer</text><line style="stroke:#181818;stroke-width:0.5;" x1="12" x2="105" y1="171" y2="171"/><line style="stroke:#181818;stroke-width:0.5;" x1="12" x2="105" y1="179" y2="179"/></g><!--MD5=[498bb4b8c8586854b5441efac622a04f]
class attach--><g id="elem_attach"><rect codeLine="9" fill="#F1F1F1" height="64.2969" id="attach" rx="2.5" ry="2.5" style="stroke:#181818;stroke-width:0.5;" width="106" x="503.5" y="131"/><ellipse cx="518.5" cy="147" fill="#B4A7E5" rx="11" ry="11" style="stroke:#181818;stroke-width:1.0;"/><path d="M514.4219,142.7656 L514.4219,140.6094 L521.8125,140.6094 L521.8125,142.7656 L519.3438,142.7656 L519.3438,150.8438 L521.8125,150.8438 L521.8125,153 L514.4219,153 L514.4219,150.8438 L516.8906,150.8438 L516.8906,142.7656 L514.4219,142.7656 Z " fill="#000000"/><text fill="#000000" font-family="sans-serif" font-size="14" font-style="italic" lengthAdjust="spacing" textLength="74" x="532.5" y="151.8467">Attachable</text><line style="stroke:#181818;stroke-width:0.5;" x1="504.5" x2="608.5" y1="163" y2="163"/><line style="stroke:#181818;stroke-width:0.5;" x1="504.5" x2="608.5" y1="171" y2="171"/><ellipse cx="514.5" cy="184.6484" fill="#84BE84" rx="3" ry="3" style="stroke:#038048;stroke-width:1.0;"/><text fill="#000000" font-family="sans-serif" font-size="14" lengthAdjust="spacing" textLength="53" x="523.5" y="187.9951">attach()</text></g><!--MD5=[98fc0fa891ea7d0064016719aaa3edbc]
class detach--><g id="elem_detach"><rect codeLine="13" fill="#F1F1F1" height="64.2969" id="detach" rx="2.5" ry="2.5" style="stroke:#181818;stroke-width:0.5;" width="207" x="261" y="131"/><ellipse cx="320.75" cy="147" fill="#B4A7E5" rx="11" ry="11" style="stroke:#181818;stroke-width:1.0;"/><path d="M316.6719,142.7656 L316.6719,140.6094 L324.0625,140.6094 L324.0625,142.7656 L321.5938,142.7656 L321.5938,150.8438 L324.0625,150.8438 L324.0625,153 L316.6719,153 L316.6719,150.8438 L319.1406,150.8438 L319.1406,142.7656 L316.6719,142.7656 Z " fill="#000000"/><text fill="#000000" font-family="sans-serif" font-size="14" font-style="italic" lengthAdjust="spacing" textLength="79" x="341.25" y="151.8467">Detachable</text><line style="stroke:#181818;stroke-width:0.5;" x1="262" x2="467" y1="163" y2="163"/><line style="stroke:#181818;stroke-width:0.5;" x1="262" x2="467" y1="171" y2="171"/><ellipse cx="272" cy="184.6484" fill="#84BE84" rx="3" ry="3" style="stroke:#038048;stroke-width:1.0;"/><text fill="#000000" font-family="sans-serif" font-size="14" lengthAdjust="spacing" textLength="181" x="281" y="187.9951">detach(listener: Observer)</text></g><!--MD5=[ebb1579c2e8f6aed150e1e73dc8a2e79]
class sub--><g id="elem_sub"><rect codeLine="17" fill="#F1F1F1" height="48" id="sub" rx="2.5" ry="2.5" style="stroke:#181818;stroke-width:0.5;" width="84" x="141.5" y="139"/><ellipse cx="156.5" cy="155" fill="#B4A7E5" rx="11" ry="11" style="stroke:#181818;stroke-width:1.0;"/><path d="M152.4219,150.7656 L152.4219,148.6094 L159.8125,148.6094 L159.8125,150.7656 L157.3438,150.7656 L157.3438,158.8438 L159.8125,158.8438 L159.8125,161 L152.4219,161 L152.4219,158.8438 L154.8906,158.8438 L154.8906,150.7656 L152.4219,150.7656 Z " fill="#000000"/><text fill="#000000" font-family="sans-serif" font-size="14" font-style="italic" lengthAdjust="spacing" textLength="52" x="170.5" y="159.8467">Subject</text><line style="stroke:#181818;stroke-width:0.5;" x1="142.5" x2="224.5" y1="171" y2="171"/><line style="stroke:#181818;stroke-width:0.5;" x1="142.5" x2="224.5" y1="179" y2="179"/></g><!--MD5=[6573b784d4c522ebeee8f290bd66cb9a]
class vecsub--><g id="elem_vecsub"><rect codeLine="23" fill="#F1F1F1" height="64.2969" id="vecsub" rx="2.5" ry="2.5" style="stroke:#181818;stroke-width:0.5;" width="207" x="203" y="255"/><ellipse cx="253.75" cy="271" fill="#F1F1F1" rx="11" ry="11" style="stroke:#181818;stroke-width:1.0;"/><path d="M253.2344,271.5625 Q251.375,270.8594 250.7188,270.0938 Q250.0781,269.3125 250.0781,268 Q250.0781,266.3125 251.1563,265.3438 Q252.2344,264.375 254.1094,264.375 Q254.9688,264.375 255.8125,264.5781 Q256.6719,264.7656 257.5156,265.1563 L257.5156,267.5469 Q256.7344,266.9844 255.9063,266.7031 Q255.0938,266.4063 254.2969,266.4063 Q253.4219,266.4063 252.9375,266.7656 Q252.4688,267.125 252.4688,267.7813 Q252.4688,268.2969 252.8125,268.6406 Q253.1563,268.9688 254.25,269.375 L255.3125,269.7813 Q256.7969,270.3281 257.5,271.2344 Q258.2188,272.1406 258.2188,273.5156 Q258.2188,275.3906 257.1094,276.3125 Q256,277.2344 253.75,277.2344 Q252.8281,277.2344 251.9063,277.0156 Q250.9844,276.7969 250.125,276.375 L250.125,273.8438 Q251.0938,274.5313 252.0156,274.875 Q252.9375,275.2188 253.8281,275.2188 Q254.7344,275.2188 255.2344,274.8125 Q255.7344,274.3906 255.7344,273.6563 Q255.7344,273.0938 255.3906,272.6875 Q255.0625,272.2656 254.4375,272.0156 L253.2344,271.5625 Z " fill="#000000"/><text fill="#000000" font-family="sans-serif" font-size="14" lengthAdjust="spacing" textLength="97" x="274.25" y="275.8467">VectorSubject</text><line style="stroke:#181818;stroke-width:0.5;" x1="204" x2="409" y1="287" y2="287"/><rect fill="none" height="6" style="stroke:#C82930;stroke-width:1.0;" width="6" x="211" y="297.6484"/><text fill="#000000" font-family="sans-serif" font-size="14" lengthAdjust="spacing" textLength="181" x="223" y="303.9951">listeners: Vec&lt;Observer&gt;</text><line style="stroke:#181818;stroke-width:0.5;" x1="204" x2="409" y1="311.2969" y2="311.2969"/></g><!--MD5=[c59387762c53c3589aebd34fd2056237]
class hshsub--><g id="elem_hshsub"><rect codeLine="31" fill="#F1F1F1" height="64.2969" id="hshsub" rx="2.5" ry="2.5" style="stroke:#181818;stroke-width:0.5;" width="294" x="198.5" y="7"/><ellipse cx="297.75" cy="23" fill="#F1F1F1" rx="11" ry="11" style="stroke:#181818;stroke-width:1.0;"/><path d="M297.2344,23.5625 Q295.375,22.8594 294.7188,22.0938 Q294.0781,21.3125 294.0781,20 Q294.0781,18.3125 295.1563,17.3438 Q296.2344,16.375 298.1094,16.375 Q298.9688,16.375 299.8125,16.5781 Q300.6719,16.7656 301.5156,17.1563 L301.5156,19.5469 Q300.7344,18.9844 299.9063,18.7031 Q299.0938,18.4063 298.2969,18.4063 Q297.4219,18.4063 296.9375,18.7656 Q296.4688,19.125 296.4688,19.7813 Q296.4688,20.2969 296.8125,20.6406 Q297.1563,20.9688 298.25,21.375 L299.3125,21.7813 Q300.7969,22.3281 301.5,23.2344 Q302.2188,24.1406 302.2188,25.5156 Q302.2188,27.3906 301.1094,28.3125 Q300,29.2344 297.75,29.2344 Q296.8281,29.2344 295.9063,29.0156 Q294.9844,28.7969 294.125,28.375 L294.125,25.8438 Q295.0938,26.5313 296.0156,26.875 Q296.9375,27.2188 297.8281,27.2188 Q298.7344,27.2188 299.2344,26.8125 Q299.7344,26.3906 299.7344,25.6563 Q299.7344,25.0938 299.3906,24.6875 Q299.0625,24.2656 298.4375,24.0156 L297.2344,23.5625 Z " fill="#000000"/><text fill="#000000" font-family="sans-serif" font-size="14" lengthAdjust="spacing" textLength="87" x="318.25" y="27.8467">HashSubject</text><line style="stroke:#181818;stroke-width:0.5;" x1="199.5" x2="491.5" y1="39" y2="39"/><rect fill="none" height="6" style="stroke:#C82930;stroke-width:1.0;" width="6" x="206.5" y="49.6484"/><text fill="#000000" font-family="sans-serif" font-size="14" lengthAdjust="spacing" textLength="268" x="218.5" y="55.9951">listeners: HashSet&lt;Observer + Hash&gt;</text><line style="stroke:#181818;stroke-width:0.5;" x1="199.5" x2="491.5" y1="63.2969" y2="63.2969"/></g><!--MD5=[075d81ac5e6c102f8321644f67374cd3]
class cmd--><g id="elem_cmd"><rect codeLine="39" fill="#F1F1F1" height="48" id="cmd" rx="2.5" ry="2.5" style="stroke:#181818;stroke-width:0.5;" width="103" x="7" y="263"/><ellipse cx="22" cy="279" fill="#B4A7E5" rx="11" ry="11" style="stroke:#181818;stroke-width:1.0;"/><path d="M17.9219,274.7656 L17.9219,272.6094 L25.3125,272.6094 L25.3125,274.7656 L22.8438,274.7656 L22.8438,282.8438 L25.3125,282.8438 L25.3125,285 L17.9219,285 L17.9219,282.8438 L20.3906,282.8438 L20.3906,274.7656 L17.9219,274.7656 Z " fill="#000000"/><text fill="#000000" font-family="sans-serif" font-size="14" font-style="italic" lengthAdjust="spacing" textLength="71" x="36" y="283.8467">Command</text><line style="stroke:#181818;stroke-width:0.5;" x1="8" x2="109" y1="295" y2="295"/><line style="stroke:#181818;stroke-width:0.5;" x1="8" x2="109" y1="303" y2="303"/></g><!--MD5=[c33a6cf1711d2f3d178d9a1f5066e2f4]
reverse link notif to obs--><g id="link_notif_obs"><path codeLine="7" d="M80.4,91.69 C75.29,108.1 69.89,125.43 65.73,138.78 " fill="none" id="notif-backto-obs" style="stroke:#181818;stroke-width:1.0;"/><polygon fill="none" points="73.63,89.88,86.26,72.86,87,94.04,73.63,89.88" style="stroke:#181818;stroke-width:1.0;"/></g><!--MD5=[d258b2c992c171607e3a9f169bee164b]
reverse link notif to sub--><g id="link_notif_sub"><path codeLine="19" d="M131.21,88.68 C143.54,105.96 156.84,124.61 166.94,138.78 " fill="none" id="notif-backto-sub" style="stroke:#181818;stroke-width:1.0;"/><polygon fill="none" points="125.7,93,119.78,72.65,137.09,84.87,125.7,93" style="stroke:#181818;stroke-width:1.0;"/></g><!--MD5=[21b701f8019e23e04bf7890d4b9c0662]
reverse link sub to vecsub--><g id="link_sub_vecsub"><path codeLine="26" d="M222.14,202.33 C239.08,219.13 258.73,238.62 274.8,254.55 " fill="none" id="sub-backto-vecsub" style="stroke:#181818;stroke-width:1.0;stroke-dasharray:7.0,7.0;"/><polygon fill="none" points="217.27,207.35,208,188.3,227.13,197.41,217.27,207.35" style="stroke:#181818;stroke-width:1.0;"/></g><!--MD5=[6ec54129a31640b0651fd9d682450e1a]
reverse link attach to vecsub--><g id="link_attach_vecsub"><path codeLine="27" d="M484.11,199.33 C448.31,216.8 405.47,237.7 370.83,254.61 " fill="none" id="attach-backto-vecsub" style="stroke:#181818;stroke-width:1.0;stroke-dasharray:7.0,7.0;"/><polygon fill="none" points="480.77,193.17,501.82,190.69,486.91,205.75,480.77,193.17" style="stroke:#181818;stroke-width:1.0;"/></g><!--MD5=[550ec70e15b770e0507f87164a52de50]
reverse link detach to vecsub--><g id="link_detach_vecsub"><path codeLine="28" d="M340.48,214.52 C334.01,228.13 327.2,242.46 321.39,254.69 " fill="none" id="detach-backto-vecsub" style="stroke:#181818;stroke-width:1.0;stroke-dasharray:7.0,7.0;"/><polygon fill="none" points="334,211.84,348.91,196.78,346.65,217.85,334,211.84" style="stroke:#181818;stroke-width:1.0;"/></g><!--MD5=[5234a9d2d582aa0e81f5f8e060301f22]
reverse link obs to vecsub--><g id="link_obs_vecsub"><path codeLine="29" d="M111.59,190.12 C149.99,209.01 202.07,234.62 242.73,254.63 " fill="none" id="obs-backto-vecsub" style="stroke:#181818;stroke-width:1.0;"/><polygon fill="#181818" points="107.38,188.05,113.6991,195.6044,111.8692,190.2517,117.2218,188.4217,107.38,188.05" style="stroke:#181818;stroke-width:1.0;"/></g><!--MD5=[33a8a5b5ab6b9efaea218dda6f79512c]
link hshsub to sub--><g id="link_hshsub_sub"><path codeLine="34" d="M303.78,71.42 C281.7,88.05 254.49,108.54 231.53,125.83 " fill="none" id="hshsub-to-sub" style="stroke:#181818;stroke-width:1.0;stroke-dasharray:7.0,7.0;"/><polygon fill="none" points="235.98,131.24,215.8,137.68,227.56,120.06,235.98,131.24" style="stroke:#181818;stroke-width:1.0;"/></g><!--MD5=[57b136893364d513d008e23294eab9dc]
link hshsub to attach--><g id="link_hshsub_attach"><path codeLine="35" d="M399.84,71.42 C425.63,86.33 456.81,104.36 484.54,120.39 " fill="none" id="hshsub-to-attach" style="stroke:#181818;stroke-width:1.0;stroke-dasharray:7.0,7.0;"/><polygon fill="none" points="487.96,114.28,501.77,130.35,480.95,126.4,487.96,114.28" style="stroke:#181818;stroke-width:1.0;"/></g><!--MD5=[437bb0ab68ff4edec4bc369bf1e2a697]
link hshsub to detach--><g id="link_hshsub_detach"><path codeLine="36" d="M350.39,71.42 C352.21,83.09 354.32,96.66 356.35,109.7 " fill="none" id="hshsub-to-detach" style="stroke:#181818;stroke-width:1.0;stroke-dasharray:7.0,7.0;"/><polygon fill="none" points="363.23,108.35,359.39,129.19,349.4,110.51,363.23,108.35" style="stroke:#181818;stroke-width:1.0;"/></g><!--MD5=[2ac732afdf2d5eab9fe02b5c0efbb27a]
link hshsub to obs--><g id="link_hshsub_obs"><path codeLine="37" d="M265.67,71.47 C223.21,88.52 170.25,110.29 123.5,131 C119.74,132.67 115.87,134.42 111.98,136.2 " fill="none" id="hshsub-to-obs" style="stroke:#181818;stroke-width:1.0;"/><polygon fill="#181818" points="107.65,138.2,117.4976,138.0426,112.186,136.0965,114.1321,130.785,107.65,138.2" style="stroke:#181818;stroke-width:1.0;"/></g><!--MD5=[5a24e2b26ce368371fb2c9504b948b39]
reverse link obs to cmd--><g id="link_obs_cmd"><path codeLine="42" d="M58.5,208.49 C58.5,226.92 58.5,247.52 58.5,262.85 " fill="none" id="obs-backto-cmd" style="stroke:#181818;stroke-width:1.0;stroke-dasharray:7.0,7.0;"/><polygon fill="none" points="51.5,208.75,58.5,188.75,65.5,208.75,51.5,208.75" style="stroke:#181818;stroke-width:1.0;"/></g><!--MD5=[1b0c035d497dc819e447f3d18cb9e4f6]
@startuml "observer"
interface "Notifiable" as notif {
    {method} + notify()
}

interface "Observer" as obs {
}
obs -u-|> notif

interface "Attachable" as attach {
    {method} + attach()
}

interface "Detachable" as detach {
    {method} + detach(listener: Observer)
}

interface "Subject" as sub {
}
sub -u-|> notif



struct "VectorSubject" as vecsub {
    {field} - listeners: Vec<Observer>
}
vecsub .u.|> sub
vecsub .u.|> attach
vecsub .u.|> detach
vecsub -u-> obs

struct "HashSubject" as hshsub {
    {field} - listeners: HashSet<Observer + Hash>
}
hshsub .d.|> sub
hshsub .d.|> attach
hshsub .d.|> detach
hshsub -d-> obs

interface "Command" as cmd {

}
cmd .u.|> obs

@enduml

PlantUML version 1.2022.12(Sun Oct 23 18:12:26 GMT 2022)
(GPL source distribution)
Java Runtime: OpenJDK Runtime Environment
JVM: OpenJDK 64-Bit Server VM
Default Encoding: UTF-8
Language: en
Country: US
--></g></svg>