<?xml version="1.0" encoding="UTF-8" standalone="no"?><svg xmlns="http://www.w3.org/2000/svg" xmlns:xlink="http://www.w3.org/1999/xlink" contentStyleType="text/css" height="326px" preserveAspectRatio="none" style="width:707px;height:326px;background:#FFFFFF;" version="1.1" viewBox="0 0 707 326" width="707px" zoomAndPan="magnify"><defs/><g><!--MD5=[8ab7eb4cd4e39d2a6a19fed9f9b9e14d]
class obs--><g id="elem_obs"><rect codeLine="1" fill="#F1F1F1" height="64.2969" id="obs" rx="2.5" ry="2.5" style="stroke:#181818;stroke-width:0.5;" width="95" x="7" y="131"/><ellipse cx="22" cy="147" fill="#B4A7E5" rx="11" ry="11" style="stroke:#181818;stroke-width:1.0;"/><path d="M17.9219,142.7656 L17.9219,140.6094 L25.3125,140.6094 L25.3125,142.7656 L22.8438,142.7656 L22.8438,150.8438 L25.3125,150.8438 L25.3125,153 L17.9219,153 L17.9219,150.8438 L20.3906,150.8438 L20.3906,142.7656 L17.9219,142.7656 Z " fill="#000000"/><text fill="#000000" font-family="sans-serif" font-size="14" font-style="italic" lengthAdjust="spacing" textLength="63" x="36" y="151.8467">Observer</text><line style="stroke:#181818;stroke-width:0.5;" x1="8" x2="101" y1="163" y2="163"/><line style="stroke:#181818;stroke-width:0.5;" x1="8" x2="101" y1="171" y2="171"/><ellipse cx="18" cy="184.6484" fill="#84BE84" rx="3" ry="3" style="stroke:#038048;stroke-width:1.0;"/><text fill="#000000" font-family="sans-serif" font-size="14" lengthAdjust="spacing" textLength="47" x="27" y="187.9951">notify()</text></g><!--MD5=[498bb4b8c8586854b5441efac622a04f]
class attach--><g id="elem_attach"><rect codeLine="5" fill="#F1F1F1" height="64.2969" id="attach" rx="2.5" ry="2.5" style="stroke:#181818;stroke-width:0.5;" width="202" x="379.5" y="131"/><ellipse cx="439.25" cy="147" fill="#B4A7E5" rx="11" ry="11" style="stroke:#181818;stroke-width:1.0;"/><path d="M435.1719,142.7656 L435.1719,140.6094 L442.5625,140.6094 L442.5625,142.7656 L440.0938,142.7656 L440.0938,150.8438 L442.5625,150.8438 L442.5625,153 L435.1719,153 L435.1719,150.8438 L437.6406,150.8438 L437.6406,142.7656 L435.1719,142.7656 Z " fill="#000000"/><text fill="#000000" font-family="sans-serif" font-size="14" font-style="italic" lengthAdjust="spacing" textLength="74" x="459.75" y="151.8467">Attachable</text><line style="stroke:#181818;stroke-width:0.5;" x1="380.5" x2="580.5" y1="163" y2="163"/><line style="stroke:#181818;stroke-width:0.5;" x1="380.5" x2="580.5" y1="171" y2="171"/><ellipse cx="390.5" cy="184.6484" fill="#84BE84" rx="3" ry="3" style="stroke:#038048;stroke-width:1.0;"/><text fill="#000000" font-family="sans-serif" font-size="14" lengthAdjust="spacing" textLength="176" x="399.5" y="187.9951">attach(listener: Observer)</text></g><!--MD5=[98fc0fa891ea7d0064016719aaa3edbc]
class detach--><g id="elem_detach"><rect codeLine="9" fill="#F1F1F1" height="64.2969" id="detach" rx="2.5" ry="2.5" style="stroke:#181818;stroke-width:0.5;" width="207" x="137" y="131"/><ellipse cx="196.75" cy="147" fill="#B4A7E5" rx="11" ry="11" style="stroke:#181818;stroke-width:1.0;"/><path d="M192.6719,142.7656 L192.6719,140.6094 L200.0625,140.6094 L200.0625,142.7656 L197.5938,142.7656 L197.5938,150.8438 L200.0625,150.8438 L200.0625,153 L192.6719,153 L192.6719,150.8438 L195.1406,150.8438 L195.1406,142.7656 L192.6719,142.7656 Z " fill="#000000"/><text fill="#000000" font-family="sans-serif" font-size="14" font-style="italic" lengthAdjust="spacing" textLength="79" x="217.25" y="151.8467">Detachable</text><line style="stroke:#181818;stroke-width:0.5;" x1="138" x2="343" y1="163" y2="163"/><line style="stroke:#181818;stroke-width:0.5;" x1="138" x2="343" y1="171" y2="171"/><ellipse cx="148" cy="184.6484" fill="#84BE84" rx="3" ry="3" style="stroke:#038048;stroke-width:1.0;"/><text fill="#000000" font-family="sans-serif" font-size="14" lengthAdjust="spacing" textLength="181" x="157" y="187.9951">detach(listener: Observer)</text></g><!--MD5=[ebb1579c2e8f6aed150e1e73dc8a2e79]
class sub--><g id="elem_sub"><rect codeLine="13" fill="#F1F1F1" height="64.2969" id="sub" rx="2.5" ry="2.5" style="stroke:#181818;stroke-width:0.5;" width="84" x="616.5" y="131"/><ellipse cx="631.5" cy="147" fill="#B4A7E5" rx="11" ry="11" style="stroke:#181818;stroke-width:1.0;"/><path d="M627.4219,142.7656 L627.4219,140.6094 L634.8125,140.6094 L634.8125,142.7656 L632.3438,142.7656 L632.3438,150.8438 L634.8125,150.8438 L634.8125,153 L627.4219,153 L627.4219,150.8438 L629.8906,150.8438 L629.8906,142.7656 L627.4219,142.7656 Z " fill="#000000"/><text fill="#000000" font-family="sans-serif" font-size="14" font-style="italic" lengthAdjust="spacing" textLength="52" x="645.5" y="151.8467">Subject</text><line style="stroke:#181818;stroke-width:0.5;" x1="617.5" x2="699.5" y1="163" y2="163"/><line style="stroke:#181818;stroke-width:0.5;" x1="617.5" x2="699.5" y1="171" y2="171"/><ellipse cx="627.5" cy="184.6484" fill="#84BE84" rx="3" ry="3" style="stroke:#038048;stroke-width:1.0;"/><text fill="#000000" font-family="sans-serif" font-size="14" lengthAdjust="spacing" textLength="47" x="636.5" y="187.9951">notify()</text></g><!--MD5=[6573b784d4c522ebeee8f290bd66cb9a]
class vecsub--><g id="elem_vecsub"><rect codeLine="17" fill="#F1F1F1" height="64.2969" id="vecsub" rx="2.5" ry="2.5" style="stroke:#181818;stroke-width:0.5;" width="207" x="257" y="255"/><ellipse cx="307.75" cy="271" fill="#F1F1F1" rx="11" ry="11" style="stroke:#181818;stroke-width:1.0;"/><path d="M307.2344,271.5625 Q305.375,270.8594 304.7188,270.0938 Q304.0781,269.3125 304.0781,268 Q304.0781,266.3125 305.1563,265.3438 Q306.2344,264.375 308.1094,264.375 Q308.9688,264.375 309.8125,264.5781 Q310.6719,264.7656 311.5156,265.1563 L311.5156,267.5469 Q310.7344,266.9844 309.9063,266.7031 Q309.0938,266.4063 308.2969,266.4063 Q307.4219,266.4063 306.9375,266.7656 Q306.4688,267.125 306.4688,267.7813 Q306.4688,268.2969 306.8125,268.6406 Q307.1563,268.9688 308.25,269.375 L309.3125,269.7813 Q310.7969,270.3281 311.5,271.2344 Q312.2188,272.1406 312.2188,273.5156 Q312.2188,275.3906 311.1094,276.3125 Q310,277.2344 307.75,277.2344 Q306.8281,277.2344 305.9063,277.0156 Q304.9844,276.7969 304.125,276.375 L304.125,273.8438 Q305.0938,274.5313 306.0156,274.875 Q306.9375,275.2188 307.8281,275.2188 Q308.7344,275.2188 309.2344,274.8125 Q309.7344,274.3906 309.7344,273.6563 Q309.7344,273.0938 309.3906,272.6875 Q309.0625,272.2656 308.4375,272.0156 L307.2344,271.5625 Z " fill="#000000"/><text fill="#000000" font-family="sans-serif" font-size="14" lengthAdjust="spacing" textLength="97" x="328.25" y="275.8467">VectorSubject</text><line style="stroke:#181818;stroke-width:0.5;" x1="258" x2="463" y1="287" y2="287"/><rect fill="none" height="6" style="stroke:#C82930;stroke-width:1.0;" width="6" x="265" y="297.6484"/><text fill="#000000" font-family="sans-serif" font-size="14" lengthAdjust="spacing" textLength="181" x="277" y="303.9951">listeners: Vec&lt;Observer&gt;</text><line style="stroke:#181818;stroke-width:0.5;" x1="258" x2="463" y1="311.2969" y2="311.2969"/></g><!--MD5=[c59387762c53c3589aebd34fd2056237]
class hshsub--><g id="elem_hshsub"><rect codeLine="25" fill="#F1F1F1" height="64.2969" id="hshsub" rx="2.5" ry="2.5" style="stroke:#181818;stroke-width:0.5;" width="294" x="213.5" y="7"/><ellipse cx="312.75" cy="23" fill="#F1F1F1" rx="11" ry="11" style="stroke:#181818;stroke-width:1.0;"/><path d="M312.2344,23.5625 Q310.375,22.8594 309.7188,22.0938 Q309.0781,21.3125 309.0781,20 Q309.0781,18.3125 310.1563,17.3438 Q311.2344,16.375 313.1094,16.375 Q313.9688,16.375 314.8125,16.5781 Q315.6719,16.7656 316.5156,17.1563 L316.5156,19.5469 Q315.7344,18.9844 314.9063,18.7031 Q314.0938,18.4063 313.2969,18.4063 Q312.4219,18.4063 311.9375,18.7656 Q311.4688,19.125 311.4688,19.7813 Q311.4688,20.2969 311.8125,20.6406 Q312.1563,20.9688 313.25,21.375 L314.3125,21.7813 Q315.7969,22.3281 316.5,23.2344 Q317.2188,24.1406 317.2188,25.5156 Q317.2188,27.3906 316.1094,28.3125 Q315,29.2344 312.75,29.2344 Q311.8281,29.2344 310.9063,29.0156 Q309.9844,28.7969 309.125,28.375 L309.125,25.8438 Q310.0938,26.5313 311.0156,26.875 Q311.9375,27.2188 312.8281,27.2188 Q313.7344,27.2188 314.2344,26.8125 Q314.7344,26.3906 314.7344,25.6563 Q314.7344,25.0938 314.3906,24.6875 Q314.0625,24.2656 313.4375,24.0156 L312.2344,23.5625 Z " fill="#000000"/><text fill="#000000" font-family="sans-serif" font-size="14" lengthAdjust="spacing" textLength="87" x="333.25" y="27.8467">HashSubject</text><line style="stroke:#181818;stroke-width:0.5;" x1="214.5" x2="506.5" y1="39" y2="39"/><rect fill="none" height="6" style="stroke:#C82930;stroke-width:1.0;" width="6" x="221.5" y="49.6484"/><text fill="#000000" font-family="sans-serif" font-size="14" lengthAdjust="spacing" textLength="268" x="233.5" y="55.9951">listeners: HashSet&lt;Observer + Hash&gt;</text><line style="stroke:#181818;stroke-width:0.5;" x1="214.5" x2="506.5" y1="63.2969" y2="63.2969"/></g><!--MD5=[21b701f8019e23e04bf7890d4b9c0662]
reverse link sub to vecsub--><g id="link_sub_vecsub"><path codeLine="20" d="M596.72,195.8 C540.01,221.09 491.26,239.77 450.64,254.58 " fill="none" id="sub-backto-vecsub" style="stroke:#181818;stroke-width:1.0;stroke-dasharray:7.0,7.0;"/><polygon fill="none" points="593.78,189.45,614.88,187.59,599.54,202.21,593.78,189.45" style="stroke:#181818;stroke-width:1.0;"/></g><!--MD5=[6ec54129a31640b0651fd9d682450e1a]
reverse link attach to vecsub--><g id="link_attach_vecsub"><path codeLine="21" d="M434.52,210.74 C420.06,225.45 404.44,241.33 391.3,254.69 " fill="none" id="attach-backto-vecsub" style="stroke:#181818;stroke-width:1.0;stroke-dasharray:7.0,7.0;"/><polygon fill="none" points="429.52,205.85,448.54,196.5,439.5,215.66,429.52,205.85" style="stroke:#181818;stroke-width:1.0;"/></g><!--MD5=[550ec70e15b770e0507f87164a52de50]
reverse link detach to vecsub--><g id="link_detach_vecsub"><path codeLine="22" d="M286.48,210.74 C300.94,225.45 316.56,241.33 329.7,254.69 " fill="none" id="detach-backto-vecsub" style="stroke:#181818;stroke-width:1.0;stroke-dasharray:7.0,7.0;"/><polygon fill="none" points="281.5,215.66,272.46,196.5,291.48,205.85,281.5,215.66" style="stroke:#181818;stroke-width:1.0;"/></g><!--MD5=[5234a9d2d582aa0e81f5f8e060301f22]
reverse link obs to vecsub--><g id="link_obs_vecsub"><path codeLine="23" d="M107.93,189.92 C111.83,191.67 115.71,193.39 119.5,195 C169.38,216.27 226.08,237.8 271.94,254.58 " fill="none" id="obs-backto-vecsub" style="stroke:#181818;stroke-width:1.0;"/><polygon fill="#181818" points="103.59,187.94,110.1281,195.3057,108.1418,190.009,113.4385,188.0228,103.59,187.94" style="stroke:#181818;stroke-width:1.0;"/></g><!--MD5=[33a8a5b5ab6b9efaea218dda6f79512c]
link hshsub to sub--><g id="link_hshsub_sub"><path codeLine="28" d="M450.64,71.42 C491.26,86.23 540.01,104.91 596.72,130.2 " fill="none" id="hshsub-to-sub" style="stroke:#181818;stroke-width:1.0;stroke-dasharray:7.0,7.0;"/><polygon fill="none" points="599.54,123.79,614.88,138.41,593.78,136.55,599.54,123.79" style="stroke:#181818;stroke-width:1.0;"/></g><!--MD5=[57b136893364d513d008e23294eab9dc]
link hshsub to attach--><g id="link_hshsub_attach"><path codeLine="29" d="M391.4,71.42 C404.56,84.79 420.18,100.68 434.64,115.38 " fill="none" id="hshsub-to-attach" style="stroke:#181818;stroke-width:1.0;stroke-dasharray:7.0,7.0;"/><polygon fill="none" points="439.61,110.44,448.64,129.61,429.63,120.26,439.61,110.44" style="stroke:#181818;stroke-width:1.0;"/></g><!--MD5=[437bb0ab68ff4edec4bc369bf1e2a697]
link hshsub to detach--><g id="link_hshsub_detach"><path codeLine="30" d="M329.6,71.42 C316.44,84.79 300.82,100.68 286.36,115.38 " fill="none" id="hshsub-to-detach" style="stroke:#181818;stroke-width:1.0;stroke-dasharray:7.0,7.0;"/><polygon fill="none" points="291.37,120.26,272.36,129.61,281.39,110.44,291.37,120.26" style="stroke:#181818;stroke-width:1.0;"/></g><!--MD5=[2ac732afdf2d5eab9fe02b5c0efbb27a]
link hshsub to obs--><g id="link_hshsub_obs"><path codeLine="31" d="M271.94,71.42 C226.08,88.2 169.38,109.73 119.5,131 C115.71,132.61 111.83,134.33 107.93,136.08 " fill="none" id="hshsub-to-obs" style="stroke:#181818;stroke-width:1.0;"/><polygon fill="#181818" points="103.59,138.06,113.4385,137.9772,108.1418,135.991,110.1281,130.6943,103.59,138.06" style="stroke:#181818;stroke-width:1.0;"/></g><!--MD5=[e5b6a1e771909468fad90433637b8772]
@startuml "observer"
interface "Observer" as obs {
    {method} + notify()
}

interface "Attachable" as attach {
    {method} + attach(listener: Observer)
}

interface "Detachable" as detach {
    {method} + detach(listener: Observer)
}

interface "Subject" as sub {
    {method} + notify()
}

struct "VectorSubject" as vecsub {
    {field} - listeners: Vec<Observer>
}
vecsub .u.|> sub
vecsub .u.|> attach
vecsub .u.|> detach
vecsub -u-> obs

struct "HashSubject" as hshsub {
    {field} - listeners: HashSet<Observer + Hash>
}
hshsub .d.|> sub
hshsub .d.|> attach
hshsub .d.|> detach
hshsub -d-> obs

@enduml

PlantUML version 1.2022.12(Sun Oct 23 18:12:26 GMT 2022)
(GPL source distribution)
Java Runtime: OpenJDK Runtime Environment
JVM: OpenJDK 64-Bit Server VM
Default Encoding: UTF-8
Language: en
Country: US
--></g></svg>