<?xml version="1.0" encoding="UTF-8" standalone="no"?><svg xmlns="http://www.w3.org/2000/svg" xmlns:xlink="http://www.w3.org/1999/xlink" contentStyleType="text/css" height="450px" preserveAspectRatio="none" style="width:591px;height:450px;background:#FFFFFF;" version="1.1" viewBox="0 0 591 450" width="591px" zoomAndPan="magnify"><defs/><g><!--MD5=[8ab7eb4cd4e39d2a6a19fed9f9b9e14d]
class obs--><g id="elem_obs"><rect codeLine="1" fill="#F1F1F1" height="64.2969" id="obs" rx="2.5" ry="2.5" style="stroke:#181818;stroke-width:0.5;" width="95" x="84.31" y="131"/><ellipse cx="99.31" cy="147" fill="#B4A7E5" rx="11" ry="11" style="stroke:#181818;stroke-width:1.0;"/><path d="M95.2319,142.7656 L95.2319,140.6094 L102.6225,140.6094 L102.6225,142.7656 L100.1538,142.7656 L100.1538,150.8438 L102.6225,150.8438 L102.6225,153 L95.2319,153 L95.2319,150.8438 L97.7006,150.8438 L97.7006,142.7656 L95.2319,142.7656 Z " fill="#000000"/><text fill="#000000" font-family="sans-serif" font-size="14" font-style="italic" lengthAdjust="spacing" textLength="63" x="113.31" y="151.8467">Observer</text><line style="stroke:#181818;stroke-width:0.5;" x1="85.31" x2="178.31" y1="163" y2="163"/><line style="stroke:#181818;stroke-width:0.5;" x1="85.31" x2="178.31" y1="171" y2="171"/><ellipse cx="95.31" cy="184.6484" fill="#84BE84" rx="3" ry="3" style="stroke:#038048;stroke-width:1.0;"/><text fill="#000000" font-family="sans-serif" font-size="14" lengthAdjust="spacing" textLength="47" x="104.31" y="187.9951">notify()</text></g><!--MD5=[498bb4b8c8586854b5441efac622a04f]
class attach--><g id="elem_attach"><rect codeLine="5" fill="#F1F1F1" height="64.2969" id="attach" rx="2.5" ry="2.5" style="stroke:#181818;stroke-width:0.5;" width="106" x="478.81" y="131"/><ellipse cx="493.81" cy="147" fill="#B4A7E5" rx="11" ry="11" style="stroke:#181818;stroke-width:1.0;"/><path d="M489.7319,142.7656 L489.7319,140.6094 L497.1225,140.6094 L497.1225,142.7656 L494.6538,142.7656 L494.6538,150.8438 L497.1225,150.8438 L497.1225,153 L489.7319,153 L489.7319,150.8438 L492.2006,150.8438 L492.2006,142.7656 L489.7319,142.7656 Z " fill="#000000"/><text fill="#000000" font-family="sans-serif" font-size="14" font-style="italic" lengthAdjust="spacing" textLength="74" x="507.81" y="151.8467">Attachable</text><line style="stroke:#181818;stroke-width:0.5;" x1="479.81" x2="583.81" y1="163" y2="163"/><line style="stroke:#181818;stroke-width:0.5;" x1="479.81" x2="583.81" y1="171" y2="171"/><ellipse cx="489.81" cy="184.6484" fill="#84BE84" rx="3" ry="3" style="stroke:#038048;stroke-width:1.0;"/><text fill="#000000" font-family="sans-serif" font-size="14" lengthAdjust="spacing" textLength="53" x="498.81" y="187.9951">attach()</text></g><!--MD5=[98fc0fa891ea7d0064016719aaa3edbc]
class detach--><g id="elem_detach"><rect codeLine="9" fill="#F1F1F1" height="64.2969" id="detach" rx="2.5" ry="2.5" style="stroke:#181818;stroke-width:0.5;" width="207" x="298.31" y="255"/><ellipse cx="358.06" cy="271" fill="#B4A7E5" rx="11" ry="11" style="stroke:#181818;stroke-width:1.0;"/><path d="M353.9819,266.7656 L353.9819,264.6094 L361.3725,264.6094 L361.3725,266.7656 L358.9038,266.7656 L358.9038,274.8438 L361.3725,274.8438 L361.3725,277 L353.9819,277 L353.9819,274.8438 L356.4506,274.8438 L356.4506,266.7656 L353.9819,266.7656 Z " fill="#000000"/><text fill="#000000" font-family="sans-serif" font-size="14" font-style="italic" lengthAdjust="spacing" textLength="79" x="378.56" y="275.8467">Detachable</text><line style="stroke:#181818;stroke-width:0.5;" x1="299.31" x2="504.31" y1="287" y2="287"/><line style="stroke:#181818;stroke-width:0.5;" x1="299.31" x2="504.31" y1="295" y2="295"/><ellipse cx="309.31" cy="308.6484" fill="#84BE84" rx="3" ry="3" style="stroke:#038048;stroke-width:1.0;"/><text fill="#000000" font-family="sans-serif" font-size="14" lengthAdjust="spacing" textLength="181" x="318.31" y="311.9951">detach(listener: Observer)</text></g><!--MD5=[ebb1579c2e8f6aed150e1e73dc8a2e79]
class sub--><g id="elem_sub"><rect codeLine="13" fill="#F1F1F1" height="64.2969" id="sub" rx="2.5" ry="2.5" style="stroke:#181818;stroke-width:0.5;" width="84" x="178.81" y="255"/><ellipse cx="193.81" cy="271" fill="#B4A7E5" rx="11" ry="11" style="stroke:#181818;stroke-width:1.0;"/><path d="M189.7319,266.7656 L189.7319,264.6094 L197.1225,264.6094 L197.1225,266.7656 L194.6538,266.7656 L194.6538,274.8438 L197.1225,274.8438 L197.1225,277 L189.7319,277 L189.7319,274.8438 L192.2006,274.8438 L192.2006,266.7656 L189.7319,266.7656 Z " fill="#000000"/><text fill="#000000" font-family="sans-serif" font-size="14" font-style="italic" lengthAdjust="spacing" textLength="52" x="207.81" y="275.8467">Subject</text><line style="stroke:#181818;stroke-width:0.5;" x1="179.81" x2="261.81" y1="287" y2="287"/><line style="stroke:#181818;stroke-width:0.5;" x1="179.81" x2="261.81" y1="295" y2="295"/><ellipse cx="189.81" cy="308.6484" fill="#84BE84" rx="3" ry="3" style="stroke:#038048;stroke-width:1.0;"/><text fill="#000000" font-family="sans-serif" font-size="14" lengthAdjust="spacing" textLength="47" x="198.81" y="311.9951">notify()</text></g><!--MD5=[6573b784d4c522ebeee8f290bd66cb9a]
class vecsub--><g id="elem_vecsub"><rect codeLine="20" fill="#F1F1F1" height="64.2969" id="vecsub" rx="2.5" ry="2.5" style="stroke:#181818;stroke-width:0.5;" width="207" x="207.31" y="379"/><ellipse cx="258.06" cy="395" fill="#F1F1F1" rx="11" ry="11" style="stroke:#181818;stroke-width:1.0;"/><path d="M257.5444,395.5625 Q255.685,394.8594 255.0288,394.0938 Q254.3881,393.3125 254.3881,392 Q254.3881,390.3125 255.4663,389.3438 Q256.5444,388.375 258.4194,388.375 Q259.2788,388.375 260.1225,388.5781 Q260.9819,388.7656 261.8256,389.1563 L261.8256,391.5469 Q261.0444,390.9844 260.2163,390.7031 Q259.4038,390.4063 258.6069,390.4063 Q257.7319,390.4063 257.2475,390.7656 Q256.7788,391.125 256.7788,391.7813 Q256.7788,392.2969 257.1225,392.6406 Q257.4663,392.9688 258.56,393.375 L259.6225,393.7813 Q261.1069,394.3281 261.81,395.2344 Q262.5288,396.1406 262.5288,397.5156 Q262.5288,399.3906 261.4194,400.3125 Q260.31,401.2344 258.06,401.2344 Q257.1381,401.2344 256.2163,401.0156 Q255.2944,400.7969 254.435,400.375 L254.435,397.8438 Q255.4038,398.5313 256.3256,398.875 Q257.2475,399.2188 258.1381,399.2188 Q259.0444,399.2188 259.5444,398.8125 Q260.0444,398.3906 260.0444,397.6563 Q260.0444,397.0938 259.7006,396.6875 Q259.3725,396.2656 258.7475,396.0156 L257.5444,395.5625 Z " fill="#000000"/><text fill="#000000" font-family="sans-serif" font-size="14" lengthAdjust="spacing" textLength="97" x="278.56" y="399.8467">VectorSubject</text><line style="stroke:#181818;stroke-width:0.5;" x1="208.31" x2="413.31" y1="411" y2="411"/><rect fill="none" height="6" style="stroke:#C82930;stroke-width:1.0;" width="6" x="215.31" y="421.6484"/><text fill="#000000" font-family="sans-serif" font-size="14" lengthAdjust="spacing" textLength="181" x="227.31" y="427.9951">listeners: Vec&lt;Observer&gt;</text><line style="stroke:#181818;stroke-width:0.5;" x1="208.31" x2="413.31" y1="435.2969" y2="435.2969"/></g><!--MD5=[c59387762c53c3589aebd34fd2056237]
class hshsub--><g id="elem_hshsub"><rect codeLine="29" fill="#F1F1F1" height="64.2969" id="hshsub" rx="2.5" ry="2.5" style="stroke:#181818;stroke-width:0.5;" width="294" x="134.81" y="7"/><ellipse cx="234.06" cy="23" fill="#F1F1F1" rx="11" ry="11" style="stroke:#181818;stroke-width:1.0;"/><path d="M233.5444,23.5625 Q231.685,22.8594 231.0288,22.0938 Q230.3881,21.3125 230.3881,20 Q230.3881,18.3125 231.4663,17.3438 Q232.5444,16.375 234.4194,16.375 Q235.2788,16.375 236.1225,16.5781 Q236.9819,16.7656 237.8256,17.1563 L237.8256,19.5469 Q237.0444,18.9844 236.2163,18.7031 Q235.4038,18.4063 234.6069,18.4063 Q233.7319,18.4063 233.2475,18.7656 Q232.7788,19.125 232.7788,19.7813 Q232.7788,20.2969 233.1225,20.6406 Q233.4663,20.9688 234.56,21.375 L235.6225,21.7813 Q237.1069,22.3281 237.81,23.2344 Q238.5288,24.1406 238.5288,25.5156 Q238.5288,27.3906 237.4194,28.3125 Q236.31,29.2344 234.06,29.2344 Q233.1381,29.2344 232.2163,29.0156 Q231.2944,28.7969 230.435,28.375 L230.435,25.8438 Q231.4038,26.5313 232.3256,26.875 Q233.2475,27.2188 234.1381,27.2188 Q235.0444,27.2188 235.5444,26.8125 Q236.0444,26.3906 236.0444,25.6563 Q236.0444,25.0938 235.7006,24.6875 Q235.3725,24.2656 234.7475,24.0156 L233.5444,23.5625 Z " fill="#000000"/><text fill="#000000" font-family="sans-serif" font-size="14" lengthAdjust="spacing" textLength="87" x="254.56" y="27.8467">HashSubject</text><line style="stroke:#181818;stroke-width:0.5;" x1="135.81" x2="427.81" y1="39" y2="39"/><rect fill="none" height="6" style="stroke:#C82930;stroke-width:1.0;" width="6" x="142.81" y="49.6484"/><text fill="#000000" font-family="sans-serif" font-size="14" lengthAdjust="spacing" textLength="268" x="154.81" y="55.9951">listeners: HashSet&lt;Observer + Hash&gt;</text><line style="stroke:#181818;stroke-width:0.5;" x1="135.81" x2="427.81" y1="63.2969" y2="63.2969"/></g><!--MD5=[075d81ac5e6c102f8321644f67374cd3]
class cmd--><g id="elem_cmd"><rect codeLine="37" fill="#F1F1F1" height="48" id="cmd" rx="2.5" ry="2.5" style="stroke:#181818;stroke-width:0.5;" width="103" x="40.31" y="263"/><ellipse cx="55.31" cy="279" fill="#B4A7E5" rx="11" ry="11" style="stroke:#181818;stroke-width:1.0;"/><path d="M51.2319,274.7656 L51.2319,272.6094 L58.6225,272.6094 L58.6225,274.7656 L56.1538,274.7656 L56.1538,282.8438 L58.6225,282.8438 L58.6225,285 L51.2319,285 L51.2319,282.8438 L53.7006,282.8438 L53.7006,274.7656 L51.2319,274.7656 Z " fill="#000000"/><text fill="#000000" font-family="sans-serif" font-size="14" font-style="italic" lengthAdjust="spacing" textLength="71" x="69.31" y="283.8467">Command</text><line style="stroke:#181818;stroke-width:0.5;" x1="41.31" x2="142.31" y1="295" y2="295"/><line style="stroke:#181818;stroke-width:0.5;" x1="41.31" x2="142.31" y1="303" y2="303"/></g><!--MD5=[923b4f4b78735dbab662f2f66641c935]
link obs to sub--><g id="link_obs_sub"><path codeLine="16" d="M154.73,195.42 C164.07,208.23 175.09,223.33 185.43,237.49 " fill="none" id="obs-to-sub" style="stroke:#181818;stroke-width:1.0;stroke-dasharray:7.0,7.0;"/><polygon fill="none" points="190.95,233.18,197.08,253.47,179.64,241.43,190.95,233.18" style="stroke:#181818;stroke-width:1.0;"/></g><!--MD5=[21b701f8019e23e04bf7890d4b9c0662]
reverse link sub to vecsub--><g id="link_sub_vecsub"><path codeLine="23" d="M256.68,336.63 C267.14,350.79 278.27,365.89 287.71,378.69 " fill="none" id="sub-backto-vecsub" style="stroke:#181818;stroke-width:1.0;stroke-dasharray:7.0,7.0;"/><polygon fill="none" points="251.13,340.89,244.89,320.64,262.39,332.57,251.13,340.89" style="stroke:#181818;stroke-width:1.0;"/></g><!--MD5=[6ec54129a31640b0651fd9d682450e1a]
reverse link attach to vecsub--><g id="link_attach_vecsub"><path codeLine="24" d="M541.83,216.62 C545.02,248.95 543.4,289.65 522.81,319 C497.57,354.99 455.01,376.84 414.61,390.07 " fill="none" id="attach-backto-vecsub" style="stroke:#181818;stroke-width:1.0;stroke-dasharray:7.0,7.0;"/><polygon fill="none" points="534.9,217.6,539.15,196.84,548.77,215.71,534.9,217.6" style="stroke:#181818;stroke-width:1.0;"/></g><!--MD5=[550ec70e15b770e0507f87164a52de50]
reverse link detach to vecsub--><g id="link_detach_vecsub"><path codeLine="25" d="M365.54,336.63 C354.97,350.79 343.71,365.89 334.17,378.69 " fill="none" id="detach-backto-vecsub" style="stroke:#181818;stroke-width:1.0;stroke-dasharray:7.0,7.0;"/><polygon fill="none" points="359.9,332.48,377.47,320.63,371.13,340.85,359.9,332.48" style="stroke:#181818;stroke-width:1.0;"/></g><!--MD5=[5234a9d2d582aa0e81f5f8e060301f22]
reverse link obs to vecsub--><g id="link_obs_vecsub"><path codeLine="26" d="M78.79,193.86 C57.21,209.1 34.61,229.78 22.81,255 C10.76,280.76 6,296.06 22.81,319 C45.17,349.51 133.77,374.53 206.87,390.56 " fill="none" id="obs-backto-vecsub" style="stroke:#181818;stroke-width:1.0;"/><polygon fill="#181818" points="82.71,191.16,73.0318,192.9854,78.5965,194.0023,77.5795,199.567,82.71,191.16" style="stroke:#181818;stroke-width:1.0;"/></g><!--MD5=[33a8a5b5ab6b9efaea218dda6f79512c]
link hshsub to sub--><g id="link_hshsub_sub"><path codeLine="32" d="M274.02,71.41 C263.86,112.4 245.92,184.73 233.71,233.97 " fill="none" id="hshsub-to-sub" style="stroke:#181818;stroke-width:1.0;stroke-dasharray:7.0,7.0;"/><polygon fill="none" points="240.53,235.58,228.92,253.31,226.94,232.22,240.53,235.58" style="stroke:#181818;stroke-width:1.0;"/></g><!--MD5=[57b136893364d513d008e23294eab9dc]
link hshsub to attach--><g id="link_hshsub_attach"><path codeLine="33" d="M346.19,71.42 C380.86,88.34 423.74,109.26 459.54,126.73 " fill="none" id="hshsub-to-attach" style="stroke:#181818;stroke-width:1.0;stroke-dasharray:7.0,7.0;"/><polygon fill="none" points="462.35,120.31,477.25,135.37,456.21,132.89,462.35,120.31" style="stroke:#181818;stroke-width:1.0;"/></g><!--MD5=[437bb0ab68ff4edec4bc369bf1e2a697]
link hshsub to detach--><g id="link_hshsub_detach"><path codeLine="34" d="M297.13,71.41 C317.36,112.87 353.21,186.36 377.24,235.63 " fill="none" id="hshsub-to-detach" style="stroke:#181818;stroke-width:1.0;stroke-dasharray:7.0,7.0;"/><polygon fill="none" points="383.44,232.38,385.92,253.42,370.86,238.51,383.44,232.38" style="stroke:#181818;stroke-width:1.0;"/></g><!--MD5=[2ac732afdf2d5eab9fe02b5c0efbb27a]
link hshsub to obs--><g id="link_hshsub_obs"><path codeLine="35" d="M243.18,71.42 C222.36,88.35 196.61,109.3 175.11,126.78 " fill="none" id="hshsub-to-obs" style="stroke:#181818;stroke-width:1.0;"/><polygon fill="#181818" points="171.48,129.73,180.9874,127.1591,175.3606,126.577,175.9427,120.9502,171.48,129.73" style="stroke:#181818;stroke-width:1.0;"/></g><!--MD5=[5a24e2b26ce368371fb2c9504b948b39]
reverse link obs to cmd--><g id="link_obs_cmd"><path codeLine="40" d="M114.86,215.69 C109.48,232.1 103.8,249.43 99.42,262.78 " fill="none" id="obs-backto-cmd" style="stroke:#181818;stroke-width:1.0;stroke-dasharray:7.0,7.0;"/><polygon fill="none" points="108.16,213.68,121.04,196.86,121.46,218.04,108.16,213.68" style="stroke:#181818;stroke-width:1.0;"/></g><!--MD5=[492206a7b11458a8cf40dd57b6fc517a]
@startuml
interface "Observer" as obs {
    {method} + notify()
}

interface "Attachable" as attach {
    {method} + attach()
}

interface "Detachable" as detach {
    {method} + detach(listener: Observer)
}

interface "Subject" as sub {
    {method} + notify()
}
obs ..|> sub



struct "VectorSubject" as vecsub {
    {field} - listeners: Vec<Observer>
}
vecsub .u.|> sub
vecsub .u.|> attach
vecsub .u.|> detach
vecsub -u-> obs


struct "HashSubject" as hshsub {
    {field} - listeners: HashSet<Observer + Hash>
}
hshsub .d.|> sub
hshsub .d.|> attach
hshsub .d.|> detach
hshsub -d-> obs

interface "Command" as cmd {

}
cmd .u.|> obs

@enduml

PlantUML version 1.2022.12(Sun Oct 23 18:12:26 GMT 2022)
(GPL source distribution)
Java Runtime: OpenJDK Runtime Environment
JVM: OpenJDK 64-Bit Server VM
Default Encoding: UTF-8
Language: en
Country: US
--></g></svg>