<?xml version="1.0" encoding="UTF-8" standalone="no"?><svg xmlns="http://www.w3.org/2000/svg" xmlns:xlink="http://www.w3.org/1999/xlink" contentStyleType="text/css" height="221px" preserveAspectRatio="none" style="width:253px;height:221px;background:#FFFFFF;" version="1.1" viewBox="0 0 253 221" width="253px" zoomAndPan="magnify"><defs/><g><!--MD5=[e0029d11b201e81ace191f0f28898e23]
class fact--><g id="elem_fact"><rect codeLine="2" fill="#F1F1F1" height="64.2969" id="fact" rx="2.5" ry="2.5" style="stroke:#181818;stroke-width:0.5;" width="182" x="33.5" y="10"/><ellipse cx="48.5" cy="26" fill="#B4A7E5" rx="11" ry="11" style="stroke:#181818;stroke-width:1.0;"/><path d="M44.4219,21.7656 L44.4219,19.6094 L51.8125,19.6094 L51.8125,21.7656 L49.3438,21.7656 L49.3438,29.8438 L51.8125,29.8438 L51.8125,32 L44.4219,32 L44.4219,29.8438 L46.8906,29.8438 L46.8906,21.7656 L44.4219,21.7656 Z " fill="#000000"/><text fill="#000000" font-family="sans-serif" font-size="14" font-style="italic" lengthAdjust="spacing" textLength="108" x="62.5" y="30.8467">AbstractFactory</text><rect fill="#FFFFFF" height="15.9688" style="stroke:#181818;stroke-width:1.0;stroke-dasharray:2.0,2.0;" width="40" x="178.5" y="7"/><text fill="#000000" font-family="sans-serif" font-size="12" font-style="italic" lengthAdjust="spacing" textLength="38" x="179.5" y="19.1387">Result</text><line style="stroke:#181818;stroke-width:0.5;" x1="34.5" x2="214.5" y1="42" y2="42"/><line style="stroke:#181818;stroke-width:0.5;" x1="34.5" x2="214.5" y1="50" y2="50"/><ellipse cx="44.5" cy="63.6484" fill="#84BE84" rx="3" ry="3" style="stroke:#038048;stroke-width:1.0;"/><text fill="#000000" font-family="sans-serif" font-size="14" lengthAdjust="spacing" textLength="107" x="53.5" y="66.9951">create(): Result</text></g><!--MD5=[c8a28658396bda98ccc969c84819d59d]
class lbdfact--><g id="elem_lbdfact"><rect codeLine="6" fill="#F1F1F1" height="80.5938" id="lbdfact" rx="2.5" ry="2.5" style="stroke:#181818;stroke-width:0.5;" width="235" x="7" y="134"/><ellipse cx="22" cy="150" fill="#F1F1F1" rx="11" ry="11" style="stroke:#181818;stroke-width:1.0;"/><path d="M21.4844,150.5625 Q19.625,149.8594 18.9688,149.0938 Q18.3281,148.3125 18.3281,147 Q18.3281,145.3125 19.4063,144.3438 Q20.4844,143.375 22.3594,143.375 Q23.2188,143.375 24.0625,143.5781 Q24.9219,143.7656 25.7656,144.1563 L25.7656,146.5469 Q24.9844,145.9844 24.1563,145.7031 Q23.3438,145.4063 22.5469,145.4063 Q21.6719,145.4063 21.1875,145.7656 Q20.7188,146.125 20.7188,146.7813 Q20.7188,147.2969 21.0625,147.6406 Q21.4063,147.9688 22.5,148.375 L23.5625,148.7813 Q25.0469,149.3281 25.75,150.2344 Q26.4688,151.1406 26.4688,152.5156 Q26.4688,154.3906 25.3594,155.3125 Q24.25,156.2344 22,156.2344 Q21.0781,156.2344 20.1563,156.0156 Q19.2344,155.7969 18.375,155.375 L18.375,152.8438 Q19.3438,153.5313 20.2656,153.875 Q21.1875,154.2188 22.0781,154.2188 Q22.9844,154.2188 23.4844,153.8125 Q23.9844,153.3906 23.9844,152.6563 Q23.9844,152.0938 23.6406,151.6875 Q23.3125,151.2656 22.6875,151.0156 L21.4844,150.5625 Z " fill="#000000"/><text fill="#000000" font-family="sans-serif" font-size="14" lengthAdjust="spacing" textLength="161" x="36" y="154.8467">LambdaAbstractFactory</text><rect fill="#FFFFFF" height="15.9688" style="stroke:#181818;stroke-width:1.0;stroke-dasharray:2.0,2.0;" width="40" x="205" y="131"/><text fill="#000000" font-family="sans-serif" font-size="12" font-style="italic" lengthAdjust="spacing" textLength="38" x="206" y="143.1387">Result</text><line style="stroke:#181818;stroke-width:0.5;" x1="8" x2="241" y1="166" y2="166"/><rect fill="none" height="6" style="stroke:#C82930;stroke-width:1.0;" width="6" x="15" y="176.6484"/><text fill="#000000" font-family="sans-serif" font-size="14" lengthAdjust="spacing" textLength="166" x="27" y="182.9951">delegate: Fn() -&gt; Result</text><line style="stroke:#181818;stroke-width:0.5;" x1="8" x2="241" y1="190.2969" y2="190.2969"/><ellipse cx="18" cy="203.9453" fill="#84BE84" rx="3" ry="3" style="stroke:#038048;stroke-width:1.0;"/><text fill="#000000" font-family="sans-serif" font-size="14" lengthAdjust="spacing" textLength="205" x="27" y="207.292">new(delegate: Fn() -&gt; Result)</text></g><!--MD5=[64042413dbf0b5d2d3fd771cb75bc154]
reverse link fact to lbdfact--><g id="link_fact_lbdfact"><path codeLine="11" d="M124.5,95.35 C124.5,108.1 124.5,121.53 124.5,133.59 " fill="none" id="fact-backto-lbdfact" style="stroke:#181818;stroke-width:1.0;stroke-dasharray:7.0,7.0;"/><polygon fill="none" points="117.5,95.77,124.5,75.77,131.5,95.77,117.5,95.77" style="stroke:#181818;stroke-width:1.0;"/></g><!--MD5=[411601925252afa1bc12a3422fd67d1b]
@startuml "abstract_factory"

interface "AbstractFactory" as fact<Result> {
    {method} + create(): Result
}

struct "LambdaAbstractFactory" as lbdfact<Result> {
    {field} - delegate: Fn() -> Result
    {method} + new(delegate: Fn() -> Result)
}

lbdfact .u.|> fact

@enduml

PlantUML version 1.2022.12(Sun Oct 23 18:12:26 GMT 2022)
(GPL source distribution)
Java Runtime: OpenJDK Runtime Environment
JVM: OpenJDK 64-Bit Server VM
Default Encoding: UTF-8
Language: en
Country: US
--></g></svg>