<?xml version="1.0" encoding="UTF-8" standalone="no"?><svg xmlns="http://www.w3.org/2000/svg" xmlns:xlink="http://www.w3.org/1999/xlink" contentStyleType="text/css" height="205px" preserveAspectRatio="none" style="width:210px;height:205px;background:#FFFFFF;" version="1.1" viewBox="0 0 210 205" width="210px" zoomAndPan="magnify"><defs/><g><!--MD5=[e0029d11b201e81ace191f0f28898e23]
class fact--><g id="elem_fact"><rect codeLine="2" fill="#F1F1F1" height="64.2969" id="fact" rx="2.5" ry="2.5" style="stroke:#181818;stroke-width:0.5;" width="133" x="36.5" y="10"/><ellipse cx="55.1" cy="26" fill="#B4A7E5" rx="11" ry="11" style="stroke:#181818;stroke-width:1.0;"/><path d="M51.0219,21.7656 L51.0219,19.6094 L58.4125,19.6094 L58.4125,21.7656 L55.9438,21.7656 L55.9438,29.8438 L58.4125,29.8438 L58.4125,32 L51.0219,32 L51.0219,29.8438 L53.4906,29.8438 L53.4906,21.7656 L51.0219,21.7656 Z " fill="#000000"/><text fill="#000000" font-family="sans-serif" font-size="14" font-style="italic" lengthAdjust="spacing" textLength="51" x="69.9" y="30.8467">Factory</text><rect fill="#FFFFFF" height="15.9688" style="stroke:#181818;stroke-width:1.0;stroke-dasharray:2.0,2.0;" width="40" x="132.5" y="7"/><text fill="#000000" font-family="sans-serif" font-size="12" font-style="italic" lengthAdjust="spacing" textLength="38" x="133.5" y="19.1387">Result</text><line style="stroke:#181818;stroke-width:0.5;" x1="37.5" x2="168.5" y1="42" y2="42"/><line style="stroke:#181818;stroke-width:0.5;" x1="37.5" x2="168.5" y1="50" y2="50"/><ellipse cx="47.5" cy="63.6484" fill="#84BE84" rx="3" ry="3" style="stroke:#038048;stroke-width:1.0;"/><text fill="#000000" font-family="sans-serif" font-size="14" lengthAdjust="spacing" textLength="107" x="56.5" y="66.9951">create(): Result</text></g><!--MD5=[c8a28658396bda98ccc969c84819d59d]
class lbdfact--><g id="elem_lbdfact"><rect codeLine="6" fill="#F1F1F1" height="64.2969" id="lbdfact" rx="2.5" ry="2.5" style="stroke:#181818;stroke-width:0.5;" width="192" x="7" y="134"/><ellipse cx="27.4" cy="150" fill="#B4A7E5" rx="11" ry="11" style="stroke:#181818;stroke-width:1.0;"/><path d="M23.3219,145.7656 L23.3219,143.6094 L30.7125,143.6094 L30.7125,145.7656 L28.2438,145.7656 L28.2438,153.8438 L30.7125,153.8438 L30.7125,156 L23.3219,156 L23.3219,153.8438 L25.7906,153.8438 L25.7906,145.7656 L23.3219,145.7656 Z " fill="#000000"/><text fill="#000000" font-family="sans-serif" font-size="14" font-style="italic" lengthAdjust="spacing" textLength="106" x="42.6" y="154.8467">LambdaFactory</text><rect fill="#FFFFFF" height="15.9688" style="stroke:#181818;stroke-width:1.0;stroke-dasharray:2.0,2.0;" width="40" x="162" y="131"/><text fill="#000000" font-family="sans-serif" font-size="12" font-style="italic" lengthAdjust="spacing" textLength="38" x="163" y="143.1387">Result</text><line style="stroke:#181818;stroke-width:0.5;" x1="8" x2="198" y1="166" y2="166"/><rect fill="none" height="6" style="stroke:#C82930;stroke-width:1.0;" width="6" x="15" y="176.6484"/><text fill="#000000" font-family="sans-serif" font-size="14" lengthAdjust="spacing" textLength="166" x="27" y="182.9951">delegate: Fn() -&gt; Result</text><line style="stroke:#181818;stroke-width:0.5;" x1="8" x2="198" y1="190.2969" y2="190.2969"/></g><!--MD5=[64042413dbf0b5d2d3fd771cb75bc154]
reverse link fact to lbdfact--><g id="link_fact_lbdfact"><path codeLine="10" d="M103,80.55 C103,97.58 103,117.48 103,133.69 " fill="none" id="fact-backto-lbdfact" style="stroke:#181818;stroke-width:1.0;stroke-dasharray:7.0,7.0;"/><polygon fill="#181818" points="103,75.93,99,84.93,103,80.93,107,84.93,103,75.93" style="stroke:#181818;stroke-width:1.0;"/></g><!--MD5=[7ed33818f5acebd75fae46b4e44eb7a9]
@startuml "factory"

interface "Factory" as fact<Result> {
    {method} + create(): Result
}

interface "LambdaFactory" as lbdfact<Result> {
    {field} - delegate: Fn() -> Result
}

lbdfact .u.> fact

@enduml

PlantUML version 1.2022.12(Sun Oct 23 18:12:26 GMT 2022)
(GPL source distribution)
Java Runtime: OpenJDK Runtime Environment
JVM: OpenJDK 64-Bit Server VM
Default Encoding: UTF-8
Language: en
Country: US
--></g></svg>