<?xml version="1.0" encoding="UTF-8" standalone="no"?><svg xmlns="http://www.w3.org/2000/svg" xmlns:xlink="http://www.w3.org/1999/xlink" contentStyleType="text/css" height="170px" preserveAspectRatio="none" style="width:117px;height:170px;background:#FFFFFF;" version="1.1" viewBox="0 0 117 170" width="117px" zoomAndPan="magnify"><defs/><g><!--MD5=[8ab7eb4cd4e39d2a6a19fed9f9b9e14d]
class obs--><g id="elem_obs"><rect codeLine="2" fill="#F1F1F1" height="48" id="obs" rx="2.5" ry="2.5" style="stroke:#181818;stroke-width:0.5;" width="95" x="11" y="7"/><ellipse cx="26" cy="23" fill="#B4A7E5" rx="11" ry="11" style="stroke:#181818;stroke-width:1.0;"/><path d="M21.9219,18.7656 L21.9219,16.6094 L29.3125,16.6094 L29.3125,18.7656 L26.8438,18.7656 L26.8438,26.8438 L29.3125,26.8438 L29.3125,29 L21.9219,29 L21.9219,26.8438 L24.3906,26.8438 L24.3906,18.7656 L21.9219,18.7656 Z " fill="#000000"/><text fill="#000000" font-family="sans-serif" font-size="14" font-style="italic" lengthAdjust="spacing" textLength="63" x="40" y="27.8467">Observer</text><line style="stroke:#181818;stroke-width:0.5;" x1="12" x2="105" y1="39" y2="39"/><line style="stroke:#181818;stroke-width:0.5;" x1="12" x2="105" y1="47" y2="47"/></g><!--MD5=[075d81ac5e6c102f8321644f67374cd3]
class cmd--><g id="elem_cmd"><rect codeLine="3" fill="#F1F1F1" height="48" id="cmd" rx="2.5" ry="2.5" style="stroke:#181818;stroke-width:0.5;" width="103" x="7" y="115"/><ellipse cx="22" cy="131" fill="#B4A7E5" rx="11" ry="11" style="stroke:#181818;stroke-width:1.0;"/><path d="M17.9219,126.7656 L17.9219,124.6094 L25.3125,124.6094 L25.3125,126.7656 L22.8438,126.7656 L22.8438,134.8438 L25.3125,134.8438 L25.3125,137 L17.9219,137 L17.9219,134.8438 L20.3906,134.8438 L20.3906,126.7656 L17.9219,126.7656 Z " fill="#000000"/><text fill="#000000" font-family="sans-serif" font-size="14" font-style="italic" lengthAdjust="spacing" textLength="71" x="36" y="135.8467">Command</text><line style="stroke:#181818;stroke-width:0.5;" x1="8" x2="109" y1="147" y2="147"/><line style="stroke:#181818;stroke-width:0.5;" x1="8" x2="109" y1="155" y2="155"/></g><!--MD5=[5a24e2b26ce368371fb2c9504b948b39]
reverse link obs to cmd--><g id="link_obs_cmd"><path codeLine="5" d="M58.5,76.72 C58.5,89.82 58.5,103.62 58.5,114.79 " fill="none" id="obs-backto-cmd" style="stroke:#181818;stroke-width:1.0;stroke-dasharray:7.0,7.0;"/><polygon fill="none" points="51.5,76.78,58.5,56.78,65.5,76.78,51.5,76.78" style="stroke:#181818;stroke-width:1.0;"/></g><!--MD5=[b932ca71b70601e58ea61d2d5101b7ea]
@startuml "command_observer"

interface "Observer" as obs
interface "Command" as cmd

cmd .u.|> obs

@enduml

PlantUML version 1.2022.12(Sun Oct 23 18:12:26 GMT 2022)
(GPL source distribution)
Java Runtime: OpenJDK Runtime Environment
JVM: OpenJDK 64-Bit Server VM
Default Encoding: UTF-8
Language: en
Country: US
--></g></svg>