<?xml version="1.0" encoding="us-ascii" standalone="no"?><svg xmlns="http://www.w3.org/2000/svg" xmlns:xlink="http://www.w3.org/1999/xlink" contentStyleType="text/css" height="437px" preserveAspectRatio="none" style="width:783px;height:437px;background:#FFFFFF;" version="1.1" viewBox="0 0 783 437" width="783px" zoomAndPan="magnify"><defs/><g><!--class sub--><g id="elem_sub"><rect codeLine="1" fill="#F1F1F1" height="64.2969" id="sub" rx="2.5" ry="2.5" style="stroke:#181818;stroke-width:0.5;" width="119" x="325.54" y="10"/><ellipse cx="340.54" cy="26" fill="#B4A7E5" rx="11" ry="11" style="stroke:#181818;stroke-width:1.0;"/><path d="M336.4619,21.7656 L336.4619,19.6094 L343.8525,19.6094 L343.8525,21.7656 L341.3838,21.7656 L341.3838,29.8438 L343.8525,29.8438 L343.8525,32 L336.4619,32 L336.4619,29.8438 L338.9306,29.8438 L338.9306,21.7656 L336.4619,21.7656 Z " fill="#000000"/><text fill="#000000" font-family="sans-serif" font-size="14" font-style="italic" lengthAdjust="spacing" textLength="73" x="354.54" y="30.8467">Subscriber</text><rect fill="#FFFFFF" height="15.9688" style="stroke:#181818;stroke-width:1.0;stroke-dasharray:2.0,2.0;" width="12" x="435.54" y="7"/><text fill="#000000" font-family="sans-serif" font-size="12" font-style="italic" lengthAdjust="spacing" textLength="10" x="436.54" y="19.1387">M</text><line style="stroke:#181818;stroke-width:0.5;" x1="326.54" x2="443.54" y1="42" y2="42"/><line style="stroke:#181818;stroke-width:0.5;" x1="326.54" x2="443.54" y1="50" y2="50"/><ellipse cx="336.54" cy="63.6484" fill="#84BE84" rx="3" ry="3" style="stroke:#038048;stroke-width:1.0;"/><text fill="#000000" font-family="sans-serif" font-size="14" lengthAdjust="spacing" textLength="72" x="345.54" y="66.9951">receive(M)</text></g><!--class attach--><g id="elem_attach"><rect codeLine="5" fill="#F1F1F1" height="64.2969" id="attach" rx="2.5" ry="2.5" style="stroke:#181818;stroke-width:0.5;" width="213" x="81.54" y="134"/><ellipse cx="116.79" cy="150" fill="#B4A7E5" rx="11" ry="11" style="stroke:#181818;stroke-width:1.0;"/><path d="M112.7119,145.7656 L112.7119,143.6094 L120.1025,143.6094 L120.1025,145.7656 L117.6337,145.7656 L117.6337,153.8438 L120.1025,153.8438 L120.1025,156 L112.7119,156 L112.7119,153.8438 L115.1806,153.8438 L115.1806,145.7656 L112.7119,145.7656 Z " fill="#000000"/><text fill="#000000" font-family="sans-serif" font-size="14" font-style="italic" lengthAdjust="spacing" textLength="136" x="135.29" y="154.8467">AttachablePublisher</text><line style="stroke:#181818;stroke-width:0.5;" x1="82.54" x2="293.54" y1="166" y2="166"/><line style="stroke:#181818;stroke-width:0.5;" x1="82.54" x2="293.54" y1="174" y2="174"/><ellipse cx="92.54" cy="187.6484" fill="#84BE84" rx="3" ry="3" style="stroke:#038048;stroke-width:1.0;"/><text fill="#000000" font-family="sans-serif" font-size="14" lengthAdjust="spacing" textLength="187" x="101.54" y="190.9951">attach(listener: Subscriber)</text></g><!--class detach--><g id="elem_detach"><rect codeLine="10" fill="#F1F1F1" height="64.2969" id="detach" rx="2.5" ry="2.5" style="stroke:#181818;stroke-width:0.5;" width="218" x="473.04" y="134"/><ellipse cx="508.29" cy="150" fill="#B4A7E5" rx="11" ry="11" style="stroke:#181818;stroke-width:1.0;"/><path d="M504.2119,145.7656 L504.2119,143.6094 L511.6025,143.6094 L511.6025,145.7656 L509.1338,145.7656 L509.1338,153.8438 L511.6025,153.8438 L511.6025,156 L504.2119,156 L504.2119,153.8438 L506.6806,153.8438 L506.6806,145.7656 L504.2119,145.7656 Z " fill="#000000"/><text fill="#000000" font-family="sans-serif" font-size="14" font-style="italic" lengthAdjust="spacing" textLength="141" x="526.79" y="154.8467">DetachablePublisher</text><line style="stroke:#181818;stroke-width:0.5;" x1="474.04" x2="690.04" y1="166" y2="166"/><line style="stroke:#181818;stroke-width:0.5;" x1="474.04" x2="690.04" y1="174" y2="174"/><ellipse cx="484.04" cy="187.6484" fill="#84BE84" rx="3" ry="3" style="stroke:#038048;stroke-width:1.0;"/><text fill="#000000" font-family="sans-serif" font-size="14" lengthAdjust="spacing" textLength="192" x="493.04" y="190.9951">detach(listener: Subscriber)</text></g><!--class pub--><g id="elem_pub"><rect codeLine="16" fill="#F1F1F1" height="64.2969" id="pub" rx="2.5" ry="2.5" style="stroke:#181818;stroke-width:0.5;" width="108" x="330.04" y="134"/><ellipse cx="345.04" cy="150" fill="#B4A7E5" rx="11" ry="11" style="stroke:#181818;stroke-width:1.0;"/><path d="M340.9619,145.7656 L340.9619,143.6094 L348.3525,143.6094 L348.3525,145.7656 L345.8838,145.7656 L345.8838,153.8438 L348.3525,153.8438 L348.3525,156 L340.9619,156 L340.9619,153.8438 L343.4306,153.8438 L343.4306,145.7656 L340.9619,145.7656 Z " fill="#000000"/><text fill="#000000" font-family="sans-serif" font-size="14" font-style="italic" lengthAdjust="spacing" textLength="62" x="359.04" y="154.8467">Publisher</text><rect fill="#FFFFFF" height="15.9688" style="stroke:#181818;stroke-width:1.0;stroke-dasharray:2.0,2.0;" width="12" x="429.04" y="131"/><text fill="#000000" font-family="sans-serif" font-size="12" font-style="italic" lengthAdjust="spacing" textLength="10" x="430.04" y="143.1387">M</text><line style="stroke:#181818;stroke-width:0.5;" x1="331.04" x2="437.04" y1="166" y2="166"/><line style="stroke:#181818;stroke-width:0.5;" x1="331.04" x2="437.04" y1="174" y2="174"/><ellipse cx="341.04" cy="187.6484" fill="#84BE84" rx="3" ry="3" style="stroke:#038048;stroke-width:1.0;"/><text fill="#000000" font-family="sans-serif" font-size="14" lengthAdjust="spacing" textLength="72" x="350.04" y="190.9951">publish(M)</text></g><!--class mutpub--><g id="elem_mutpub"><rect codeLine="20" fill="#F1F1F1" height="48" id="mutpub" rx="2.5" ry="2.5" style="stroke:#181818;stroke-width:0.5;" width="149" x="309.54" y="258"/><ellipse cx="324.54" cy="274" fill="#B4A7E5" rx="11" ry="11" style="stroke:#181818;stroke-width:1.0;"/><path d="M320.4619,269.7656 L320.4619,267.6094 L327.8525,267.6094 L327.8525,269.7656 L325.3838,269.7656 L325.3838,277.8438 L327.8525,277.8438 L327.8525,280 L320.4619,280 L320.4619,277.8438 L322.9306,277.8438 L322.9306,269.7656 L320.4619,269.7656 Z " fill="#000000"/><text fill="#000000" font-family="sans-serif" font-size="14" font-style="italic" lengthAdjust="spacing" textLength="117" x="338.54" y="278.8467">MutablePublisher</text><line style="stroke:#181818;stroke-width:0.5;" x1="310.54" x2="457.54" y1="290" y2="290"/><line style="stroke:#181818;stroke-width:0.5;" x1="310.54" x2="457.54" y1="298" y2="298"/></g><!--class vecpub--><g id="elem_vecpub"><rect codeLine="26" fill="#F1F1F1" height="64.2969" id="vecpub" rx="2.5" ry="2.5" style="stroke:#181818;stroke-width:0.5;" width="218" x="97.04" y="366"/><ellipse cx="179.29" cy="382" fill="#F1F1F1" rx="11" ry="11" style="stroke:#181818;stroke-width:1.0;"/><path d="M178.7744,382.5625 Q176.915,381.8594 176.2588,381.0938 Q175.6181,380.3125 175.6181,379 Q175.6181,377.3125 176.6963,376.3438 Q177.7744,375.375 179.6494,375.375 Q180.5088,375.375 181.3525,375.5781 Q182.2119,375.7656 183.0556,376.1563 L183.0556,378.5469 Q182.2744,377.9844 181.4463,377.7031 Q180.6338,377.4063 179.8369,377.4063 Q178.9619,377.4063 178.4775,377.7656 Q178.0088,378.125 178.0088,378.7813 Q178.0088,379.2969 178.3525,379.6406 Q178.6963,379.9688 179.79,380.375 L180.8525,380.7813 Q182.3369,381.3281 183.04,382.2344 Q183.7588,383.1406 183.7588,384.5156 Q183.7588,386.3906 182.6494,387.3125 Q181.54,388.2344 179.29,388.2344 Q178.3681,388.2344 177.4463,388.0156 Q176.5244,387.7969 175.665,387.375 L175.665,384.8438 Q176.6338,385.5313 177.5556,385.875 Q178.4775,386.2188 179.3681,386.2188 Q180.2744,386.2188 180.7744,385.8125 Q181.2744,385.3906 181.2744,384.6563 Q181.2744,384.0938 180.9306,383.6875 Q180.6025,383.2656 179.9775,383.0156 L178.7744,382.5625 Z " fill="#000000"/><text fill="#000000" font-family="sans-serif" font-size="14" lengthAdjust="spacing" textLength="45" x="199.79" y="386.8467">Vector</text><line style="stroke:#181818;stroke-width:0.5;" x1="98.04" x2="314.04" y1="398" y2="398"/><rect fill="none" height="6" style="stroke:#C82930;stroke-width:1.0;" width="6" x="105.04" y="408.6484"/><text fill="#000000" font-family="sans-serif" font-size="14" lengthAdjust="spacing" textLength="192" x="117.04" y="414.9951">listeners: Vec&lt;Subscriber&gt;</text><line style="stroke:#181818;stroke-width:0.5;" x1="98.04" x2="314.04" y1="422.2969" y2="422.2969"/></g><!--class hshpub--><g id="elem_hshpub"><rect codeLine="32" fill="#F1F1F1" height="64.2969" id="hshpub" rx="2.5" ry="2.5" style="stroke:#181818;stroke-width:0.5;" width="305" x="471.54" y="366"/><ellipse cx="602.29" cy="382" fill="#F1F1F1" rx="11" ry="11" style="stroke:#181818;stroke-width:1.0;"/><path d="M601.7744,382.5625 Q599.915,381.8594 599.2588,381.0938 Q598.6181,380.3125 598.6181,379 Q598.6181,377.3125 599.6963,376.3438 Q600.7744,375.375 602.6494,375.375 Q603.5088,375.375 604.3525,375.5781 Q605.2119,375.7656 606.0556,376.1563 L606.0556,378.5469 Q605.2744,377.9844 604.4463,377.7031 Q603.6338,377.4063 602.8369,377.4063 Q601.9619,377.4063 601.4775,377.7656 Q601.0088,378.125 601.0088,378.7813 Q601.0088,379.2969 601.3525,379.6406 Q601.6963,379.9688 602.79,380.375 L603.8525,380.7813 Q605.3369,381.3281 606.04,382.2344 Q606.7588,383.1406 606.7588,384.5156 Q606.7588,386.3906 605.6494,387.3125 Q604.54,388.2344 602.29,388.2344 Q601.3681,388.2344 600.4463,388.0156 Q599.5244,387.7969 598.665,387.375 L598.665,384.8438 Q599.6338,385.5313 600.5556,385.875 Q601.4775,386.2188 602.3681,386.2188 Q603.2744,386.2188 603.7744,385.8125 Q604.2744,385.3906 604.2744,384.6563 Q604.2744,384.0938 603.9306,383.6875 Q603.6025,383.2656 602.9775,383.0156 L601.7744,382.5625 Z " fill="#000000"/><text fill="#000000" font-family="sans-serif" font-size="14" lengthAdjust="spacing" textLength="35" x="622.79" y="386.8467">Hash</text><line style="stroke:#181818;stroke-width:0.5;" x1="472.54" x2="775.54" y1="398" y2="398"/><rect fill="none" height="6" style="stroke:#C82930;stroke-width:1.0;" width="6" x="479.54" y="408.6484"/><text fill="#000000" font-family="sans-serif" font-size="14" lengthAdjust="spacing" textLength="279" x="491.54" y="414.9951">listeners: HashSet&lt;Subscriber + Hash&gt;</text><line style="stroke:#181818;stroke-width:0.5;" x1="472.54" x2="775.54" y1="422.2969" y2="422.2969"/></g><!--reverse link sub to attach--><g id="link_sub_attach"><path codeLine="8" d="M329.06,77.67 C300.6,95.3 266.26,116.56 238.6,133.69 " fill="none" id="sub-backto-attach" style="stroke:#181818;stroke-width:1.0;"/><polygon fill="#181818" points="333.02,75.21,323.2607,76.5348,328.7656,77.8369,327.4636,83.3418,333.02,75.21" style="stroke:#181818;stroke-width:1.0;"/></g><!--reverse link sub to detach--><g id="link_sub_detach"><path codeLine="13" d="M441.02,77.67 C469.49,95.3 503.82,116.56 531.48,133.69 " fill="none" id="sub-backto-detach" style="stroke:#181818;stroke-width:1.0;"/><polygon fill="#181818" points="437.06,75.21,442.6164,83.3418,441.3144,77.8369,446.8193,76.5348,437.06,75.21" style="stroke:#181818;stroke-width:1.0;"/></g><!--reverse link attach to mutpub--><g id="link_attach_mutpub"><path codeLine="22" d="M260.53,209.16 C288.68,225.53 319.84,243.66 343.82,257.61 " fill="none" id="attach-backto-mutpub" style="stroke:#181818;stroke-width:1.0;"/><polygon fill="none" points="257.2,215.32,243.43,199.21,264.23,203.22,257.2,215.32" style="stroke:#181818;stroke-width:1.0;"/></g><!--reverse link detach to mutpub--><g id="link_detach_mutpub"><path codeLine="23" d="M508.81,209.16 C480.38,225.53 448.9,243.66 424.67,257.61 " fill="none" id="detach-backto-mutpub" style="stroke:#181818;stroke-width:1.0;"/><polygon fill="none" points="505.28,203.12,526.1,199.21,512.26,215.25,505.28,203.12" style="stroke:#181818;stroke-width:1.0;"/></g><!--reverse link pub to mutpub--><g id="link_pub_mutpub"><path codeLine="24" d="M384.04,219.92 C384.04,233.14 384.04,246.66 384.04,257.61 " fill="none" id="pub-backto-mutpub" style="stroke:#181818;stroke-width:1.0;"/><polygon fill="none" points="377.04,219.97,384.04,199.97,391.04,219.97,377.04,219.97" style="stroke:#181818;stroke-width:1.0;"/></g><!--reverse link mutpub to vecpub--><g id="link_mutpub_vecpub"><path codeLine="29" d="M329.51,317.93 C305.72,333.16 278.04,350.89 254.93,365.69 " fill="none" id="mutpub-backto-vecpub" style="stroke:#181818;stroke-width:1.0;stroke-dasharray:7.0,7.0;"/><polygon fill="none" points="325.7,312.05,346.32,307.16,333.25,323.84,325.7,312.05" style="stroke:#181818;stroke-width:1.0;"/></g><!--reverse link sub to vecpub--><g id="link_sub_vecpub"><path codeLine="30" d="M319.03,52.28 C234.35,65.7 94.71,93.43 64.04,134 C6,210.79 106.63,314.38 166.46,365.62 " fill="none" id="sub-backto-vecpub" style="stroke:#181818;stroke-width:1.0;"/><polygon fill="#181818" points="323.78,51.54,314.2708,48.9757,318.8398,52.311,315.5045,56.88,323.78,51.54" style="stroke:#181818;stroke-width:1.0;"/></g><!--reverse link mutpub to hshpub--><g id="link_mutpub_hshpub"><path codeLine="35" d="M452.6,315.56 C485.64,331.26 525.09,350 557.82,365.55 " fill="none" id="mutpub-backto-hshpub" style="stroke:#181818;stroke-width:1.0;stroke-dasharray:7.0,7.0;"/><polygon fill="none" points="449.91,322.04,434.85,307.13,455.91,309.39,449.91,322.04" style="stroke:#181818;stroke-width:1.0;"/></g><!--reverse link sub to hshpub--><g id="link_sub_hshpub"><path codeLine="36" d="M451.31,52.13 C536.73,65.42 678.01,93.06 709.04,134 C763.24,205.52 692.9,312.88 651.05,365.57 " fill="none" id="sub-backto-hshpub" style="stroke:#181818;stroke-width:1.0;"/><polygon fill="#181818" points="446.5,51.39,454.7732,56.7336,451.4399,52.1632,456.0103,48.8299,446.5,51.39" style="stroke:#181818;stroke-width:1.0;"/></g><!--SRC=[XP11Yy8m48Nl-HL3JovB_G4YXOKzxAKW27jFuaW2LKioyUBslpjfKckeiZsLnxptlJnx9dH7gH6gVL1UEwlGLI0z-A2sRGCt0VpTJaZcSXZW4nngj5TSjHzY4CBE_YyYgOrK7Uw2wgmtEKYE-Z8ewIk-93oZsy1S84PdMntg9dOfKD_u6dN0rwYalqLbsunwPfM4_iqgVRfQhj86MlOy1M83fmmY_pBxhycJb5egLsfzBEd91KrG_QAcIygzeawvOxkZnOxBrJ2zss-0ZxVpunika3thiERWH9cqUP29zIEz6Kd6ctz8yNIFz4JZcQ8OeTbUGBFsWDu1]--></g></svg>