<?xml version="1.0" encoding="UTF-8" standalone="no"?><svg xmlns="http://www.w3.org/2000/svg" xmlns:xlink="http://www.w3.org/1999/xlink" contentStyleType="text/css" height="206px" preserveAspectRatio="none" style="width:252px;height:206px;background:#FFFFFF;" version="1.1" viewBox="0 0 252 206" width="252px" zoomAndPan="magnify"><defs/><g><!--MD5=[e194ce395ae942a3f4c5e2bf638726f6]
class pool--><g id="elem_pool"><rect codeLine="2" fill="#F1F1F1" height="80.5938" id="pool" rx="2.5" ry="2.5" style="stroke:#181818;stroke-width:0.5;" width="234" x="7" y="10"/><ellipse cx="54.25" cy="26" fill="#B4A7E5" rx="11" ry="11" style="stroke:#181818;stroke-width:1.0;"/><path d="M50.1719,21.7656 L50.1719,19.6094 L57.5625,19.6094 L57.5625,21.7656 L55.0938,21.7656 L55.0938,29.8438 L57.5625,29.8438 L57.5625,32 L50.1719,32 L50.1719,29.8438 L52.6406,29.8438 L52.6406,21.7656 L50.1719,21.7656 Z " fill="#000000"/><text fill="#000000" font-family="sans-serif" font-size="14" font-style="italic" lengthAdjust="spacing" textLength="66" x="74.75" y="30.8467">HeapPool</text><rect fill="#FFFFFF" height="15.9688" style="stroke:#181818;stroke-width:1.0;stroke-dasharray:2.0,2.0;" width="63" x="181" y="7"/><text fill="#000000" font-family="sans-serif" font-size="12" font-style="italic" lengthAdjust="spacing" textLength="61" x="182" y="19.1387">Container</text><line style="stroke:#181818;stroke-width:0.5;" x1="8" x2="240" y1="42" y2="42"/><line style="stroke:#181818;stroke-width:0.5;" x1="8" x2="240" y1="50" y2="50"/><ellipse cx="18" cy="63.6484" fill="#84BE84" rx="3" ry="3" style="stroke:#038048;stroke-width:1.0;"/><text fill="#000000" font-family="sans-serif" font-size="14" lengthAdjust="spacing" textLength="208" x="27" y="66.9951">check_out(): Box&lt;Container&gt;</text><ellipse cx="18" cy="79.9453" fill="#84BE84" rx="3" ry="3" style="stroke:#038048;stroke-width:1.0;"/><text fill="#000000" font-family="sans-serif" font-size="14" lengthAdjust="spacing" textLength="188" x="27" y="83.292">check_in(Box&lt;Container&gt;)</text></g><!--MD5=[ecf849db7b8006e8c5682e38c18eda9e]
class boxpool--><g id="elem_boxpool"><rect codeLine="7" fill="#F1F1F1" height="48" id="boxpool" rx="2.5" ry="2.5" style="stroke:#181818;stroke-width:0.5;" width="161" x="43.5" y="151"/><ellipse cx="58.5" cy="167" fill="#F1F1F1" rx="11" ry="11" style="stroke:#181818;stroke-width:1.0;"/><path d="M57.9844,167.5625 Q56.125,166.8594 55.4688,166.0938 Q54.8281,165.3125 54.8281,164 Q54.8281,162.3125 55.9063,161.3438 Q56.9844,160.375 58.8594,160.375 Q59.7188,160.375 60.5625,160.5781 Q61.4219,160.7656 62.2656,161.1563 L62.2656,163.5469 Q61.4844,162.9844 60.6563,162.7031 Q59.8438,162.4063 59.0469,162.4063 Q58.1719,162.4063 57.6875,162.7656 Q57.2188,163.125 57.2188,163.7813 Q57.2188,164.2969 57.5625,164.6406 Q57.9063,164.9688 59,165.375 L60.0625,165.7813 Q61.5469,166.3281 62.25,167.2344 Q62.9688,168.1406 62.9688,169.5156 Q62.9688,171.3906 61.8594,172.3125 Q60.75,173.2344 58.5,173.2344 Q57.5781,173.2344 56.6563,173.0156 Q55.7344,172.7969 54.875,172.375 L54.875,169.8438 Q55.8438,170.5313 56.7656,170.875 Q57.6875,171.2188 58.5781,171.2188 Q59.4844,171.2188 59.9844,170.8125 Q60.4844,170.3906 60.4844,169.6563 Q60.4844,169.0938 60.1406,168.6875 Q59.8125,168.2656 59.1875,168.0156 L57.9844,167.5625 Z " fill="#000000"/><text fill="#000000" font-family="sans-serif" font-size="14" lengthAdjust="spacing" textLength="56" x="72.5" y="171.8467">BoxPool</text><rect fill="#FFFFFF" height="15.9688" style="stroke:#181818;stroke-width:1.0;stroke-dasharray:2.0,2.0;" width="71" x="136.5" y="148"/><text fill="#000000" font-family="sans-serif" font-size="12" font-style="italic" lengthAdjust="spacing" textLength="69" x="137.5" y="160.1387">Conatainer</text><line style="stroke:#181818;stroke-width:0.5;" x1="44.5" x2="203.5" y1="183" y2="183"/><line style="stroke:#181818;stroke-width:0.5;" x1="44.5" x2="203.5" y1="191" y2="191"/></g><!--MD5=[71d5d8afe5fee96796ae7e443e18c83b]
reverse link pool to boxpool--><g id="link_pool_boxpool"><path codeLine="10" d="M124,97.37 C124,115.6 124,135.77 124,150.84 " fill="none" id="pool-backto-boxpool" style="stroke:#181818;stroke-width:1.0;stroke-dasharray:7.0,7.0;"/><polygon fill="#181818" points="124,92.79,120,101.79,124,97.79,128,101.79,124,92.79" style="stroke:#181818;stroke-width:1.0;"/></g><!--MD5=[88145d526cf133b0a98f233ca6fa2446]
@startuml "heap_pool"

interface "HeapPool" as pool<Container> {
    {method} +check_out(): Box<Container>
    {method} +check_in(Box<Container>)
}

struct "BoxPool" as boxpool<Conatainer> {
}

boxpool .u.> pool

@enduml

PlantUML version 1.2022.12(Sun Oct 23 18:12:26 GMT 2022)
(GPL source distribution)
Java Runtime: OpenJDK Runtime Environment
JVM: OpenJDK 64-Bit Server VM
Default Encoding: UTF-8
Language: en
Country: US
--></g></svg>