<?xml version="1.0" encoding="us-ascii" standalone="no"?><svg xmlns="http://www.w3.org/2000/svg" xmlns:xlink="http://www.w3.org/1999/xlink" contentStyleType="text/css" height="434px" preserveAspectRatio="none" style="width:988px;height:434px;background:#FFFFFF;" version="1.1" viewBox="0 0 988 434" width="988px" zoomAndPan="magnify"><defs/><g><!--class sub--><g id="elem_sub"><rect codeLine="1" fill="#F1F1F1" height="64.2969" id="sub" rx="2.5" ry="2.5" style="stroke:#181818;stroke-width:0.5;" width="105" x="876" y="7"/><ellipse cx="891" cy="23" fill="#B4A7E5" rx="11" ry="11" style="stroke:#181818;stroke-width:1.0;"/><path d="M886.9219,18.7656 L886.9219,16.6094 L894.3125,16.6094 L894.3125,18.7656 L891.8438,18.7656 L891.8438,26.8438 L894.3125,26.8438 L894.3125,29 L886.9219,29 L886.9219,26.8438 L889.3906,26.8438 L889.3906,18.7656 L886.9219,18.7656 Z " fill="#000000"/><text fill="#000000" font-family="sans-serif" font-size="14" font-style="italic" lengthAdjust="spacing" textLength="73" x="905" y="27.8467">Subscriber</text><line style="stroke:#181818;stroke-width:0.5;" x1="877" x2="980" y1="39" y2="39"/><line style="stroke:#181818;stroke-width:0.5;" x1="877" x2="980" y1="47" y2="47"/><ellipse cx="887" cy="60.6484" fill="#84BE84" rx="3" ry="3" style="stroke:#038048;stroke-width:1.0;"/><text fill="#000000" font-family="sans-serif" font-size="14" lengthAdjust="spacing" textLength="47" x="896" y="63.9951">notify()</text></g><!--class attach--><g id="elem_attach"><rect codeLine="5" fill="#F1F1F1" height="64.2969" id="attach" rx="2.5" ry="2.5" style="stroke:#181818;stroke-width:0.5;" width="213" x="7" y="239"/><ellipse cx="42.25" cy="255" fill="#B4A7E5" rx="11" ry="11" style="stroke:#181818;stroke-width:1.0;"/><path d="M38.1719,250.7656 L38.1719,248.6094 L45.5625,248.6094 L45.5625,250.7656 L43.0938,250.7656 L43.0938,258.8438 L45.5625,258.8438 L45.5625,261 L38.1719,261 L38.1719,258.8438 L40.6406,258.8438 L40.6406,250.7656 L38.1719,250.7656 Z " fill="#000000"/><text fill="#000000" font-family="sans-serif" font-size="14" font-style="italic" lengthAdjust="spacing" textLength="136" x="60.75" y="259.8467">AttachablePublisher</text><line style="stroke:#181818;stroke-width:0.5;" x1="8" x2="219" y1="271" y2="271"/><line style="stroke:#181818;stroke-width:0.5;" x1="8" x2="219" y1="279" y2="279"/><ellipse cx="18" cy="292.6484" fill="#84BE84" rx="3" ry="3" style="stroke:#038048;stroke-width:1.0;"/><text fill="#000000" font-family="sans-serif" font-size="14" lengthAdjust="spacing" textLength="187" x="27" y="295.9951">attach(listener: Subscriber)</text></g><!--class detach--><g id="elem_detach"><rect codeLine="9" fill="#F1F1F1" height="64.2969" id="detach" rx="2.5" ry="2.5" style="stroke:#181818;stroke-width:0.5;" width="218" x="255.5" y="239"/><ellipse cx="290.75" cy="255" fill="#B4A7E5" rx="11" ry="11" style="stroke:#181818;stroke-width:1.0;"/><path d="M286.6719,250.7656 L286.6719,248.6094 L294.0625,248.6094 L294.0625,250.7656 L291.5938,250.7656 L291.5938,258.8438 L294.0625,258.8438 L294.0625,261 L286.6719,261 L286.6719,258.8438 L289.1406,258.8438 L289.1406,250.7656 L286.6719,250.7656 Z " fill="#000000"/><text fill="#000000" font-family="sans-serif" font-size="14" font-style="italic" lengthAdjust="spacing" textLength="141" x="309.25" y="259.8467">DetachablePublisher</text><line style="stroke:#181818;stroke-width:0.5;" x1="256.5" x2="472.5" y1="271" y2="271"/><line style="stroke:#181818;stroke-width:0.5;" x1="256.5" x2="472.5" y1="279" y2="279"/><ellipse cx="266.5" cy="292.6484" fill="#84BE84" rx="3" ry="3" style="stroke:#038048;stroke-width:1.0;"/><text fill="#000000" font-family="sans-serif" font-size="14" lengthAdjust="spacing" textLength="192" x="275.5" y="295.9951">detach(listener: Subscriber)</text></g><!--class pub--><g id="elem_pub"><rect codeLine="13" fill="#F1F1F1" height="64.2969" id="pub" rx="2.5" ry="2.5" style="stroke:#181818;stroke-width:0.5;" width="94" x="641.5" y="363"/><ellipse cx="656.5" cy="379" fill="#B4A7E5" rx="11" ry="11" style="stroke:#181818;stroke-width:1.0;"/><path d="M652.4219,374.7656 L652.4219,372.6094 L659.8125,372.6094 L659.8125,374.7656 L657.3438,374.7656 L657.3438,382.8438 L659.8125,382.8438 L659.8125,385 L652.4219,385 L652.4219,382.8438 L654.8906,382.8438 L654.8906,374.7656 L652.4219,374.7656 Z " fill="#000000"/><text fill="#000000" font-family="sans-serif" font-size="14" font-style="italic" lengthAdjust="spacing" textLength="62" x="670.5" y="383.8467">Publisher</text><line style="stroke:#181818;stroke-width:0.5;" x1="642.5" x2="734.5" y1="395" y2="395"/><line style="stroke:#181818;stroke-width:0.5;" x1="642.5" x2="734.5" y1="403" y2="403"/><ellipse cx="652.5" cy="416.6484" fill="#84BE84" rx="3" ry="3" style="stroke:#038048;stroke-width:1.0;"/><text fill="#000000" font-family="sans-serif" font-size="14" lengthAdjust="spacing" textLength="47" x="661.5" y="419.9951">notify()</text></g><!--class mutpub--><g id="elem_mutpub"><rect codeLine="17" fill="#F1F1F1" height="48" id="mutpub" rx="2.5" ry="2.5" style="stroke:#181818;stroke-width:0.5;" width="114" x="469.5" y="131"/><ellipse cx="484.5" cy="147" fill="#B4A7E5" rx="11" ry="11" style="stroke:#181818;stroke-width:1.0;"/><path d="M480.4219,142.7656 L480.4219,140.6094 L487.8125,140.6094 L487.8125,142.7656 L485.3438,142.7656 L485.3438,150.8438 L487.8125,150.8438 L487.8125,153 L480.4219,153 L480.4219,150.8438 L482.8906,150.8438 L482.8906,142.7656 L480.4219,142.7656 Z " fill="#000000"/><text fill="#000000" font-family="sans-serif" font-size="14" font-style="italic" lengthAdjust="spacing" textLength="82" x="498.5" y="151.8467">MutableSub</text><line style="stroke:#181818;stroke-width:0.5;" x1="470.5" x2="582.5" y1="163" y2="163"/><line style="stroke:#181818;stroke-width:0.5;" x1="470.5" x2="582.5" y1="171" y2="171"/></g><!--class vecpub--><g id="elem_vecpub"><rect codeLine="23" fill="#F1F1F1" height="64.2969" id="vecpub" rx="2.5" ry="2.5" style="stroke:#181818;stroke-width:0.5;" width="218" x="579.5" y="239"/><ellipse cx="629.75" cy="255" fill="#F1F1F1" rx="11" ry="11" style="stroke:#181818;stroke-width:1.0;"/><path d="M629.2344,255.5625 Q627.375,254.8594 626.7188,254.0938 Q626.0781,253.3125 626.0781,252 Q626.0781,250.3125 627.1563,249.3438 Q628.2344,248.375 630.1094,248.375 Q630.9688,248.375 631.8125,248.5781 Q632.6719,248.7656 633.5156,249.1563 L633.5156,251.5469 Q632.7344,250.9844 631.9063,250.7031 Q631.0938,250.4063 630.2969,250.4063 Q629.4219,250.4063 628.9375,250.7656 Q628.4688,251.125 628.4688,251.7813 Q628.4688,252.2969 628.8125,252.6406 Q629.1563,252.9688 630.25,253.375 L631.3125,253.7813 Q632.7969,254.3281 633.5,255.2344 Q634.2188,256.1406 634.2188,257.5156 Q634.2188,259.3906 633.1094,260.3125 Q632,261.2344 629.75,261.2344 Q628.8281,261.2344 627.9063,261.0156 Q626.9844,260.7969 626.125,260.375 L626.125,257.8438 Q627.0938,258.5313 628.0156,258.875 Q628.9375,259.2188 629.8281,259.2188 Q630.7344,259.2188 631.2344,258.8125 Q631.7344,258.3906 631.7344,257.6563 Q631.7344,257.0938 631.3906,256.6875 Q631.0625,256.2656 630.4375,256.0156 L629.2344,255.5625 Z " fill="#000000"/><text fill="#000000" font-family="sans-serif" font-size="14" lengthAdjust="spacing" textLength="109" x="650.25" y="259.8467">VectorPublisher</text><line style="stroke:#181818;stroke-width:0.5;" x1="580.5" x2="796.5" y1="271" y2="271"/><rect fill="none" height="6" style="stroke:#C82930;stroke-width:1.0;" width="6" x="587.5" y="281.6484"/><text fill="#000000" font-family="sans-serif" font-size="14" lengthAdjust="spacing" textLength="192" x="599.5" y="287.9951">listeners: Vec&lt;Subscriber&gt;</text><line style="stroke:#181818;stroke-width:0.5;" x1="580.5" x2="796.5" y1="295.2969" y2="295.2969"/></g><!--class hshpub--><g id="elem_hshpub"><rect codeLine="29" fill="#F1F1F1" height="64.2969" id="hshpub" rx="2.5" ry="2.5" style="stroke:#181818;stroke-width:0.5;" width="305" x="536" y="7"/><ellipse cx="634.75" cy="23" fill="#F1F1F1" rx="11" ry="11" style="stroke:#181818;stroke-width:1.0;"/><path d="M634.2344,23.5625 Q632.375,22.8594 631.7188,22.0938 Q631.0781,21.3125 631.0781,20 Q631.0781,18.3125 632.1563,17.3438 Q633.2344,16.375 635.1094,16.375 Q635.9688,16.375 636.8125,16.5781 Q637.6719,16.7656 638.5156,17.1563 L638.5156,19.5469 Q637.7344,18.9844 636.9063,18.7031 Q636.0938,18.4063 635.2969,18.4063 Q634.4219,18.4063 633.9375,18.7656 Q633.4688,19.125 633.4688,19.7813 Q633.4688,20.2969 633.8125,20.6406 Q634.1563,20.9688 635.25,21.375 L636.3125,21.7813 Q637.7969,22.3281 638.5,23.2344 Q639.2188,24.1406 639.2188,25.5156 Q639.2188,27.3906 638.1094,28.3125 Q637,29.2344 634.75,29.2344 Q633.8281,29.2344 632.9063,29.0156 Q631.9844,28.7969 631.125,28.375 L631.125,25.8438 Q632.0938,26.5313 633.0156,26.875 Q633.9375,27.2188 634.8281,27.2188 Q635.7344,27.2188 636.2344,26.8125 Q636.7344,26.3906 636.7344,25.6563 Q636.7344,25.0938 636.3906,24.6875 Q636.0625,24.2656 635.4375,24.0156 L634.2344,23.5625 Z " fill="#000000"/><text fill="#000000" font-family="sans-serif" font-size="14" lengthAdjust="spacing" textLength="99" x="655.25" y="27.8467">HashPublisher</text><line style="stroke:#181818;stroke-width:0.5;" x1="537" x2="840" y1="39" y2="39"/><rect fill="none" height="6" style="stroke:#C82930;stroke-width:1.0;" width="6" x="544" y="49.6484"/><text fill="#000000" font-family="sans-serif" font-size="14" lengthAdjust="spacing" textLength="279" x="556" y="55.9951">listeners: HashSet&lt;Subscriber + Hash&gt;</text><line style="stroke:#181818;stroke-width:0.5;" x1="537" x2="840" y1="63.2969" y2="63.2969"/></g><!--link mutpub to attach--><g id="link_mutpub_attach"><path codeLine="19" d="M469.07,171.85 C410.3,188.08 317.02,213.82 240.75,234.88 " fill="none" id="mutpub-to-attach" style="stroke:#181818;stroke-width:1.0;"/><polygon fill="none" points="242.84,241.56,221.69,240.14,239.11,228.07,242.84,241.56" style="stroke:#181818;stroke-width:1.0;"/></g><!--link mutpub to detach--><g id="link_mutpub_detach"><path codeLine="20" d="M493.33,179.34 C474.02,192.93 449.07,210.49 426.27,226.53 " fill="none" id="mutpub-to-detach" style="stroke:#181818;stroke-width:1.0;"/><polygon fill="none" points="430.62,232.03,410.24,237.82,422.56,220.58,430.62,232.03" style="stroke:#181818;stroke-width:1.0;"/></g><!--link mutpub to pub--><g id="link_mutpub_pub"><path codeLine="21" d="M527.11,179.39 C528.95,210.19 535.9,264.89 561.5,303 C577,326.07 600.43,345.25 622.97,359.96 " fill="none" id="mutpub-to-pub" style="stroke:#181818;stroke-width:1.0;"/><polygon fill="none" points="626.37,353.84,639.8,370.23,619.08,365.79,626.37,353.84" style="stroke:#181818;stroke-width:1.0;"/></g><!--reverse link mutpub to vecpub--><g id="link_mutpub_vecpub"><path codeLine="26" d="M577.1,191.61 C598.53,206.69 623.28,224.11 644,238.69 " fill="none" id="mutpub-backto-vecpub" style="stroke:#181818;stroke-width:1.0;stroke-dasharray:7.0,7.0;"/><polygon fill="none" points="573.24,197.45,560.91,180.22,581.3,186,573.24,197.45" style="stroke:#181818;stroke-width:1.0;"/></g><!--link vecpub to pub--><g id="link_vecpub_pub"><path codeLine="27" d="M688.5,303.42 C688.5,319.64 688.5,339.55 688.5,356.56 " fill="none" id="vecpub-to-pub" style="stroke:#181818;stroke-width:1.0;"/><polygon fill="#181818" points="688.5,361.17,692.5,352.17,688.5,356.17,684.5,352.17,688.5,361.17" style="stroke:#181818;stroke-width:1.0;"/></g><!--link hshpub to mutpub--><g id="link_hshpub_mutpub"><path codeLine="32" d="M643.8,71.45 C623.13,86 598.47,103.35 577.12,118.38 " fill="none" id="hshpub-to-mutpub" style="stroke:#181818;stroke-width:1.0;stroke-dasharray:7.0,7.0;"/><polygon fill="none" points="581.37,123.95,560.98,129.73,573.31,112.5,581.37,123.95" style="stroke:#181818;stroke-width:1.0;"/></g><!--link hshpub to pub--><g id="link_hshpub_pub"><path codeLine="33" d="M716.64,71.28 C747.83,108.24 796.26,173.1 815.5,239 C823.47,266.3 828.5,277.7 815.5,303 C799.87,333.42 768.83,355.95 741.35,370.99 " fill="none" id="hshpub-to-pub" style="stroke:#181818;stroke-width:1.0;"/><polygon fill="#181818" points="737.24,373.18,747.0632,372.4692,741.6506,370.8248,743.2949,365.4122,737.24,373.18" style="stroke:#181818;stroke-width:1.0;"/></g><!--SRC=[bP31QiCm44Jl-eh5fuGYVq08WK8FlHGAWTmbPOq4ZbsaLI4a_lUi8nbRQQ2jJcBGp9kHwmXzemn2jOyw6Eyq-WfKW10rN0JmkPoGR7ySu0MwdbnpNgt588IRhQz4obYbM_oCkdN1vWnrrt_697t5Bmaxz1kOsO_HR_Wy-eZFevF-f-WoyEiVUpyYZOqu-cuzHKhkGUIhbDTTNbb8gLqXyKM8G3uQWkg0XdfV5lj6i-ZME6ovceHfOTW0kxRpp1tNo9uwran8j4cJye7vhe8jYJRONuYZPu-qeF9dZU88p_PwmSxInBu1]--></g></svg>