<?xml version="1.0" encoding="us-ascii" standalone="no"?><svg xmlns="http://www.w3.org/2000/svg" xmlns:xlink="http://www.w3.org/1999/xlink" contentStyleType="text/css" height="202px" preserveAspectRatio="none" style="width:228px;height:202px;background:#FFFFFF;" version="1.1" viewBox="0 0 228 202" width="228px" zoomAndPan="magnify"><defs/><g><!--class state--><g id="elem_state"><rect codeLine="1" fill="#F1F1F1" height="64.2969" id="state" rx="2.5" ry="2.5" style="stroke:#181818;stroke-width:0.5;" width="92" x="7" y="7"/><ellipse cx="32.8" cy="23" fill="#B4A7E5" rx="11" ry="11" style="stroke:#181818;stroke-width:1.0;"/><path d="M28.7219,18.7656 L28.7219,16.6094 L36.1125,16.6094 L36.1125,18.7656 L33.6438,18.7656 L33.6438,26.8438 L36.1125,26.8438 L36.1125,29 L28.7219,29 L28.7219,26.8438 L31.1906,26.8438 L31.1906,18.7656 L28.7219,18.7656 Z " fill="#000000"/><text fill="#000000" font-family="sans-serif" font-size="14" font-style="italic" lengthAdjust="spacing" textLength="36" x="49.2" y="27.8467">State</text><line style="stroke:#181818;stroke-width:0.5;" x1="8" x2="98" y1="39" y2="39"/><line style="stroke:#181818;stroke-width:0.5;" x1="8" x2="98" y1="47" y2="47"/><ellipse cx="18" cy="60.6484" fill="#84BE84" rx="3" ry="3" style="stroke:#038048;stroke-width:1.0;"/><text fill="#000000" font-family="sans-serif" font-size="14" lengthAdjust="spacing" textLength="66" x="27" y="63.9951">execute()</text></g><!--class ctx--><g id="elem_ctx"><rect codeLine="5" fill="#F1F1F1" height="64.2969" id="ctx" rx="2.5" ry="2.5" style="stroke:#181818;stroke-width:0.5;" width="87" x="134.5" y="7"/><ellipse cx="149.5" cy="23" fill="#B4A7E5" rx="11" ry="11" style="stroke:#181818;stroke-width:1.0;"/><path d="M145.4219,18.7656 L145.4219,16.6094 L152.8125,16.6094 L152.8125,18.7656 L150.3438,18.7656 L150.3438,26.8438 L152.8125,26.8438 L152.8125,29 L145.4219,29 L145.4219,26.8438 L147.8906,26.8438 L147.8906,18.7656 L145.4219,18.7656 Z " fill="#000000"/><text fill="#000000" font-family="sans-serif" font-size="14" font-style="italic" lengthAdjust="spacing" textLength="55" x="163.5" y="27.8467">Context</text><line style="stroke:#181818;stroke-width:0.5;" x1="135.5" x2="220.5" y1="39" y2="39"/><line style="stroke:#181818;stroke-width:0.5;" x1="135.5" x2="220.5" y1="47" y2="47"/><ellipse cx="145.5" cy="60.6484" fill="#84BE84" rx="3" ry="3" style="stroke:#038048;stroke-width:1.0;"/><text fill="#000000" font-family="sans-serif" font-size="14" lengthAdjust="spacing" textLength="57" x="154.5" y="63.9951">handle()</text></g><!--class simplectx--><g id="elem_simplectx"><rect codeLine="9" fill="#F1F1F1" height="64.2969" id="simplectx" rx="2.5" ry="2.5" style="stroke:#181818;stroke-width:0.5;" width="133" x="48.5" y="131"/><ellipse cx="63.5" cy="147" fill="#B4A7E5" rx="11" ry="11" style="stroke:#181818;stroke-width:1.0;"/><path d="M59.4219,142.7656 L59.4219,140.6094 L66.8125,140.6094 L66.8125,142.7656 L64.3438,142.7656 L64.3438,150.8438 L66.8125,150.8438 L66.8125,153 L59.4219,153 L59.4219,150.8438 L61.8906,150.8438 L61.8906,142.7656 L59.4219,142.7656 Z " fill="#000000"/><text fill="#000000" font-family="sans-serif" font-size="14" font-style="italic" lengthAdjust="spacing" textLength="101" x="77.5" y="151.8467">SimpleContext</text><line style="stroke:#181818;stroke-width:0.5;" x1="49.5" x2="180.5" y1="163" y2="163"/><line style="stroke:#181818;stroke-width:0.5;" x1="49.5" x2="180.5" y1="171" y2="171"/><ellipse cx="59.5" cy="184.6484" fill="#84BE84" rx="3" ry="3" style="stroke:#038048;stroke-width:1.0;"/><text fill="#000000" font-family="sans-serif" font-size="14" lengthAdjust="spacing" textLength="58" x="68.5" y="187.9951">detach()</text></g><!--reverse link ctx to simplectx--><g id="link_ctx_simplectx"><path codeLine="13" d="M151.91,90.52 C144.88,104.13 137.48,118.46 131.17,130.69 " fill="none" id="ctx-backto-simplectx" style="stroke:#181818;stroke-width:1.0;stroke-dasharray:7.0,7.0;"/><polygon fill="none" points="145.69,87.32,161.08,72.76,158.12,93.75,145.69,87.32" style="stroke:#181818;stroke-width:1.0;"/></g><!--reverse link state to simplectx--><g id="link_state_simplectx"><path codeLine="14" d="M71.86,77.1 C80.56,94.23 90.78,114.34 99.09,130.69 " fill="none" id="state-backto-simplectx" style="stroke:#181818;stroke-width:1.0;"/><polygon fill="#181818" points="69.65,72.77,70.1726,82.605,71.9203,77.2249,77.3004,78.9726,69.65,72.77" style="stroke:#181818;stroke-width:1.0;"/></g><!--SRC=[oymhIIrAIqnELL0ABaaiILLII2nMA0Qn5Agv582WEZUr92C_fLP1Mo6r8ZMvj2HLGvEhbeih4w7HEH_8hYW1QqqkgS3Kc96ObvA3gIyuCxSW9nLPTp5O1AiPAQabYSaP43CGolHAzMhiG9OYYUcMwjf1lC050000]--></g></svg>