<?xml version="1.0" encoding="UTF-8" standalone="no"?><svg xmlns="http://www.w3.org/2000/svg" xmlns:xlink="http://www.w3.org/1999/xlink" contentStyleType="text/css" height="218px" preserveAspectRatio="none" style="width:373px;height:218px;background:#FFFFFF;" version="1.1" viewBox="0 0 373 218" width="373px" zoomAndPan="magnify"><defs/><g><!--MD5=[075d81ac5e6c102f8321644f67374cd3]
class cmd--><g id="elem_cmd"><rect codeLine="1" fill="#F1F1F1" height="64.2969" id="cmd" rx="2.5" ry="2.5" style="stroke:#181818;stroke-width:0.5;" width="103" x="137" y="7"/><ellipse cx="152" cy="23" fill="#B4A7E5" rx="11" ry="11" style="stroke:#181818;stroke-width:1.0;"/><path d="M147.9219,18.7656 L147.9219,16.6094 L155.3125,16.6094 L155.3125,18.7656 L152.8438,18.7656 L152.8438,26.8438 L155.3125,26.8438 L155.3125,29 L147.9219,29 L147.9219,26.8438 L150.3906,26.8438 L150.3906,18.7656 L147.9219,18.7656 Z " fill="#000000"/><text fill="#000000" font-family="sans-serif" font-size="14" font-style="italic" lengthAdjust="spacing" textLength="71" x="166" y="27.8467">Command</text><line style="stroke:#181818;stroke-width:0.5;" x1="138" x2="239" y1="39" y2="39"/><line style="stroke:#181818;stroke-width:0.5;" x1="138" x2="239" y1="47" y2="47"/><ellipse cx="148" cy="60.6484" fill="#84BE84" rx="3" ry="3" style="stroke:#038048;stroke-width:1.0;"/><text fill="#000000" font-family="sans-serif" font-size="14" lengthAdjust="spacing" textLength="66" x="157" y="63.9951">execute()</text></g><!--MD5=[edaea62b22f7dd104a8ec598f142c32d]
class hshcmd--><g id="elem_hshcmd"><rect codeLine="5" fill="#F1F1F1" height="80.5938" id="hshcmd" rx="2.5" ry="2.5" style="stroke:#181818;stroke-width:0.5;" width="167" x="7" y="131"/><ellipse cx="22" cy="147" fill="#F1F1F1" rx="11" ry="11" style="stroke:#181818;stroke-width:1.0;"/><path d="M21.4844,147.5625 Q19.625,146.8594 18.9688,146.0938 Q18.3281,145.3125 18.3281,144 Q18.3281,142.3125 19.4063,141.3438 Q20.4844,140.375 22.3594,140.375 Q23.2188,140.375 24.0625,140.5781 Q24.9219,140.7656 25.7656,141.1563 L25.7656,143.5469 Q24.9844,142.9844 24.1563,142.7031 Q23.3438,142.4063 22.5469,142.4063 Q21.6719,142.4063 21.1875,142.7656 Q20.7188,143.125 20.7188,143.7813 Q20.7188,144.2969 21.0625,144.6406 Q21.4063,144.9688 22.5,145.375 L23.5625,145.7813 Q25.0469,146.3281 25.75,147.2344 Q26.4688,148.1406 26.4688,149.5156 Q26.4688,151.3906 25.3594,152.3125 Q24.25,153.2344 22,153.2344 Q21.0781,153.2344 20.1563,153.0156 Q19.2344,152.7969 18.375,152.375 L18.375,149.8438 Q19.3438,150.5313 20.2656,150.875 Q21.1875,151.2188 22.0781,151.2188 Q22.9844,151.2188 23.4844,150.8125 Q23.9844,150.3906 23.9844,149.6563 Q23.9844,149.0938 23.6406,148.6875 Q23.3125,148.2656 22.6875,148.0156 L21.4844,147.5625 Z " fill="#000000"/><text fill="#000000" font-family="sans-serif" font-size="14" lengthAdjust="spacing" textLength="135" x="36" y="151.8467">HashableCommand</text><line style="stroke:#181818;stroke-width:0.5;" x1="8" x2="173" y1="163" y2="163"/><rect fill="none" height="6" style="stroke:#C82930;stroke-width:1.0;" width="6" x="15" y="173.6484"/><text fill="#000000" font-family="sans-serif" font-size="14" lengthAdjust="spacing" textLength="141" x="27" y="179.9951">delegate: Command</text><rect fill="none" height="6" style="stroke:#C82930;stroke-width:1.0;" width="6" x="15" y="189.9453"/><text fill="#000000" font-family="sans-serif" font-size="14" lengthAdjust="spacing" textLength="94" x="27" y="196.292">id: Hash + Eq</text><line style="stroke:#181818;stroke-width:0.5;" x1="8" x2="173" y1="203.5938" y2="203.5938"/></g><!--MD5=[3b169088e7ffbeab4b93a3d1b4e3f72c]
class lbdcmd--><g id="elem_lbdcmd"><rect codeLine="11" fill="#F1F1F1" height="64.2969" id="lbdcmd" rx="2.5" ry="2.5" style="stroke:#181818;stroke-width:0.5;" width="157" x="209" y="139.5"/><ellipse cx="224" cy="155.5" fill="#F1F1F1" rx="11" ry="11" style="stroke:#181818;stroke-width:1.0;"/><path d="M223.4844,156.0625 Q221.625,155.3594 220.9688,154.5938 Q220.3281,153.8125 220.3281,152.5 Q220.3281,150.8125 221.4063,149.8438 Q222.4844,148.875 224.3594,148.875 Q225.2188,148.875 226.0625,149.0781 Q226.9219,149.2656 227.7656,149.6563 L227.7656,152.0469 Q226.9844,151.4844 226.1563,151.2031 Q225.3438,150.9063 224.5469,150.9063 Q223.6719,150.9063 223.1875,151.2656 Q222.7188,151.625 222.7188,152.2813 Q222.7188,152.7969 223.0625,153.1406 Q223.4063,153.4688 224.5,153.875 L225.5625,154.2813 Q227.0469,154.8281 227.75,155.7344 Q228.4688,156.6406 228.4688,158.0156 Q228.4688,159.8906 227.3594,160.8125 Q226.25,161.7344 224,161.7344 Q223.0781,161.7344 222.1563,161.5156 Q221.2344,161.2969 220.375,160.875 L220.375,158.3438 Q221.3438,159.0313 222.2656,159.375 Q223.1875,159.7188 224.0781,159.7188 Q224.9844,159.7188 225.4844,159.3125 Q225.9844,158.8906 225.9844,158.1563 Q225.9844,157.5938 225.6406,157.1875 Q225.3125,156.7656 224.6875,156.5156 L223.4844,156.0625 Z " fill="#000000"/><text fill="#000000" font-family="sans-serif" font-size="14" lengthAdjust="spacing" textLength="125" x="238" y="160.3467">LambdaCommand</text><line style="stroke:#181818;stroke-width:0.5;" x1="210" x2="365" y1="171.5" y2="171.5"/><rect fill="none" height="6" style="stroke:#C82930;stroke-width:1.0;" width="6" x="217" y="182.1484"/><text fill="#000000" font-family="sans-serif" font-size="14" lengthAdjust="spacing" textLength="97" x="229" y="188.4951">delegate: Fn()</text><line style="stroke:#181818;stroke-width:0.5;" x1="210" x2="365" y1="195.7969" y2="195.7969"/></g><!--MD5=[e997f8bdaaba5b36880ff1de6d91d3fb]
reverse link cmd to hshcmd--><g id="link_cmd_hshcmd"><path codeLine="15" d="M152.35,88.13 C141.87,102.1 130.54,117.19 120.47,130.59 " fill="none" id="cmd-backto-hshcmd" style="stroke:#181818;stroke-width:1.0;stroke-dasharray:7.0,7.0;"/><polygon fill="none" points="146.51,84.26,164.12,72.47,157.71,92.66,146.51,84.26" style="stroke:#181818;stroke-width:1.0;"/></g><!--MD5=[916ec1975be16f73efbc84ec9a622d8c]
reverse link cmd to lbdcmd--><g id="link_cmd_lbdcmd"><path codeLine="16" d="M225.03,88.15 C237.92,105.14 252.07,123.79 263.64,139.04 " fill="none" id="cmd-backto-lbdcmd" style="stroke:#181818;stroke-width:1.0;stroke-dasharray:7.0,7.0;"/><polygon fill="none" points="219.64,92.63,213.13,72.46,230.79,84.17,219.64,92.63" style="stroke:#181818;stroke-width:1.0;"/></g><!--MD5=[aaf778c2e7ce9920ef4a0eb3dddbc206]
@startuml "command"
interface "Command" as cmd {
    {method} + execute()
}

struct "HashableCommand" as hshcmd {
    {field} - delegate: Command
    {field} - id: Hash + Eq
}


struct "LambdaCommand" as lbdcmd {
    {field} - delegate: Fn()
}

hshcmd .u.|> cmd
lbdcmd .u.|> cmd

@enduml

PlantUML version 1.2022.12(Sun Oct 23 18:12:26 GMT 2022)
(GPL source distribution)
Java Runtime: OpenJDK Runtime Environment
JVM: OpenJDK 64-Bit Server VM
Default Encoding: UTF-8
Language: en
Country: US
--></g></svg>