<?xml version="1.0" encoding="us-ascii" standalone="no"?><svg xmlns="http://www.w3.org/2000/svg" xmlns:xlink="http://www.w3.org/1999/xlink" contentStyleType="text/css" height="186px" preserveAspectRatio="none" style="width:240px;height:186px;background:#FFFFFF;" version="1.1" viewBox="0 0 240 186" width="240px" zoomAndPan="magnify"><defs/><g><!--class sub--><g id="elem_sub"><rect codeLine="2" fill="#F1F1F1" height="48" id="sub" rx="2.5" ry="2.5" style="stroke:#181818;stroke-width:0.5;" width="105" x="128.5" y="7"/><ellipse cx="143.5" cy="23" fill="#B4A7E5" rx="11" ry="11" style="stroke:#181818;stroke-width:1.0;"/><path d="M139.4219,18.7656 L139.4219,16.6094 L146.8125,16.6094 L146.8125,18.7656 L144.3438,18.7656 L144.3438,26.8438 L146.8125,26.8438 L146.8125,29 L139.4219,29 L139.4219,26.8438 L141.8906,26.8438 L141.8906,18.7656 L139.4219,18.7656 Z " fill="#000000"/><text fill="#000000" font-family="sans-serif" font-size="14" font-style="italic" lengthAdjust="spacing" textLength="73" x="157.5" y="27.8467">Subscriber</text><line style="stroke:#181818;stroke-width:0.5;" x1="129.5" x2="232.5" y1="39" y2="39"/><line style="stroke:#181818;stroke-width:0.5;" x1="129.5" x2="232.5" y1="47" y2="47"/></g><!--class subHandler--><g id="elem_subHandler"><rect codeLine="3" fill="#F1F1F1" height="64.2969" id="subHandler" rx="2.5" ry="2.5" style="stroke:#181818;stroke-width:0.5;" width="166" x="32" y="115"/><ellipse cx="47" cy="131" fill="#F1F1F1" rx="11" ry="11" style="stroke:#181818;stroke-width:1.0;"/><path d="M46.4844,131.5625 Q44.625,130.8594 43.9688,130.0938 Q43.3281,129.3125 43.3281,128 Q43.3281,126.3125 44.4063,125.3438 Q45.4844,124.375 47.3594,124.375 Q48.2188,124.375 49.0625,124.5781 Q49.9219,124.7656 50.7656,125.1563 L50.7656,127.5469 Q49.9844,126.9844 49.1563,126.7031 Q48.3438,126.4063 47.5469,126.4063 Q46.6719,126.4063 46.1875,126.7656 Q45.7188,127.125 45.7188,127.7813 Q45.7188,128.2969 46.0625,128.6406 Q46.4063,128.9688 47.5,129.375 L48.5625,129.7813 Q50.0469,130.3281 50.75,131.2344 Q51.4688,132.1406 51.4688,133.5156 Q51.4688,135.3906 50.3594,136.3125 Q49.25,137.2344 47,137.2344 Q46.0781,137.2344 45.1563,137.0156 Q44.2344,136.7969 43.375,136.375 L43.375,133.8438 Q44.3438,134.5313 45.2656,134.875 Q46.1875,135.2188 47.0781,135.2188 Q47.9844,135.2188 48.4844,134.8125 Q48.9844,134.3906 48.9844,133.6563 Q48.9844,133.0938 48.6406,132.6875 Q48.3125,132.2656 47.6875,132.0156 L46.4844,131.5625 Z " fill="#000000"/><text fill="#000000" font-family="sans-serif" font-size="14" lengthAdjust="spacing" textLength="134" x="61" y="135.8467">SubscribingHandler</text><line style="stroke:#181818;stroke-width:0.5;" x1="33" x2="197" y1="147" y2="147"/><text fill="#000000" font-family="sans-serif" font-size="14" lengthAdjust="spacing" textLength="123" x="38" y="163.9951">delegate: Handler</text><line style="stroke:#181818;stroke-width:0.5;" x1="33" x2="197" y1="171.2969" y2="171.2969"/></g><!--class hndl--><g id="elem_hndl"><rect codeLine="6" fill="#F1F1F1" height="48" id="hndl" rx="2.5" ry="2.5" style="stroke:#181818;stroke-width:0.5;" width="86" x="7" y="7"/><ellipse cx="22" cy="23" fill="#B4A7E5" rx="11" ry="11" style="stroke:#181818;stroke-width:1.0;"/><path d="M17.9219,18.7656 L17.9219,16.6094 L25.3125,16.6094 L25.3125,18.7656 L22.8438,18.7656 L22.8438,26.8438 L25.3125,26.8438 L25.3125,29 L17.9219,29 L17.9219,26.8438 L20.3906,26.8438 L20.3906,18.7656 L17.9219,18.7656 Z " fill="#000000"/><text fill="#000000" font-family="sans-serif" font-size="14" font-style="italic" lengthAdjust="spacing" textLength="54" x="36" y="27.8467">Handler</text><line style="stroke:#181818;stroke-width:0.5;" x1="8" x2="92" y1="39" y2="39"/><line style="stroke:#181818;stroke-width:0.5;" x1="8" x2="92" y1="47" y2="47"/></g><!--reverse link sub to subHandler--><g id="link_sub_subHandler"><path codeLine="8" d="M156.72,73.94 C148.87,87.49 140.32,102.27 133,114.9 " fill="none" id="sub-backto-subHandler" style="stroke:#181818;stroke-width:1.0;stroke-dasharray:7.0,7.0;"/><polygon fill="none" points="150.65,70.46,166.73,56.65,162.76,77.47,150.65,70.46" style="stroke:#181818;stroke-width:1.0;"/></g><!--reverse link hndl to subHandler--><g id="link_hndl_subHandler"><path codeLine="9" d="M73.91,73.94 C81.64,87.49 90.07,102.27 97.27,114.9 " fill="none" id="hndl-backto-subHandler" style="stroke:#181818;stroke-width:1.0;stroke-dasharray:7.0,7.0;"/><polygon fill="none" points="67.89,77.5,64.06,56.66,80.05,70.57,67.89,77.5" style="stroke:#181818;stroke-width:1.0;"/></g><!--SRC=[NKqv3e0W4Ept5HiVm0CihErz0SU2cn0AZWhvkqH9C4urLsOuP8fMQiBbA2hfo8hYWZ9XAWfIZaNd6N5mkmp6pygG5R2ZMYPl6Xhov6Ic5KSC3NWUVIVEJW7c48eYhkqz_vjFzmO0]--></g></svg>