<?xml version="1.0" encoding="us-ascii" standalone="no"?><svg xmlns="http://www.w3.org/2000/svg" xmlns:xlink="http://www.w3.org/1999/xlink" contentStyleType="text/css" height="205px" preserveAspectRatio="none" style="width:316px;height:205px;background:#FFFFFF;" version="1.1" viewBox="0 0 316 205" width="316px" zoomAndPan="magnify"><defs/><g><!--class trans--><g id="elem_trans"><rect codeLine="1" fill="#F1F1F1" height="48" id="trans" rx="2.5" ry="2.5" style="stroke:#181818;stroke-width:0.5;" width="139" x="86.5" y="10"/><ellipse cx="101.5" cy="26" fill="#B4A7E5" rx="11" ry="11" style="stroke:#181818;stroke-width:1.0;"/><path d="M97.4219,21.7656 L97.4219,19.6094 L104.8125,19.6094 L104.8125,21.7656 L102.3438,21.7656 L102.3438,29.8438 L104.8125,29.8438 L104.8125,32 L97.4219,32 L97.4219,29.8438 L99.8906,29.8438 L99.8906,21.7656 L97.4219,21.7656 Z " fill="#000000"/><text fill="#000000" font-family="sans-serif" font-size="14" font-style="italic" lengthAdjust="spacing" textLength="83" x="115.5" y="30.8467">Transformer</text><rect fill="#FFFFFF" height="15.9688" style="stroke:#181818;stroke-width:1.0;stroke-dasharray:2.0,2.0;" width="22" x="206.5" y="7"/><text fill="#000000" font-family="sans-serif" font-size="12" font-style="italic" lengthAdjust="spacing" textLength="20" x="207.5" y="19.1387">I, O</text><line style="stroke:#181818;stroke-width:0.5;" x1="87.5" x2="224.5" y1="42" y2="42"/><line style="stroke:#181818;stroke-width:0.5;" x1="87.5" x2="224.5" y1="50" y2="50"/></g><!--class heap--><g id="elem_heap"><rect codeLine="4" fill="#F1F1F1" height="80.5938" id="heap" rx="2.5" ry="2.5" style="stroke:#181818;stroke-width:0.5;" width="298" x="7" y="118"/><ellipse cx="121.25" cy="134" fill="#B4A7E5" rx="11" ry="11" style="stroke:#181818;stroke-width:1.0;"/><path d="M117.1719,129.7656 L117.1719,127.6094 L124.5625,127.6094 L124.5625,129.7656 L122.0938,129.7656 L122.0938,137.8438 L124.5625,137.8438 L124.5625,140 L117.1719,140 L117.1719,137.8438 L119.6406,137.8438 L119.6406,129.7656 L117.1719,129.7656 Z " fill="#000000"/><text fill="#000000" font-family="sans-serif" font-size="14" font-style="italic" lengthAdjust="spacing" textLength="37" x="141.75" y="138.8467">Heap</text><rect fill="#FFFFFF" height="15.9688" style="stroke:#181818;stroke-width:1.0;stroke-dasharray:2.0,2.0;" width="22" x="286" y="115"/><text fill="#000000" font-family="sans-serif" font-size="12" font-style="italic" lengthAdjust="spacing" textLength="20" x="287" y="127.1387">I, O</text><line style="stroke:#181818;stroke-width:0.5;" x1="8" x2="304" y1="150" y2="150"/><line style="stroke:#181818;stroke-width:0.5;" x1="8" x2="304" y1="158" y2="158"/><ellipse cx="18" cy="171.6484" fill="#84BE84" rx="3" ry="3" style="stroke:#038048;stroke-width:1.0;"/><text fill="#000000" font-family="sans-serif" font-size="14" lengthAdjust="spacing" textLength="99" x="27" y="174.9951">transform(I): O</text><ellipse cx="18" cy="187.9453" fill="#84BE84" rx="3" ry="3" style="stroke:#038048;stroke-width:1.0;"/><text fill="#000000" font-family="sans-serif" font-size="14" lengthAdjust="spacing" textLength="272" x="27" y="191.292">push(Transformer&lt;O, N&gt;): Heap&lt;I, N&gt;</text></g><!--reverse link trans to heap--><g id="link_trans_heap"><path codeLine="9" d="M156,79.84 C156,92.3 156,105.73 156,117.87 " fill="none" id="trans-backto-heap" style="stroke:#181818;stroke-width:1.0;stroke-dasharray:7.0,7.0;"/><polygon fill="none" points="149,79.84,156,59.84,163,79.84,149,79.84" style="stroke:#181818;stroke-width:1.0;"/></g><!--SRC=[oymhIIrAIqnELL0AAKhCAqxBByfDBL9II2nMA07nRJnr5Fpj5AgvQhcuCX5gFL8J2y2ACe0Ck1e58AZEJIt9o4-fLT26600oKCDJqqh17rsweBGuGmF9KXj_7GK_Ew1A3wYPVdOWMq4sAEYLwjNOGGpa0W00]--></g></svg>