<?xml version="1.0" encoding="UTF-8" standalone="no"?><svg xmlns="http://www.w3.org/2000/svg" xmlns:xlink="http://www.w3.org/1999/xlink" contentStyleType="text/css" height="186px" preserveAspectRatio="none" style="width:247px;height:186px;background:#FFFFFF;" version="1.1" viewBox="0 0 247 186" width="247px" zoomAndPan="magnify"><defs/><g><!--MD5=[8ab7eb4cd4e39d2a6a19fed9f9b9e14d]
class obs--><g id="elem_obs"><rect codeLine="2" fill="#F1F1F1" height="48" id="obs" rx="2.5" ry="2.5" style="stroke:#181818;stroke-width:0.5;" width="95" x="7" y="7"/><ellipse cx="22" cy="23" fill="#B4A7E5" rx="11" ry="11" style="stroke:#181818;stroke-width:1.0;"/><path d="M17.9219,18.7656 L17.9219,16.6094 L25.3125,16.6094 L25.3125,18.7656 L22.8438,18.7656 L22.8438,26.8438 L25.3125,26.8438 L25.3125,29 L17.9219,29 L17.9219,26.8438 L20.3906,26.8438 L20.3906,18.7656 L17.9219,18.7656 Z " fill="#000000"/><text fill="#000000" font-family="sans-serif" font-size="14" font-style="italic" lengthAdjust="spacing" textLength="63" x="36" y="27.8467">Observer</text><line style="stroke:#181818;stroke-width:0.5;" x1="8" x2="101" y1="39" y2="39"/><line style="stroke:#181818;stroke-width:0.5;" x1="8" x2="101" y1="47" y2="47"/></g><!--MD5=[5465c04d731867a60c61a23355f93d15]
class cmdObs--><g id="elem_cmdObs"><rect codeLine="3" fill="#F1F1F1" height="64.2969" id="cmdObs" rx="2.5" ry="2.5" style="stroke:#181818;stroke-width:0.5;" width="173" x="35" y="115"/><ellipse cx="50" cy="131" fill="#F1F1F1" rx="11" ry="11" style="stroke:#181818;stroke-width:1.0;"/><path d="M49.4844,131.5625 Q47.625,130.8594 46.9688,130.0938 Q46.3281,129.3125 46.3281,128 Q46.3281,126.3125 47.4063,125.3438 Q48.4844,124.375 50.3594,124.375 Q51.2188,124.375 52.0625,124.5781 Q52.9219,124.7656 53.7656,125.1563 L53.7656,127.5469 Q52.9844,126.9844 52.1563,126.7031 Q51.3438,126.4063 50.5469,126.4063 Q49.6719,126.4063 49.1875,126.7656 Q48.7188,127.125 48.7188,127.7813 Q48.7188,128.2969 49.0625,128.6406 Q49.4063,128.9688 50.5,129.375 L51.5625,129.7813 Q53.0469,130.3281 53.75,131.2344 Q54.4688,132.1406 54.4688,133.5156 Q54.4688,135.3906 53.3594,136.3125 Q52.25,137.2344 50,137.2344 Q49.0781,137.2344 48.1563,137.0156 Q47.2344,136.7969 46.375,136.375 L46.375,133.8438 Q47.3438,134.5313 48.2656,134.875 Q49.1875,135.2188 50.0781,135.2188 Q50.9844,135.2188 51.4844,134.8125 Q51.9844,134.3906 51.9844,133.6563 Q51.9844,133.0938 51.6406,132.6875 Q51.3125,132.2656 50.6875,132.0156 L49.4844,131.5625 Z " fill="#000000"/><text fill="#000000" font-family="sans-serif" font-size="14" lengthAdjust="spacing" textLength="141" x="64" y="135.8467">ObservingCommand</text><line style="stroke:#181818;stroke-width:0.5;" x1="36" x2="207" y1="147" y2="147"/><text fill="#000000" font-family="sans-serif" font-size="14" lengthAdjust="spacing" textLength="141" x="41" y="163.9951">delegate: Command</text><line style="stroke:#181818;stroke-width:0.5;" x1="36" x2="207" y1="171.2969" y2="171.2969"/></g><!--MD5=[075d81ac5e6c102f8321644f67374cd3]
class cmd--><g id="elem_cmd"><rect codeLine="6" fill="#F1F1F1" height="48" id="cmd" rx="2.5" ry="2.5" style="stroke:#181818;stroke-width:0.5;" width="103" x="137" y="7"/><ellipse cx="152" cy="23" fill="#B4A7E5" rx="11" ry="11" style="stroke:#181818;stroke-width:1.0;"/><path d="M147.9219,18.7656 L147.9219,16.6094 L155.3125,16.6094 L155.3125,18.7656 L152.8438,18.7656 L152.8438,26.8438 L155.3125,26.8438 L155.3125,29 L147.9219,29 L147.9219,26.8438 L150.3906,26.8438 L150.3906,18.7656 L147.9219,18.7656 Z " fill="#000000"/><text fill="#000000" font-family="sans-serif" font-size="14" font-style="italic" lengthAdjust="spacing" textLength="71" x="166" y="27.8467">Command</text><line style="stroke:#181818;stroke-width:0.5;" x1="138" x2="239" y1="39" y2="39"/><line style="stroke:#181818;stroke-width:0.5;" x1="138" x2="239" y1="47" y2="47"/></g><!--MD5=[8ce2caaa7172838266c63460ecc703ea]
reverse link cmd to cmdObs--><g id="link_cmd_cmdObs"><path codeLine="8" d="M164.13,73.46 C156.09,87.15 147.29,102.13 139.78,114.9 " fill="none" id="cmd-backto-cmdObs" style="stroke:#181818;stroke-width:1.0;stroke-dasharray:7.0,7.0;"/><polygon fill="none" points="157.84,70.35,174.01,56.65,169.91,77.44,157.84,70.35" style="stroke:#181818;stroke-width:1.0;"/></g><!--MD5=[4f776c3fc1ce5f52773c11b44f89f637]
reverse link obs to cmdObs--><g id="link_obs_cmdObs"><path codeLine="9" d="M78.87,73.46 C86.91,87.15 95.71,102.13 103.22,114.9 " fill="none" id="obs-backto-cmdObs" style="stroke:#181818;stroke-width:1.0;stroke-dasharray:7.0,7.0;"/><polygon fill="none" points="73.09,77.44,68.99,56.65,85.16,70.35,73.09,77.44" style="stroke:#181818;stroke-width:1.0;"/></g><!--MD5=[7b6ca0413a2035233afdb680749c620b]
@startuml "observing_command"

interface "Observer" as obs
struct "ObservingCommand" as cmdObs{
    {field} delegate: Command
}
interface "Command" as cmd

cmdObs .u.|> cmd
cmdObs .u.|> obs

@enduml

PlantUML version 1.2022.12(Sun Oct 23 18:12:26 GMT 2022)
(GPL source distribution)
Java Runtime: OpenJDK Runtime Environment
JVM: OpenJDK 64-Bit Server VM
Default Encoding: UTF-8
Language: en
Country: US
--></g></svg>