<?xml version="1.0" encoding="UTF-8" standalone="no"?><svg xmlns="http://www.w3.org/2000/svg" xmlns:xlink="http://www.w3.org/1999/xlink" contentStyleType="text/css" height="221px" preserveAspectRatio="none" style="width:255px;height:221px;background:#FFFFFF;" version="1.1" viewBox="0 0 255 221" width="255px" zoomAndPan="magnify"><defs/><g><!--MD5=[e0029d11b201e81ace191f0f28898e23]
class fact--><g id="elem_fact"><rect codeLine="2" fill="#F1F1F1" height="64.2969" id="fact" rx="2.5" ry="2.5" style="stroke:#181818;stroke-width:0.5;" width="182" x="34.5" y="10"/><ellipse cx="49.5" cy="26" fill="#B4A7E5" rx="11" ry="11" style="stroke:#181818;stroke-width:1.0;"/><path d="M45.4219,21.7656 L45.4219,19.6094 L52.8125,19.6094 L52.8125,21.7656 L50.3438,21.7656 L50.3438,29.8438 L52.8125,29.8438 L52.8125,32 L45.4219,32 L45.4219,29.8438 L47.8906,29.8438 L47.8906,21.7656 L45.4219,21.7656 Z " fill="#000000"/><text fill="#000000" font-family="sans-serif" font-size="14" font-style="italic" lengthAdjust="spacing" textLength="108" x="63.5" y="30.8467">AbstractFactory</text><rect fill="#FFFFFF" height="15.9688" style="stroke:#181818;stroke-width:1.0;stroke-dasharray:2.0,2.0;" width="40" x="179.5" y="7"/><text fill="#000000" font-family="sans-serif" font-size="12" font-style="italic" lengthAdjust="spacing" textLength="38" x="180.5" y="19.1387">Result</text><line style="stroke:#181818;stroke-width:0.5;" x1="35.5" x2="215.5" y1="42" y2="42"/><line style="stroke:#181818;stroke-width:0.5;" x1="35.5" x2="215.5" y1="50" y2="50"/><ellipse cx="45.5" cy="63.6484" fill="#84BE84" rx="3" ry="3" style="stroke:#038048;stroke-width:1.0;"/><text fill="#000000" font-family="sans-serif" font-size="14" lengthAdjust="spacing" textLength="107" x="54.5" y="66.9951">create(): Result</text></g><!--MD5=[c8a28658396bda98ccc969c84819d59d]
class lbdfact--><g id="elem_lbdfact"><rect codeLine="6" fill="#F1F1F1" height="80.5938" id="lbdfact" rx="2.5" ry="2.5" style="stroke:#181818;stroke-width:0.5;" width="237" x="7" y="134"/><ellipse cx="22" cy="150" fill="#B4A7E5" rx="11" ry="11" style="stroke:#181818;stroke-width:1.0;"/><path d="M17.9219,145.7656 L17.9219,143.6094 L25.3125,143.6094 L25.3125,145.7656 L22.8438,145.7656 L22.8438,153.8438 L25.3125,153.8438 L25.3125,156 L17.9219,156 L17.9219,153.8438 L20.3906,153.8438 L20.3906,145.7656 L17.9219,145.7656 Z " fill="#000000"/><text fill="#000000" font-family="sans-serif" font-size="14" font-style="italic" lengthAdjust="spacing" textLength="163" x="36" y="154.8467">LambdaAbstractFactory</text><rect fill="#FFFFFF" height="15.9688" style="stroke:#181818;stroke-width:1.0;stroke-dasharray:2.0,2.0;" width="40" x="207" y="131"/><text fill="#000000" font-family="sans-serif" font-size="12" font-style="italic" lengthAdjust="spacing" textLength="38" x="208" y="143.1387">Result</text><line style="stroke:#181818;stroke-width:0.5;" x1="8" x2="243" y1="166" y2="166"/><rect fill="none" height="6" style="stroke:#C82930;stroke-width:1.0;" width="6" x="15" y="176.6484"/><text fill="#000000" font-family="sans-serif" font-size="14" lengthAdjust="spacing" textLength="166" x="27" y="182.9951">delegate: Fn() -&gt; Result</text><line style="stroke:#181818;stroke-width:0.5;" x1="8" x2="243" y1="190.2969" y2="190.2969"/><ellipse cx="18" cy="203.9453" fill="#84BE84" rx="3" ry="3" style="stroke:#038048;stroke-width:1.0;"/><text fill="#000000" font-family="sans-serif" font-size="14" lengthAdjust="spacing" textLength="205" x="27" y="207.292">new(delegate: Fn() -&gt; Result)</text></g><!--MD5=[64042413dbf0b5d2d3fd771cb75bc154]
reverse link fact to lbdfact--><g id="link_fact_lbdfact"><path codeLine="11" d="M125.5,80.69 C125.5,97.27 125.5,116.76 125.5,133.59 " fill="none" id="fact-backto-lbdfact" style="stroke:#181818;stroke-width:1.0;stroke-dasharray:7.0,7.0;"/><polygon fill="#181818" points="125.5,75.77,121.5,84.77,125.5,80.77,129.5,84.77,125.5,75.77" style="stroke:#181818;stroke-width:1.0;"/></g><!--MD5=[cd58b3ba6f4d66fc687e7fad5166e214]
@startuml "abstract_factory"

interface "AbstractFactory" as fact<Result> {
    {method} + create(): Result
}

interface "LambdaAbstractFactory" as lbdfact<Result> {
    {field} - delegate: Fn() -> Result
    {method} + new(delegate: Fn() -> Result)
}

lbdfact .u.> fact

@enduml

PlantUML version 1.2022.12(Sun Oct 23 18:12:26 GMT 2022)
(GPL source distribution)
Java Runtime: OpenJDK Runtime Environment
JVM: OpenJDK 64-Bit Server VM
Default Encoding: UTF-8
Language: en
Country: US
--></g></svg>