<?xml version="1.0" encoding="us-ascii" standalone="no"?><svg xmlns="http://www.w3.org/2000/svg" xmlns:xlink="http://www.w3.org/1999/xlink" contentStyleType="text/css" height="189px" preserveAspectRatio="none" style="width:422px;height:189px;background:#FFFFFF;" version="1.1" viewBox="0 0 422 189" width="422px" zoomAndPan="magnify"><defs/><g><!--class hashtrait--><g id="elem_hashtrait"><rect codeLine="2" fill="#F1F1F1" height="48" id="hashtrait" rx="2.5" ry="2.5" style="stroke:#181818;stroke-width:0.5;" width="67" x="7" y="18"/><ellipse cx="22" cy="34" fill="#B4A7E5" rx="11" ry="11" style="stroke:#181818;stroke-width:1.0;"/><path d="M17.9219,29.7656 L17.9219,27.6094 L25.3125,27.6094 L25.3125,29.7656 L22.8438,29.7656 L22.8438,37.8438 L25.3125,37.8438 L25.3125,40 L17.9219,40 L17.9219,37.8438 L20.3906,37.8438 L20.3906,29.7656 L17.9219,29.7656 Z " fill="#000000"/><text fill="#000000" font-family="sans-serif" font-size="14" font-style="italic" lengthAdjust="spacing" textLength="35" x="36" y="38.8467">Hash</text><line style="stroke:#181818;stroke-width:0.5;" x1="8" x2="73" y1="50" y2="50"/><line style="stroke:#181818;stroke-width:0.5;" x1="8" x2="73" y1="58" y2="58"/></g><!--class eqtrait--><g id="elem_eqtrait"><rect codeLine="4" fill="#F1F1F1" height="48" id="eqtrait" rx="2.5" ry="2.5" style="stroke:#181818;stroke-width:0.5;" width="50" x="109.5" y="18"/><ellipse cx="124.5" cy="34" fill="#B4A7E5" rx="11" ry="11" style="stroke:#181818;stroke-width:1.0;"/><path d="M120.4219,29.7656 L120.4219,27.6094 L127.8125,27.6094 L127.8125,29.7656 L125.3438,29.7656 L125.3438,37.8438 L127.8125,37.8438 L127.8125,40 L120.4219,40 L120.4219,37.8438 L122.8906,37.8438 L122.8906,29.7656 L120.4219,29.7656 Z " fill="#000000"/><text fill="#000000" font-family="sans-serif" font-size="14" font-style="italic" lengthAdjust="spacing" textLength="18" x="138.5" y="38.8467">Eq</text><line style="stroke:#181818;stroke-width:0.5;" x1="110.5" x2="158.5" y1="50" y2="50"/><line style="stroke:#181818;stroke-width:0.5;" x1="110.5" x2="158.5" y1="58" y2="58"/></g><!--class trans--><g id="elem_trans"><rect codeLine="6" fill="#F1F1F1" height="64.2969" id="trans" rx="2.5" ry="2.5" style="stroke:#181818;stroke-width:0.5;" width="98" x="195.5" y="10"/><ellipse cx="212.3" cy="26" fill="#B4A7E5" rx="11" ry="11" style="stroke:#181818;stroke-width:1.0;"/><path d="M208.2219,21.7656 L208.2219,19.6094 L215.6125,19.6094 L215.6125,21.7656 L213.1438,21.7656 L213.1438,29.8438 L215.6125,29.8438 L215.6125,32 L208.2219,32 L208.2219,29.8438 L210.6906,29.8438 L210.6906,21.7656 L208.2219,21.7656 Z " fill="#000000"/><text fill="#000000" font-family="sans-serif" font-size="14" font-style="italic" lengthAdjust="spacing" textLength="54" x="226.7" y="30.8467">Handler</text><rect fill="#FFFFFF" height="15.9688" style="stroke:#181818;stroke-width:1.0;stroke-dasharray:2.0,2.0;" width="6" x="290.5" y="7"/><text fill="#000000" font-family="sans-serif" font-size="12" font-style="italic" lengthAdjust="spacing" textLength="4" x="291.5" y="19.1387">I</text><line style="stroke:#181818;stroke-width:0.5;" x1="196.5" x2="292.5" y1="42" y2="42"/><line style="stroke:#181818;stroke-width:0.5;" x1="196.5" x2="292.5" y1="50" y2="50"/><ellipse cx="206.5" cy="63.6484" fill="#84BE84" rx="3" ry="3" style="stroke:#038048;stroke-width:1.0;"/><text fill="#000000" font-family="sans-serif" font-size="14" lengthAdjust="spacing" textLength="72" x="215.5" y="66.9951">handle(&amp;I)</text></g><!--class heap--><g id="elem_heap"><rect codeLine="10" fill="#F1F1F1" height="48" id="heap" rx="2.5" ry="2.5" style="stroke:#181818;stroke-width:0.5;" width="76" x="206.5" y="134"/><ellipse cx="221.5" cy="150" fill="#F1F1F1" rx="11" ry="11" style="stroke:#181818;stroke-width:1.0;"/><path d="M220.9844,150.5625 Q219.125,149.8594 218.4688,149.0938 Q217.8281,148.3125 217.8281,147 Q217.8281,145.3125 218.9063,144.3438 Q219.9844,143.375 221.8594,143.375 Q222.7188,143.375 223.5625,143.5781 Q224.4219,143.7656 225.2656,144.1563 L225.2656,146.5469 Q224.4844,145.9844 223.6563,145.7031 Q222.8438,145.4063 222.0469,145.4063 Q221.1719,145.4063 220.6875,145.7656 Q220.2188,146.125 220.2188,146.7813 Q220.2188,147.2969 220.5625,147.6406 Q220.9063,147.9688 222,148.375 L223.0625,148.7813 Q224.5469,149.3281 225.25,150.2344 Q225.9688,151.1406 225.9688,152.5156 Q225.9688,154.3906 224.8594,155.3125 Q223.75,156.2344 221.5,156.2344 Q220.5781,156.2344 219.6563,156.0156 Q218.7344,155.7969 217.875,155.375 L217.875,152.8438 Q218.8438,153.5313 219.7656,153.875 Q220.6875,154.2188 221.5781,154.2188 Q222.4844,154.2188 222.9844,153.8125 Q223.4844,153.3906 223.4844,152.6563 Q223.4844,152.0938 223.1406,151.6875 Q222.8125,151.2656 222.1875,151.0156 L220.9844,150.5625 Z " fill="#000000"/><text fill="#000000" font-family="sans-serif" font-size="14" lengthAdjust="spacing" textLength="36" x="235.5" y="154.8467">Heap</text><rect fill="#FFFFFF" height="15.9688" style="stroke:#181818;stroke-width:1.0;stroke-dasharray:2.0,2.0;" width="6" x="279.5" y="131"/><text fill="#000000" font-family="sans-serif" font-size="12" font-style="italic" lengthAdjust="spacing" textLength="4" x="280.5" y="143.1387">I</text><line style="stroke:#181818;stroke-width:0.5;" x1="207.5" x2="281.5" y1="166" y2="166"/><line style="stroke:#181818;stroke-width:0.5;" x1="207.5" x2="281.5" y1="174" y2="174"/></g><!--class lambda--><g id="elem_lambda"><rect codeLine="13" fill="#F1F1F1" height="48" id="lambda" rx="2.5" ry="2.5" style="stroke:#181818;stroke-width:0.5;" width="94" x="317.5" y="134"/><ellipse cx="332.5" cy="150" fill="#F1F1F1" rx="11" ry="11" style="stroke:#181818;stroke-width:1.0;"/><path d="M331.9844,150.5625 Q330.125,149.8594 329.4688,149.0938 Q328.8281,148.3125 328.8281,147 Q328.8281,145.3125 329.9063,144.3438 Q330.9844,143.375 332.8594,143.375 Q333.7188,143.375 334.5625,143.5781 Q335.4219,143.7656 336.2656,144.1563 L336.2656,146.5469 Q335.4844,145.9844 334.6563,145.7031 Q333.8438,145.4063 333.0469,145.4063 Q332.1719,145.4063 331.6875,145.7656 Q331.2188,146.125 331.2188,146.7813 Q331.2188,147.2969 331.5625,147.6406 Q331.9063,147.9688 333,148.375 L334.0625,148.7813 Q335.5469,149.3281 336.25,150.2344 Q336.9688,151.1406 336.9688,152.5156 Q336.9688,154.3906 335.8594,155.3125 Q334.75,156.2344 332.5,156.2344 Q331.5781,156.2344 330.6563,156.0156 Q329.7344,155.7969 328.875,155.375 L328.875,152.8438 Q329.8438,153.5313 330.7656,153.875 Q331.6875,154.2188 332.5781,154.2188 Q333.4844,154.2188 333.9844,153.8125 Q334.4844,153.3906 334.4844,152.6563 Q334.4844,152.0938 334.1406,151.6875 Q333.8125,151.2656 333.1875,151.0156 L331.9844,150.5625 Z " fill="#000000"/><text fill="#000000" font-family="sans-serif" font-size="14" lengthAdjust="spacing" textLength="54" x="346.5" y="154.8467">Lambda</text><rect fill="#FFFFFF" height="15.9688" style="stroke:#181818;stroke-width:1.0;stroke-dasharray:2.0,2.0;" width="6" x="408.5" y="131"/><text fill="#000000" font-family="sans-serif" font-size="12" font-style="italic" lengthAdjust="spacing" textLength="4" x="409.5" y="143.1387">I</text><line style="stroke:#181818;stroke-width:0.5;" x1="318.5" x2="410.5" y1="166" y2="166"/><line style="stroke:#181818;stroke-width:0.5;" x1="318.5" x2="410.5" y1="174" y2="174"/></g><!--class hash--><g id="elem_hash"><rect codeLine="16" fill="#F1F1F1" height="48" id="hash" rx="2.5" ry="2.5" style="stroke:#181818;stroke-width:0.5;" width="75" x="96" y="134"/><ellipse cx="111" cy="150" fill="#F1F1F1" rx="11" ry="11" style="stroke:#181818;stroke-width:1.0;"/><path d="M110.4844,150.5625 Q108.625,149.8594 107.9688,149.0938 Q107.3281,148.3125 107.3281,147 Q107.3281,145.3125 108.4063,144.3438 Q109.4844,143.375 111.3594,143.375 Q112.2188,143.375 113.0625,143.5781 Q113.9219,143.7656 114.7656,144.1563 L114.7656,146.5469 Q113.9844,145.9844 113.1563,145.7031 Q112.3438,145.4063 111.5469,145.4063 Q110.6719,145.4063 110.1875,145.7656 Q109.7188,146.125 109.7188,146.7813 Q109.7188,147.2969 110.0625,147.6406 Q110.4063,147.9688 111.5,148.375 L112.5625,148.7813 Q114.0469,149.3281 114.75,150.2344 Q115.4688,151.1406 115.4688,152.5156 Q115.4688,154.3906 114.3594,155.3125 Q113.25,156.2344 111,156.2344 Q110.0781,156.2344 109.1563,156.0156 Q108.2344,155.7969 107.375,155.375 L107.375,152.8438 Q108.3438,153.5313 109.2656,153.875 Q110.1875,154.2188 111.0781,154.2188 Q111.9844,154.2188 112.4844,153.8125 Q112.9844,153.3906 112.9844,152.6563 Q112.9844,152.0938 112.6406,151.6875 Q112.3125,151.2656 111.6875,151.0156 L110.4844,150.5625 Z " fill="#000000"/><text fill="#000000" font-family="sans-serif" font-size="14" lengthAdjust="spacing" textLength="35" x="125" y="154.8467">Hash</text><rect fill="#FFFFFF" height="15.9688" style="stroke:#181818;stroke-width:1.0;stroke-dasharray:2.0,2.0;" width="6" x="168" y="131"/><text fill="#000000" font-family="sans-serif" font-size="12" font-style="italic" lengthAdjust="spacing" textLength="4" x="169" y="143.1387">I</text><line style="stroke:#181818;stroke-width:0.5;" x1="97" x2="170" y1="166" y2="166"/><line style="stroke:#181818;stroke-width:0.5;" x1="97" x2="170" y1="174" y2="174"/></g><!--reverse link trans to heap--><g id="link_trans_heap"><path codeLine="19" d="M244.5,95.92 C244.5,109.14 244.5,122.66 244.5,133.61 " fill="none" id="trans-backto-heap" style="stroke:#181818;stroke-width:1.0;stroke-dasharray:7.0,7.0;"/><polygon fill="none" points="237.5,95.97,244.5,75.97,251.5,95.97,237.5,95.97" style="stroke:#181818;stroke-width:1.0;"/></g><!--reverse link trans to lambda--><g id="link_trans_lambda"><path codeLine="20" d="M293.12,89.19 C309.19,104.45 326.39,120.79 339.87,133.61 " fill="none" id="trans-backto-lambda" style="stroke:#181818;stroke-width:1.0;stroke-dasharray:7.0,7.0;"/><polygon fill="none" points="288.38,94.35,278.71,75.5,298.03,84.2,288.38,94.35" style="stroke:#181818;stroke-width:1.0;"/></g><!--reverse link trans to hash--><g id="link_trans_hash"><path codeLine="21" d="M199.06,89.67 C184.33,104.79 168.63,120.93 156.28,133.61 " fill="none" id="trans-backto-hash" style="stroke:#181818;stroke-width:1.0;stroke-dasharray:7.0,7.0;"/><polygon fill="none" points="193.85,84.98,212.82,75.54,203.88,94.75,193.85,84.98" style="stroke:#181818;stroke-width:1.0;"/></g><!--reverse link eqtrait to hash--><g id="link_eqtrait_hash"><path codeLine="22" d="M134.11,87.81 C133.97,103.5 133.82,120.47 133.7,133.69 " fill="none" id="eqtrait-backto-hash" style="stroke:#181818;stroke-width:1.0;stroke-dasharray:7.0,7.0;"/><polygon fill="none" points="127.11,87.8,134.28,67.86,141.11,87.92,127.11,87.8" style="stroke:#181818;stroke-width:1.0;"/></g><!--reverse link hashtrait to hash--><g id="link_hashtrait_hash"><path codeLine="23" d="M73.08,82.94 C86.92,99.9 102.58,119.09 114.48,133.69 " fill="none" id="hashtrait-backto-hash" style="stroke:#181818;stroke-width:1.0;stroke-dasharray:7.0,7.0;"/><polygon fill="none" points="67.72,87.44,60.5,67.52,78.57,78.59,67.72,87.44" style="stroke:#181818;stroke-width:1.0;"/></g><!--SRC=[oymhIIrAIqnELL3oI2pEK598B5R8039AYX8pIxYuCX7IheLWoTH2J2cFnBoKdDGYi3nGDg_OnjDEePfB0GYgSrDBCl9JQXMqCy2ADDGyDRbgkRYAIufAaqk0MbCJ2o2M0XaGRKYoFecvIIc9OFaSC1D31OgZuR8WmnJqIlLgx23kuOBeHX42QS0b0FCaaX0YK000]--></g></svg>