<?xml version="1.0" encoding="UTF-8" standalone="no"?>
<!-- Created with Inkscape (http://www.inkscape.org/) -->

<svg
   width="197mm"
   height="95mm"
   viewBox="0 0 197 95"
   version="1.1"
   id="svg5"
   inkscape:version="1.2.1 (9c6d41e410, 2022-07-14)"
   sodipodi:docname="Logo.svg"
   xml:space="preserve"
   xmlns:inkscape="http://www.inkscape.org/namespaces/inkscape"
   xmlns:sodipodi="http://sodipodi.sourceforge.net/DTD/sodipodi-0.dtd"
   xmlns="http://www.w3.org/2000/svg"
   xmlns:svg="http://www.w3.org/2000/svg">
    <defs
     id="defs2"><inkscape:path-effect
       effect="bend_path"
       id="path-effect659"
       is_visible="true"
       lpeversion="1"
       bendpath="m 65.670743,86.024469 c 4.717653,-6.13027 11.272978,-8.781376 23.866865,0"
       prop_scale="1"
       scale_y_rel="false"
       vertical="false"
       hide_knot="false"
       bendpath-nodetypes="cc" /><rect
       x="224.45152"
       y="501.47934"
       width="403.16269"
       height="176.31158"
       id="rect398" /><rect
       x="39.399273"
       y="33.137424"
       width="718.32562"
       height="157.44286"
       id="rect113" />
    </defs><g
     id="layer1"><g
       aria-label="Ropes"
       transform="matrix(3.1836158,0,0,3.1836158,-115.00532,-135.51298)"
       id="text111"
       style="font-size:40px;word-spacing:0px;white-space:pre"><path
         id="path276"
         style="fill:#fff001;fill-opacity:1;stroke:#621c00;stroke-opacity:1"
         d="m 56.617915,46.402207 c -2.43137,0 -5.228708,1.346362 -8.392103,4.03917 -2.535946,2.169932 -4.686216,4.568681 -6.450919,7.196129 -0.862745,1.294117 -1.908563,3.241889 -3.13732,5.843194 -1.228757,2.601304 -1.843143,4.601303 -1.843143,5.999994 0,0.562091 0.150271,1.039181 0.450925,1.431337 0.326797,0.444444 0.758229,0.666648 1.294177,0.666648 1.032678,0 1.960745,-0.679749 2.784274,-2.039225 1.398691,-2.588233 2.418396,-4.542412 3.058919,-5.862672 0.535947,-1.098038 0.967217,-1.856289 1.294014,-2.274589 0.627451,-0.784313 1.241837,-1.176495 1.843143,-1.176495 0.562091,0 0.843252,0.333387 0.843252,1.000053 0,0.575163 -0.346524,1.516367 -1.039334,2.823555 -0.679738,1.307188 -1.019532,2.307187 -1.019532,2.999997 0,1.346404 0.941204,2.019585 2.823556,2.019585 2.401024,0 5.086238,-1.341574 8.055451,-4.023424 0.594716,0.433839 1.445393,0.650903 2.552319,0.650903 1.895423,0 3.568603,-0.771226 5.019582,-2.313709 1.464051,-1.542481 2.196189,-3.26805 2.196189,-5.176545 0,-0.431372 -0.09164,-0.849667 -0.274646,-1.254895 -0.406531,-0.704133 -0.634096,-0.989257 -1.195973,-1.313657 -0.522875,-0.287581 -1.202625,-0.431446 -2.039225,-0.431446 -1.86928,0 -3.555597,0.771227 -5.058864,2.313708 -1.490194,1.542483 -2.235308,3.254913 -2.235308,5.137264 0,0.28237 0.02334,0.545046 0.0698,0.788063 -1.336851,1.016953 -2.405918,1.525646 -3.206955,1.525646 -0.875816,0 -1.313818,-0.346363 -1.313818,-1.039173 0,-0.431372 0.235342,-1.104553 0.70593,-2.019584 0.470587,-0.915032 0.705929,-1.60792 0.705929,-2.078507 0,-0.366013 -0.183115,-0.66015 -0.549128,-0.882371 2.143789,-0.48366 4.084992,-1.483659 5.823552,-2.999997 1.973854,-1.738561 2.960716,-3.614238 2.960716,-5.627308 0,-2.614377 -1.575135,-3.92165 -4.725458,-3.92165 z m -0.548966,2.313709 c 0.562091,0 0.84309,0.352931 0.84309,1.058813 0,1.450979 -0.731976,2.84316 -2.196027,4.176492 -1.895423,1.725488 -3.986897,2.803988 -6.274477,3.235361 1.372548,-2.653592 2.666683,-4.666728 3.882368,-6.039276 1.411764,-1.620913 2.66008,-2.43139 3.745046,-2.43139 z m 19.333279,6.529481 c -0.810457,0 -1.607797,0.228773 -2.392109,0.686289 l 0.255004,-0.568607 h -3.274642 l -4.176492,9.098033 c -0.875816,1.921567 -1.914904,2.882315 -3.117517,2.882315 -0.235294,0 -0.483773,-0.05879 -0.745211,-0.176442 -0.274509,-0.130718 -0.444324,-0.196082 -0.509684,-0.196082 -0.496732,0 -0.745211,0.424702 -0.745211,1.274374 0,1.202613 0.712431,1.804024 2.137266,1.804024 0.549019,0 1.058791,-0.09148 1.529379,-0.274483 1.921567,-0.75817 3.320317,-2.098125 4.196133,-4.019691 l 0.470565,-1.039173 c 0.784313,0.653594 1.823563,0.980413 3.117679,0.980413 2.56209,0 4.483749,-1.071931 5.764793,-3.215721 0.745097,-1.2549 1.117573,-2.549036 1.117573,-3.882368 0,-2.235292 -1.209228,-3.352881 -3.627526,-3.352881 z m 10.098085,0 c -1.568625,0 -3.058852,0.79734 -4.470615,2.392109 -1.359476,1.542483 -2.039226,3.104642 -2.039226,4.686339 0,1.084967 0.3595,1.928125 1.078454,2.529432 0.653594,0.562091 1.536003,0.84309 2.647113,0.84309 1.790748,0 2.980196,-0.257142 4.165505,-1.133097 0.589155,0.875901 1.831063,1.133097 3.128667,1.133097 1.032678,0 1.888812,-0.268023 2.56855,-0.803971 0.758169,-0.575163 1.137376,-1.359527 1.137376,-2.35299 0,-0.653594 -0.248479,-1.431389 -0.745211,-2.333349 -0.496731,-0.915032 -0.745048,-1.561937 -0.745048,-1.941022 0,-0.771241 0.450977,-1.157016 1.352936,-1.157016 0.444445,0 1.026149,0.215797 1.745102,0.647169 l 0.588248,-1.313817 c -0.836601,-0.797385 -1.895395,-1.195974 -3.176439,-1.195974 -0.96732,0 -1.810479,0.261455 -2.529432,0.78433 -0.810457,0.588235 -1.215776,1.346324 -1.215776,2.274427 0,0.705882 0.281161,1.542472 0.843252,2.509791 0.562091,0.954247 0.84309,1.647135 0.84309,2.078507 0,0.705882 -0.339956,1.058813 -1.019694,1.058813 -0.405229,0 -0.869181,-0.150433 -1.392056,-0.451087 -0.416222,-0.289086 -0.826259,-0.611264 -1.098095,-0.974244 -1.228743,0.806263 -2.457543,1.209608 -3.686285,1.209608 -0.928103,0 -1.392218,-0.398751 -1.392218,-1.196136 0,-0.483659 0.09164,-0.914929 0.274645,-1.294014 h 5.431387 c 0.418301,-0.69281 0.627367,-1.588195 0.627367,-2.686233 0,-2.209148 -0.973886,-3.313762 -2.921597,-3.313762 z m -11.196017,1.705821 c 0.692809,0 1.039172,0.398751 1.039172,1.196135 0,0.90196 -0.372476,2.01298 -1.117573,3.33324 -0.810457,1.450979 -1.627502,2.176548 -2.451031,2.176548 -0.823529,0 -1.235255,-0.339956 -1.235255,-1.019694 0,-0.8366 0.418295,-1.960758 1.254896,-3.372521 0.901959,-1.542482 1.738549,-2.313708 2.509791,-2.313708 z m 10.941175,0.01964 c 0.444444,0 0.666648,0.352932 0.666648,1.058813 0,0.522876 -0.11759,1.091443 -0.352884,1.705821 h -2.529431 c 0.20915,-0.549019 0.503286,-1.104448 0.882371,-1.666539 0.496732,-0.732025 0.94114,-1.098095 1.333296,-1.098095 z m -22.196115,0.05876 c 0.705881,0 1.058813,0.366069 1.058813,1.098095 0,0.901959 -0.431434,2.006572 -1.294177,3.313761 -0.928104,1.411763 -1.810351,2.117626 -2.646952,2.117626 -0.640522,0 -0.960771,-0.307274 -0.960771,-0.921653 0,-0.810456 0.437839,-1.921476 1.313655,-3.333239 0.941176,-1.516339 1.784334,-2.27459 2.529432,-2.27459 z"
         sodipodi:nodetypes="sccsscscccsscsscscsccscscssssccsssscccssscccscssscccscssssscscscscssccscscssccssccsssscsscssscccssscsscss" /><g
         id="g545"
         inkscape:path-effect="#path-effect659"
         class="UnoptimicedTransforms"
         transform="matrix(1.1119322,0,0,1.1119322,-3.3475222,-43.292562)"
         style="fill:#621c00;fill-opacity:1;stroke:#621c00;stroke-opacity:1"><g
           aria-label="oops, all OOP!"
           transform="matrix(0.2319381,0,0,0.2319381,2.6153604,-36.284461)"
           id="text396"
           style="line-height:1.25;shape-inside:url(#rect398);fill:#621c00;fill-opacity:1;stroke:#621c00;stroke-opacity:1"><g
             id="g502"
             style="fill:#621c00;fill-opacity:1;stroke:#621c00;stroke-opacity:1"><path
               d="m 278.44986,516.78111 c 0.32287,0.32918 0.66365,1.02757 1.06022,2.09627 0.29189,0.83659 0.5942,1.67594 0.90761,2.51907 0.1169,0.29294 0.23782,0.49821 0.36016,0.61607 0.34905,0.35608 0.75123,0.29095 1.21382,-0.17788 0.0197,-0.02 0.11024,-0.18695 0.2754,-0.49946 0.1332,-0.22524 0.2425,-0.3047 0.3256,-0.24012 0.27946,0.18414 0.49159,0.54231 0.64648,1.07105 0.3645,1.13254 0.15017,2.10028 -0.64555,2.95315 -0.70427,0.77402 -1.42596,1.10764 -2.19335,0.98566 -0.0991,1.04286 -0.60925,2.10311 -1.53013,3.22829 -1.31916,1.6118 -2.57677,1.99546 -3.82939,1.04029 -0.9342,-0.71236 -1.41534,-1.69085 -1.40632,-2.95242 0.0127,-1.20062 0.45797,-2.3428 1.33833,-3.38572 0.91872,-1.08837 1.85944,-1.6755 2.77658,-1.77118 -0.40988,-1.40527 -0.74211,-2.25747 -1.06172,-2.55637 -0.38128,-0.35657 -0.85067,-0.24476 -1.39538,0.35445 -0.96502,1.06161 -1.33225,2.22921 -1.11239,3.4508 -0.69355,0.0816 -1.3888,0.17188 -2.08511,0.27028 -0.004,-1.90147 0.71324,-3.69019 2.1595,-5.26323 1.91064,-2.07813 3.36606,-2.58478 4.19562,-1.73902 1e-5,1e-5 2e-5,2e-5 2e-5,2e-5 z m -0.0525,7.43761 c -0.58194,-0.17116 -1.17907,0.0863 -1.77233,0.78381 -0.31044,0.36501 -0.4605,0.78977 -0.44876,1.26838 0.0118,0.47891 0.19282,0.85778 0.53744,1.13936 0.46719,0.38172 0.93682,0.27851 1.41692,-0.2937 0.67931,-0.80963 0.76737,-1.76372 0.26673,-2.89785 z"
               id="path412"
               inkscape:original-d="m 282.96102,525.31475 q 0,0.68628 -0.62745,2.2353 -0.50981,1.19608 -1.03922,2.41176 -0.17647,0.43137 -0.17647,0.68628 -0.0196,0.74509 0.90196,0.74509 0.0392,0 0.5098,-0.15686 0.35295,-0.098 0.37255,0.0588 0.098,0.49019 -0.27451,1.21568 -0.7647,1.58824 -2.45098,1.58824 -1.5098,0.0196 -2.09804,-0.96079 -1.19607,0.92157 -3.2549,0.92157 -2.96078,0 -2.96078,-2.35294 0,-1.76471 1.33333,-2.92157 1.27451,-1.09804 3.07843,-1.09804 1.88235,0 2.80392,0.92157 1.01961,-1.86274 1.01961,-2.5098 0,-0.78432 -1.03921,-0.78432 -1.84314,0 -2.88236,1.43138 l -1.33333,-1.43138 q 1.90196,-1.80392 4.58823,-1.80392 3.52942,0 3.52942,1.80392 z m -4.80393,5.07843 q -0.35294,-0.82352 -1.58823,-0.82352 -0.64706,0 -1.13726,0.47058 -0.49019,0.47059 -0.49019,1.13726 0,0.90196 1.03921,0.90196 1.47059,0 2.17647,-1.68628 z"
               style="fill:#621c00;fill-opacity:1;stroke:#621c00;stroke-opacity:1" /><path
               d="m 282.62095,503.14793 c 0.24072,4.81195 0.97658,9.42641 2.09254,13.86123 0.1387,0.53378 0.30704,0.90876 0.49475,1.12498 0.26581,0.30618 0.58603,0.29242 0.96503,-0.0289 0.0326,-0.0276 0.14339,-0.18174 0.34143,-0.46536 0.13959,-0.20079 0.24888,-0.26426 0.3255,-0.19243 0.21682,0.17746 0.39559,0.51819 0.54629,1.02054 0.10721,0.38562 0.0814,0.83873 -0.0686,1.36224 -0.15674,0.59812 -0.43214,1.07536 -0.8365,1.44201 -1.18503,1.09198 -2.32145,1.13556 -3.45218,-0.002 -0.43958,-0.44986 -0.97589,-1.57051 -1.49249,-3.35089 -1.11352,-3.90547 -1.95431,-7.95021 -2.44182,-12.14656 1.13996,-0.90392 2.31486,-1.78031 3.52604,-2.6254 z"
               id="path414"
               inkscape:original-d="m 292.51002,517.4324 -5.60784,12.29412 q -0.33333,0.7451 -0.33333,1.17647 0,0.60784 0.70588,0.60784 0.0588,0 0.52941,-0.13725 0.33333,-0.098 0.35294,0.0588 0.0784,0.41177 -0.21569,1.13726 -0.23529,0.54902 -0.90196,1 -0.74509,0.52941 -1.54902,0.52941 -2.39215,0.0196 -2.41176,-2.37255 0,-0.96079 1.13725,-3.45098 l 5,-10.82353 z"
               style="fill:#621c00;fill-opacity:1;stroke:#621c00;stroke-opacity:1" /><path
               d="m 289.69965,499.00082 c -0.45761,4.51997 -0.41463,8.9635 0.0988,13.24033 0.0323,0.27282 0.0663,0.54496 0.10193,0.81643 0.0759,0.54546 0.20043,0.93702 0.36162,1.17379 0.2224,0.32668 0.52975,0.36009 0.92512,0.1137 0,0 0,0 0,0 0.0105,-0.007 0.0211,-0.0134 0.0317,-0.0204 0.0352,-0.0232 0.15995,-0.16046 0.38629,-0.41458 0.15958,-0.17993 0.27431,-0.22803 0.34129,-0.14699 0.19281,0.20417 0.32875,0.56404 0.42115,1.0793 0.0527,0.33207 0.009,0.6986 -0.12552,1.10097 0,0 0,0 0,0 -0.0259,0.0752 -0.0551,0.15169 -0.0874,0.22949 -0.2204,0.56732 -0.54183,0.99952 -0.9771,1.30812 -1.27446,0.91938 -2.39351,0.83534 -3.39688,-0.4132 -0.3877,-0.49104 -0.80969,-1.65856 -1.12976,-3.47846 -0.41311,-2.41473 -0.70235,-4.882 -0.84994,-7.40455 -0.0876,-1.65213 -0.10838,-3.32482 -0.0608,-5.01335 1.29064,-0.77503 2.61162,-1.4992 3.95948,-2.17058 z"
               id="path416"
               inkscape:original-d="m 298.51001,517.4324 -5.60785,12.29412 q -0.33333,0.7451 -0.33333,1.17647 0,0.60784 0.70588,0.60784 0.0588,0 0.52941,-0.13725 0.33334,-0.098 0.35295,0.0588 0.0784,0.41177 -0.21569,1.13726 -0.23529,0.54902 -0.90196,1 -0.7451,0.52941 -1.54902,0.52941 -2.39216,0.0196 -2.41177,-2.37255 0,-0.96079 1.13726,-3.45098 l 5,-10.82353 z"
               style="fill:#621c00;fill-opacity:1;stroke:#621c00;stroke-opacity:1" /><path
               d="m 318.03428,496.81089 c -0.19763,4.96824 -1.95417,9.0815 -4.41455,12.63678 -0.72093,1.0384 -1.47101,1.97537 -2.2524,2.81751 0,10e-6 0,10e-6 0,10e-6 -2.09623,2.27473 -4.3133,3.69132 -7.19074,4.63199 -1.775,0.58026 -3.32008,0.64758 -4.82184,0.1072 -1.38525,-0.51025 -2.53131,-1.46635 -3.31728,-2.97064 -1.01213,-1.93714 -1.43816,-4.50652 -0.75961,-7.6705 0.71668,-3.28863 2.41783,-6.71316 5.37718,-9.89187 2.73916,-2.93073 5.85131,-4.77776 8.85108,-5.56403 0.91111,-0.21202 1.80209,-0.32509 2.6628,-0.34346 1.85805,-0.0396 3.23556,0.28317 4.10421,0.88493 1.30868,0.9001 1.86702,2.7006 1.76115,5.36208 z m -4.71712,-2.57022 c -0.031,-0.94396 -0.40765,-1.41674 -1.14429,-1.39704 -0.64381,0.0172 -1.46443,0.30451 -2.42119,0.88159 -0.85673,0.52674 -1.81544,1.28171 -2.81681,2.27273 -2.12127,2.06881 -3.75726,4.55005 -4.87647,7.33962 -1.31949,3.27115 -1.3732,5.86769 -0.77907,7.56845 0.18959,0.54271 0.52052,0.93782 0.9801,1.19704 0.45988,0.25938 0.94915,0.30603 1.48457,0.14682 1.69667,-0.5045 3.09507,-1.89017 4.63306,-4.24362 0.80475,-1.22986 1.56547,-2.5713 2.26856,-4.02283 0,0 0,0 0,0 0,0 0,0 0,0 0.31137,-0.64147 0.60878,-1.30442 0.89071,-1.98938 1.1715,-2.86608 1.85822,-5.39331 1.78083,-7.75338 z"
               id="path418"
               inkscape:original-d="m 320.09826,520.98142 q 0,7.58824 -3.92157,12.80392 -4.33333,5.7451 -11.64706,5.7451 -3.33333,0 -5.23529,-1.68627 -1.76471,-1.58824 -1.76471,-4.13726 0,-3.31373 2.4902,-7.23529 2.60784,-4.07844 6.72549,-7.54902 5,-4.19608 8.88235,-4.19608 2.01961,0 3,0.88235 1.47059,1.31373 1.47059,5.37255 z m -3.72549,-2.52941 q 0,-1.43137 -0.82353,-1.43137 -1.35294,0 -4.11765,2.70588 -2.70588,2.60784 -5.03921,6.19608 -2.76471,4.23529 -2.76471,7 0,0.86274 0.54902,1.45098 0.54902,0.58823 1.43137,0.58823 2.78432,0 5.52942,-3.13725 2.07843,-2.37255 3.47058,-5.64706 1.76471,-4.17647 1.76471,-7.72549 z"
               style="fill:#621c00;fill-opacity:1;stroke:#621c00;stroke-opacity:1" /><g
               id="g506"
               style="fill:#621c00;fill-opacity:1;stroke:#621c00;stroke-opacity:1"><path
                 d="m 343.84621,502.49965 c -1.86321,4.71651 -4.88759,8.09025 -8.57083,10.45176 -4.10978,2.62597 -8.03186,3.29464 -12.40188,2.60946 -1.99533,-0.31284 -3.48636,-0.97161 -4.59464,-2.1318 -1.02526,-1.08972 -1.56763,-2.44532 -1.52612,-4.11953 0.0536,-2.16337 0.93983,-4.56489 2.99683,-6.98913 2.1564,-2.52438 5.11215,-4.68131 8.92463,-6.28768 4.61653,-1.9344 8.82422,-2.24434 12.02116,-1.23838 1.66306,0.52331 2.78408,1.22644 3.36436,2.05743 0.8779,1.24775 0.78252,3.12653 -0.21351,5.64787 z m -3.43363,-3.90639 c 0.30744,-0.89717 0.13499,-1.45576 -0.52942,-1.66593 -1.08765,-0.34404 -3.05053,-0.008 -5.70983,1.14221 -2.59808,1.10096 -5.01465,2.65369 -7.18625,4.64373 -2.55981,2.33711 -3.7996,4.5347 -4.0426,6.30439 -0.0768,0.55912 0.0427,1.05369 0.34745,1.48795 0.30486,0.4344 0.7391,0.69678 1.31253,0.7975 1.80885,0.31771 3.78682,-0.28374 6.17888,-1.77838 1.80865,-1.12863 3.5557,-2.54672 5.2205,-4.29194 2.1221,-2.23546 3.6421,-4.40236 4.40874,-6.63953 z"
                 id="path420"
                 inkscape:original-d="m 341.88255,520.98142 q 0,7.58824 -3.92157,12.80392 -4.33334,5.7451 -11.64706,5.7451 -3.33333,0 -5.2353,-1.68627 -1.7647,-1.58824 -1.7647,-4.13726 0,-3.31373 2.4902,-7.23529 2.60784,-4.07844 6.72549,-7.54902 5,-4.19608 8.88235,-4.19608 2.01961,0 3,0.88235 1.47059,1.31373 1.47059,5.37255 z m -3.72549,-2.52941 q 0,-1.43137 -0.82353,-1.43137 -1.35294,0 -4.11765,2.70588 -2.70588,2.60784 -5.03922,6.19608 -2.7647,4.23529 -2.7647,7 0,0.86274 0.54902,1.45098 0.54902,0.58823 1.43137,0.58823 2.78431,0 5.52941,-3.13725 2.07843,-2.37255 3.47059,-5.64706 1.76471,-4.17647 1.76471,-7.72549 z"
                 style="fill:#621c00;fill-opacity:1;stroke:#621c00;stroke-opacity:1" /></g><path
               d="m 370.42843,513.82093 c -0.92195,1.46252 -2.61102,2.37793 -5.04691,2.81407 -2.09833,0.38432 -4.48119,0.24976 -7.18921,-0.3476 -1.5905,-0.3475 -3.76335,-1.01358 -7.10032,-1.98629 -0.75612,-0.22688 -1.49856,-0.19321 -2.21931,0.0977 -0.49084,0.19651 -1.27031,0.6709 -2.30599,1.42789 -1.21417,0.89261 -3.0693,2.18847 -5.43662,3.96329 -1.32713,0.89402 -2.43676,1.13772 -3.37855,0.73044 -0.48928,-0.2116 -0.79933,-0.58318 -0.93813,-1.12154 -0.13364,-0.47918 -0.10285,-0.98142 0.0986,-1.50553 0.49133,-1.27847 1.78847,-2.94531 4.004,-4.84723 2.10129,-1.801 3.99081,-3.12851 5.5549,-3.99471 2.89865,-1.60429 6.40403,-2.71791 10.51153,-3.2245 4.59074,-0.5678 8.22102,0.008 10.66159,1.4907 3.35844,2.04013 4.2053,4.26528 2.78445,6.5033 z m -4.23032,-3.33407 c 0.37391,-0.61431 0.26952,-1.1017 -0.32119,-1.45724 -1.12335,-0.67613 -2.87792,-0.74848 -5.20321,-0.16176 -1.66685,0.41199 -4.0643,1.45299 -7.02352,3.17451 2.22802,0.66051 4.50266,0.94153 6.8686,0.83428 2.85425,-0.11539 4.75765,-0.87552 5.67932,-2.38979 z"
               id="path422"
               inkscape:original-d="m 365.64723,518.6873 q 0.0196,2.54902 -2.31373,5 -2,2.11765 -5.41177,3.35294 -1.88235,0.68628 -6.23529,1.64706 -1.01961,0.21569 -1.70588,1.07843 -0.47059,0.58824 -1.29412,2.27451 -0.96078,1.9804 -3.05882,5.86275 -1.2353,2.03921 -2.78432,2.03921 -0.80392,0 -1.29411,-0.66666 -0.45098,-0.58824 -0.45098,-1.43137 0,-2.07844 1.84313,-6 1.7451,-3.70589 3.13726,-5.84314 2.56863,-3.94118 6.70588,-7.39216 4.62745,-3.86274 8.09804,-3.86274 4.7451,0 4.76471,3.94117 z m -4.43138,-0.54902 q 0,-1.05882 -0.84313,-1.05882 -1.60785,0 -3.7451,2.43137 -1.54902,1.7451 -3.88236,6.03922 2.92157,-0.66667 5.43138,-2.54902 3.03921,-2.2549 3.03921,-4.86275 z"
               style="fill:#621c00;fill-opacity:1;stroke:#621c00;stroke-opacity:1" /><path
               d="m 379.77614,519.26998 c -0.50802,0.73049 -1.16372,1.31345 -1.9668,1.75354 -1.44475,0.72971 -3.80971,1.96009 -6.72593,3.56172 -1.0845,0.59232 -2.61474,1.50384 -4.52541,2.72394 -0.57504,0.36992 -1.39034,0.87404 -2.52972,1.57706 -0.80199,0.44442 -1.56239,0.43643 -2.28665,-0.0251 -0.74719,-0.47611 -0.80192,-1.21649 -0.15621,-2.22559 0.57807,-0.90339 1.90646,-2.09887 3.99448,-3.52896 1.70177,-1.16239 3.31283,-2.09626 4.82629,-2.80583 1.70533,-0.80515 3.50462,-1.45095 5.39353,-1.93253 0.89645,-0.22554 1.4518,-0.4921 1.66732,-0.80721 0.20796,-0.30407 0.15542,-0.56817 -0.15997,-0.79132 -0.46587,-0.32962 -1.40087,-0.39173 -2.80061,-0.16694 -0.005,-0.49323 -0.0117,-0.98722 -0.0195,-1.48197 2.45456,-0.53461 4.17137,-0.42576 5.13902,0.27286 0.66604,0.48088 0.95809,1.14265 0.88168,1.97925 -0.0536,0.64226 -0.29823,1.27404 -0.7315,1.89705 z m -18.40145,12.49941 c -0.59006,0.89926 -1.54441,0.92562 -2.8595,0.10065 -0.90426,-0.56727 -1.15319,-1.17385 -0.74089,-1.82772 0.28403,-0.45046 0.72856,-0.69965 1.3366,-0.74298 0.54991,-0.0326 1.07656,0.11039 1.57767,0.42795 0.9548,0.60504 1.18052,1.28863 0.68612,2.0421 z"
               id="path424"
               inkscape:original-d="m 374.76485,517.86377 q 0,1.33334 -0.52941,2.56863 -1.03922,2.23529 -3.05883,6.72549 -0.7451,1.64706 -1.96078,4.72549 -0.35294,0.90196 -1.09804,2.66667 -0.56863,1.19608 -1.72549,1.19608 -1.19608,0 -1.19608,-1.76471 0,-1.58824 1.27451,-5.03922 1.03922,-2.80392 2.15686,-4.92156 1.2549,-2.39216 2.90196,-4.58824 0.78432,-1.03922 0.78432,-1.60784 0,-0.54902 -0.4902,-0.54902 -0.72549,0 -2.03922,1.45098 l -0.70588,-1.19608 q 2.19608,-2.70588 3.70588,-2.70588 1.03922,0 1.56863,1.07843 0.41177,0.82353 0.41177,1.96078 z m -7.21569,20.4902 q 0,1.58823 -2.13725,1.58823 -1.47059,0 -1.47059,-1.13725 0,-0.78431 0.66666,-1.31373 0.60785,-0.47058 1.41177,-0.47058 1.52941,0 1.52941,1.33333 z"
               style="fill:#621c00;fill-opacity:1;stroke:#621c00;stroke-opacity:1" /></g></g></g></g></g></svg>
