<?xml version="1.0" encoding="UTF-8" standalone="no"?>
<!-- Created with Inkscape (http://www.inkscape.org/) -->

<svg
   width="197mm"
   height="95mm"
   viewBox="0 0 197 95"
   version="1.1"
   id="svg5"
   inkscape:version="1.2.1 (9c6d41e410, 2022-07-14)"
   sodipodi:docname="Logo.svg"
   xml:space="preserve"
   xmlns:inkscape="http://www.inkscape.org/namespaces/inkscape"
   xmlns:sodipodi="http://sodipodi.sourceforge.net/DTD/sodipodi-0.dtd"
   xmlns="http://www.w3.org/2000/svg"
   xmlns:svg="http://www.w3.org/2000/svg"><sodipodi:namedview
   id="namedview705"
   pagecolor="#ffffff"
   bordercolor="#111111"
   borderopacity="1"
   inkscape:showpageshadow="0"
   inkscape:pageopacity="0"
   inkscape:pagecheckerboard="1"
   inkscape:deskcolor="#d1d1d1"
   inkscape:document-units="mm"
   showgrid="false"
   inkscape:zoom="1.4142136"
   inkscape:cx="786.65629"
   inkscape:cy="-87.681241"
   inkscape:window-width="3836"
   inkscape:window-height="2085"
   inkscape:window-x="1080"
   inkscape:window-y="28"
   inkscape:window-maximized="1"
   inkscape:current-layer="text111" />
    <defs
   id="defs2"><inkscape:path-effect
   effect="bend_path"
   id="path-effect659"
   is_visible="true"
   lpeversion="1"
   bendpath="m 65.670743,86.024469 c 7.105155,-6.695049 17.153962,-10.17256 23.866865,0"
   prop_scale="1.6114545"
   scale_y_rel="false"
   vertical="false"
   hide_knot="false"
   bendpath-nodetypes="cc" /><rect
   x="224.45152"
   y="501.47934"
   width="403.16269"
   height="176.31158"
   id="rect398" /><rect
   x="39.399273"
   y="33.137424"
   width="718.32562"
   height="157.44286"
   id="rect113" />
    <rect
   x="9.8497181"
   y="7.8934221"
   width="731.25891"
   height="344.36838"
   id="rect360-9" /><rect
   x="9.8497181"
   y="7.8934221"
   width="731.25891"
   height="344.36838"
   id="rect360" /></defs><g
   aria-label="Ropes"
   transform="matrix(3.1836158,0,0,3.1836158,-115.00532,-135.51298)"
   id="text111"
   style="font-size:40px;word-spacing:0px;white-space:pre"><g
     id="g545"
     transform="matrix(0.88623052,0,0,0.88623052,14.635416,-23.083624)"
     style="fill:#621c00;fill-opacity:1;stroke:#621c00;stroke-opacity:1"
     inkscape:path-effect="#path-effect659"
     class="UnoptimicedTransforms"><g
       aria-label="oops, all OOP!"
       transform="matrix(0.2319381,0,0,0.2319381,2.6153604,-36.284461)"
       id="text396"
       style="line-height:1.25;shape-inside:url(#rect398);fill:#621c00;fill-opacity:1;stroke:#621c00;stroke-opacity:1"><g
         id="g502"
         style="fill:#621c00;fill-opacity:1;stroke:#621c00;stroke-opacity:1"><path
           d="m 279.35003,516.51552 c 0.464,0.58857 1.00801,1.69137 1.67137,3.3177 0.49532,1.26505 1.00138,2.53623 1.51896,3.81422 0.19028,0.44768 0.37404,0.7786 0.5486,0.9926 0.49959,0.63598 1.01799,0.73301 1.55655,0.30239 0.023,-0.0184 0.11862,-0.20413 0.28977,-0.55698 0.14172,-0.24812 0.27177,-0.30944 0.38862,-0.1851 0.38772,0.37244 0.71349,0.95371 0.98706,1.74146 0.62822,1.70095 0.47605,2.92087 -0.4672,3.69473 -0.83186,0.70992 -1.75092,0.80525 -2.77354,0.28035 -0.0208,1.32622 -0.59015,2.46704 -1.71471,3.45939 -1.61814,1.42791 -3.27744,1.24696 -5.01541,-0.5858 -1.30324,-1.37432 -2.01746,-2.85329 -2.10932,-4.46487 -0.082,-1.53207 0.40956,-2.78604 1.46892,-3.72369 1.10592,-0.97886 2.27096,-1.31592 3.46245,-1.01535 -0.69993,-2.05899 -1.24274,-3.35584 -1.6959,-3.90135 -0.54269,-0.6533 -1.13734,-0.71479 -1.77834,-0.1705 -1.13586,0.9645 -1.49836,2.32043 -1.08689,4.02281 -0.90766,-0.22765 -1.81847,-0.44712 -2.73183,-0.65844 -0.18004,-2.46977 0.58357,-4.46785 2.27677,-5.90026 2.23519,-1.89093 3.9995,-1.99132 5.20404,-0.46335 10e-6,10e-6 2e-5,2e-5 3e-5,4e-5 z m 0.88186,9.96425 c -0.7848,-0.50187 -1.54011,-0.44336 -2.25442,0.18229 -0.37366,0.32727 -0.53164,0.80691 -0.47165,1.43332 0.06,0.62646 0.33388,1.20465 0.81648,1.73786 0.65314,0.72165 1.26949,0.82249 1.85084,0.31323 0.82288,-0.72084 0.84002,-1.93299 0.0588,-3.6667 z"
           id="path412"
           style="fill:#621c00;fill-opacity:1;stroke:#621c00;stroke-opacity:1"
           inkscape:original-d="m 282.96102,525.31475 q 0,0.68628 -0.62745,2.2353 -0.50981,1.19608 -1.03922,2.41176 -0.17647,0.43137 -0.17647,0.68628 -0.0196,0.74509 0.90196,0.74509 0.0392,0 0.5098,-0.15686 0.35295,-0.098 0.37255,0.0588 0.098,0.49019 -0.27451,1.21568 -0.7647,1.58824 -2.45098,1.58824 -1.5098,0.0196 -2.09804,-0.96079 -1.19607,0.92157 -3.2549,0.92157 -2.96078,0 -2.96078,-2.35294 0,-1.76471 1.33333,-2.92157 1.27451,-1.09804 3.07843,-1.09804 1.88235,0 2.80392,0.92157 1.01961,-1.86274 1.01961,-2.5098 0,-0.78432 -1.03921,-0.78432 -1.84314,0 -2.88236,1.43138 l -1.33333,-1.43138 q 1.90196,-1.80392 4.58823,-1.80392 3.52942,0 3.52942,1.80392 z m -4.80393,5.07843 q -0.35294,-0.82352 -1.58823,-0.82352 -0.64706,0 -1.13726,0.47058 -0.49019,0.47059 -0.49019,1.13726 0,0.90196 1.03921,0.90196 1.47059,0 2.17647,-1.68628 z" /><path
           d="m 281.90682,499.00413 c 1.43393,6.95115 3.29355,13.76454 5.49109,20.4165 0.27011,0.80249 0.54825,1.39271 0.82453,1.76921 0.3904,0.53202 0.79736,0.64019 1.22146,0.3323 0.0354,-0.0257 0.15077,-0.2018 0.34892,-0.52736 0.13997,-0.23146 0.26579,-0.28147 0.37593,-0.15141 0.30638,0.33091 0.59578,0.87963 0.87785,1.64632 0.20569,0.58506 0.255,1.21754 0.15406,1.89699 -0.0967,0.78198 -0.37071,1.34265 -0.83238,1.68999 -1.35067,1.04258 -2.83536,0.58716 -4.45419,-1.44723 -0.63536,-0.80775 -1.48175,-2.56277 -2.42167,-5.23219 -2.0353,-5.84393 -3.82407,-11.82087 -5.30488,-17.91415 1.21936,-0.84716 2.45921,-1.67415 3.71928,-2.47897 z"
           id="path414"
           style="fill:#621c00;fill-opacity:1;stroke:#621c00;stroke-opacity:1"
           inkscape:original-d="m 292.51002,517.4324 -5.60784,12.29412 q -0.33333,0.7451 -0.33333,1.17647 0,0.60784 0.70588,0.60784 0.0588,0 0.52941,-0.13725 0.33333,-0.098 0.35294,0.0588 0.0784,0.41177 -0.21569,1.13726 -0.23529,0.54902 -0.90196,1 -0.74509,0.52941 -1.54902,0.52941 -2.39215,0.0196 -2.41176,-2.37255 0,-0.96079 1.13725,-3.45098 l 5,-10.82353 z" /><path
           d="m 289.01945,494.88981 c 0.88447,7.01264 2.25672,13.90791 4.02895,20.66216 0.21873,0.81505 0.45918,1.41988 0.71015,1.8118 0.35481,0.55409 0.75062,0.68757 1.18758,0.40966 0.0365,-0.0232 0.1608,-0.1906 0.37605,-0.50073 0.15215,-0.22059 0.27948,-0.26176 0.38031,-0.12528 0.2825,0.34914 0.53468,0.91312 0.76755,1.69315 0.16827,0.59452 0.18012,1.2256 0.0426,1.89353 -0.13909,0.77006 -0.43889,1.30907 -0.9118,1.6248 -1.38362,0.94903 -2.82485,0.40989 -4.32006,-1.71556 -0.58483,-0.8413 -1.33198,-2.64396 -2.10864,-5.35856 -1.67895,-5.9448 -3.06266,-12.00647 -4.08972,-18.16837 1.29245,-0.7667 2.60488,-1.50957 3.93703,-2.2266 z"
           id="path416"
           style="fill:#621c00;fill-opacity:1;stroke:#621c00;stroke-opacity:1"
           inkscape:original-d="m 298.51001,517.4324 -5.60785,12.29412 q -0.33333,0.7451 -0.33333,1.17647 0,0.60784 0.70588,0.60784 0.0588,0 0.52941,-0.13725 0.33334,-0.098 0.35295,0.0588 0.0784,0.41177 -0.21569,1.13726 -0.23529,0.54902 -0.90196,1 -0.7451,0.52941 -1.54902,0.52941 -2.39216,0.0196 -2.41177,-2.37255 0,-0.96079 1.13726,-3.45098 l 5,-10.82353 z" /><path
           d="m 318.62722,490.50363 c 1.28596,7.8824 0.72733,15.13786 -0.46814,20.96897 -1.35989,6.5925 -3.33453,10.38085 -7.25711,12.21433 -1.78336,0.83357 -3.56996,0.77877 -5.4839,-0.23693 -1.77731,-0.95926 -3.39813,-2.5997 -4.73846,-4.99161 -1.73281,-3.09233 -2.91404,-6.96837 -3.09847,-11.60112 -0.17924,-4.82724 0.62565,-9.73675 2.72007,-14.5455 2.55718,-5.83646 6.26045,-9.30874 10.05183,-10.26218 1.97593,-0.49689 3.57248,-0.35294 4.70982,0.37422 1.73123,1.09772 2.86352,3.78397 3.56436,8.07982 z m -5.83077,-2.92736 c -0.34516,-1.48333 -0.90112,-2.13792 -1.67713,-1.94236 -1.26566,0.31894 -2.86456,2.23141 -4.36698,5.73484 -1.48529,3.39162 -2.36661,7.23679 -2.63685,11.48931 -0.32421,4.98204 0.42606,8.88557 1.63956,11.53196 0.38469,0.83892 0.88081,1.46424 1.47274,1.88307 0.59285,0.41948 1.1484,0.51119 1.68047,0.27858 1.68436,-0.73638 2.69924,-2.92569 3.47913,-6.70261 0.58718,-2.83633 0.98367,-6.10974 1.16071,-9.74458 0.21921,-4.67133 0.10909,-8.82913 -0.75165,-12.52821 z"
           id="path418"
           style="fill:#621c00;fill-opacity:1;stroke:#621c00;stroke-opacity:1"
           inkscape:original-d="m 320.09826,520.98142 q 0,7.58824 -3.92157,12.80392 -4.33333,5.7451 -11.64706,5.7451 -3.33333,0 -5.23529,-1.68627 -1.76471,-1.58824 -1.76471,-4.13726 0,-3.31373 2.4902,-7.23529 2.60784,-4.07844 6.72549,-7.54902 5,-4.19608 8.88235,-4.19608 2.01961,0 3,0.88235 1.47059,1.31373 1.47059,5.37255 z m -3.72549,-2.52941 q 0,-1.43137 -0.82353,-1.43137 -1.35294,0 -4.11765,2.70588 -2.70588,2.60784 -5.03921,6.19608 -2.76471,4.23529 -2.76471,7 0,0.86274 0.54902,1.45098 0.54902,0.58823 1.43137,0.58823 2.78432,0 5.52942,-3.13725 2.07843,-2.37255 3.47058,-5.64706 1.76471,-4.17647 1.76471,-7.72549 z" /><g
           id="g506"
           style="fill:#621c00;fill-opacity:1;stroke:#621c00;stroke-opacity:1"><path
             d="m 348.83818,492.87506 c -2.62336,7.48768 -6.71957,13.73588 -10.25091,18.42392 -4.06855,5.38832 -6.97722,8.07238 -10.4393,8.17723 -0.82312,0.0249 -1.56498,-0.16119 -2.26798,-0.57227 -0.7312,-0.41429 -1.41839,-1.02213 -2.06898,-1.83302 -1.2334,-1.5577 -2.1837,-3.64977 -2.65889,-6.32051 -0.61389,-3.45029 -0.51015,-7.45803 0.90617,-11.86285 0.39144,-1.2063 0.85724,-2.39617 1.40368,-3.56624 0,0 0,0 0,0 1.56784,-3.28653 3.83267,-6.38167 6.89279,-9.07859 5.03431,-4.41755 10.4515,-5.93013 14.64072,-4.95057 2.18242,0.51031 3.66705,1.45123 4.40754,2.66898 1.13688,1.85417 0.87967,4.79098 -0.56484,8.91392 z m -4.09214,-5.47331 c 0.37182,-1.48765 0.14765,-2.34303 -0.70128,-2.53951 -1.38204,-0.31987 -3.86393,0.64256 -6.90219,3.17957 -2.97286,2.44383 -5.47807,5.63835 -7.42635,9.47977 -2.28454,4.48737 -2.9421,8.44209 -2.78748,11.34274 0.0493,0.92463 0.26682,1.69627 0.6258,2.31313 0.3601,0.61879 0.79152,0.92169 1.315,0.91772 1.66041,-0.0126 3.2782,-1.61661 5.51102,-4.75286 1.66586,-2.33744 3.46134,-5.16939 5.25713,-8.35548 2.31536,-4.12517 4.178,-7.86285 5.10835,-11.58508 z"
             id="path420"
             style="fill:#621c00;fill-opacity:1;stroke:#621c00;stroke-opacity:1"
             inkscape:original-d="m 341.88255,520.98142 q 0,7.58824 -3.92157,12.80392 -4.33334,5.7451 -11.64706,5.7451 -3.33333,0 -5.2353,-1.68627 -1.7647,-1.58824 -1.7647,-4.13726 0,-3.31373 2.4902,-7.23529 2.60784,-4.07844 6.72549,-7.54902 5,-4.19608 8.88235,-4.19608 2.01961,0 3,0.88235 1.47059,1.31373 1.47059,5.37255 z m -3.72549,-2.52941 q 0,-1.43137 -0.82353,-1.43137 -1.35294,0 -4.11765,2.70588 -2.70588,2.60784 -5.03922,6.19608 -2.7647,4.23529 -2.7647,7 0,0.86274 0.54902,1.45098 0.54902,0.58823 1.43137,0.58823 2.78431,0 5.52941,-3.13725 2.07843,-2.37255 3.47059,-5.64706 1.76471,-4.17647 1.76471,-7.72549 z" /></g><path
           d="m 378.44879,509.14271 c -2.05672,1.83607 -4.77723,2.78778 -8.06324,3.17282 -2.83463,0.34311 -5.65058,0.0697 -8.54952,-0.67638 -1.60236,-0.4077 -4.02828,-1.29457 -7.30923,-2.21093 -0.76445,-0.22344 -1.6093,-0.0663 -2.50787,0.47322 -0.60404,0.36077 -1.64183,1.18796 -2.99162,2.49655 -1.05402,1.02557 -2.59758,2.54403 -4.26206,4.39576 0,0 0,10e-6 0,10e-6 -0.75245,0.84433 -1.55344,1.78415 -2.37994,2.82032 -1.45967,1.72884 -2.40503,2.50767 -3.03833,2.26543 -0.32867,-0.12572 -0.47419,-0.55581 -0.45679,-1.30527 0.007,-0.6618 0.14146,-1.42905 0.42305,-2.28638 0.67113,-2.04332 2.14274,-5.12039 4.72904,-8.56127 2.48285,-3.29974 4.87458,-5.69839 6.88448,-7.27475 0.51514,-0.40384 1.04822,-0.79096 1.59979,-1.15986 3.42114,-2.29006 7.48975,-3.8587 12.19784,-4.48875 6.10868,-0.81977 10.8668,0.49179 13.43948,2.91847 3.60705,3.40235 3.41616,6.63891 0.28492,9.42101 z m -3.7287,-5.15154 c 0.79315,-0.81369 0.89807,-1.50767 0.28621,-2.07577 -1.15511,-1.07252 -3.46324,-1.36848 -6.68995,-0.62534 -2.28439,0.51481 -5.79906,1.97313 -9.95209,4.65276 2.37646,0.77078 4.97943,1.08593 7.9604,0.99032 3.58793,-0.0958 6.42867,-0.9243 8.39543,-2.94197 z"
           id="path422"
           style="fill:#621c00;fill-opacity:1;stroke:#621c00;stroke-opacity:1"
           inkscape:original-d="m 365.64723,518.6873 q 0.0196,2.54902 -2.31373,5 -2,2.11765 -5.41177,3.35294 -1.88235,0.68628 -6.23529,1.64706 -1.01961,0.21569 -1.70588,1.07843 -0.47059,0.58824 -1.29412,2.27451 -0.96078,1.9804 -3.05882,5.86275 -1.2353,2.03921 -2.78432,2.03921 -0.80392,0 -1.29411,-0.66666 -0.45098,-0.58824 -0.45098,-1.43137 0,-2.07844 1.84313,-6 1.7451,-3.70589 3.13726,-5.84314 2.56863,-3.94118 6.70588,-7.39216 4.62745,-3.86274 8.09804,-3.86274 4.7451,0 4.76471,3.94117 z m -4.43138,-0.54902 q 0,-1.05882 -0.84313,-1.05882 -1.60785,0 -3.7451,2.43137 -1.54902,1.7451 -3.88236,6.03922 2.92157,-0.66667 5.43138,-2.54902 3.03921,-2.2549 3.03921,-4.86275 z" /><path
           d="m 387.17178,518.41387 c -0.30456,0.33428 -2.47675,1.36164 -3.82818,1.71727 -2.38488,0.56066 -6.33542,1.57607 -11.06714,3.147 -1.74288,0.57532 -4.30089,1.52607 -7.41558,2.88548 -0.8196,0.35989 -2.38836,1.03793 -4.07782,1.80856 -1.23979,0.52041 -2.08638,0.5025 -2.56444,-0.0597 -0.49605,-0.58332 -0.04,-1.4991 1.37766,-2.76644 1.24801,-1.11568 3.60409,-2.66598 7.02403,-4.33905 2.80763,-1.37052 5.40874,-2.39249 7.77912,-3.0889 2.6743,-0.79187 5.4085,-1.2996 8.19595,-1.4945 6.24664,-0.36947 5.72324,1.04157 4.5764,2.19026 z m -31.4866,13.04515 c -1.32246,1.0957 -2.3723,1.14591 -3.15244,0.24542 -0.53575,-0.6184 -0.36907,-1.33891 0.52766,-2.17499 0.61783,-0.57604 1.26428,-0.91619 1.95384,-1.00117 0.6182,-0.0686 1.0948,0.0891 1.4175,0.46538 0.6204,0.72348 0.35878,1.54954 -0.74656,2.46536 z"
           id="path424"
           style="fill:#621c00;fill-opacity:1;stroke:#621c00;stroke-opacity:1"
           sodipodi:nodetypes="cccccssccccssscss"
           inkscape:original-d="m 374.76485,517.86377 c 0.0803,0.27523 -0.17647,1.7451 -0.52941,2.56863 -0.69281,1.49019 -1.71242,3.73202 -3.05883,6.72549 -0.49673,1.09804 -1.15033,2.6732 -1.96078,4.72549 -0.23529,0.60131 -0.60131,1.4902 -1.09804,2.66667 -0.37909,0.79739 -0.95425,1.19608 -1.72549,1.19608 -0.79739,0 -1.19608,-0.58824 -1.19608,-1.76471 0,-1.05883 0.42484,-2.73857 1.27451,-5.03922 0.69281,-1.86928 1.41177,-3.5098 2.15686,-4.92156 0.8366,-1.59477 1.80392,-3.12419 2.90196,-4.58824 2.43813,-3.17508 2.97765,-2.66465 3.2353,-1.56863 z m -7.21569,20.4902 c 0,1.05882 -0.71242,1.58823 -2.13725,1.58823 -0.98039,0 -1.47059,-0.37908 -1.47059,-1.13725 0,-0.52287 0.22222,-0.96078 0.66666,-1.31373 0.40523,-0.31372 0.87582,-0.47058 1.41177,-0.47058 1.01961,0 1.52941,0.44444 1.52941,1.33333 z" /></g></g></g><g
     aria-label="Roopes"
     transform="matrix(0.76991084,0,0,0.76991084,30.198216,32.597778)"
     id="text358"
     style="line-height:1.25;font-family:'Wild Ride';-inkscape-font-specification:'Wild Ride, Normal';shape-inside:url(#rect360);fill:#000000;fill-opacity:1"><path
       id="path1832"
       style="fill:#fff001;fill-opacity:1;stroke:#621c00;stroke-opacity:1"
       d="m 29.673053,21.179858 c -2.431371,0 -5.228674,1.346264 -8.39207,4.039072 -2.535945,2.169933 -4.686258,4.568796 -6.450962,7.196245 -0.862744,1.294115 -1.908597,3.241836 -3.137354,5.84314 -1.228757,2.601304 -1.8430715,4.601306 -1.8430715,5.999998 0,0.56209 0.1503109,1.039165 0.4509645,1.431321 0.326796,0.444445 0.758125,0.666643 1.294071,0.666643 1.032679,0 1.960898,-0.679667 2.784426,-2.039143 1.398692,-2.588232 2.418192,-4.542488 3.058715,-5.862748 0.535946,-1.098037 0.967486,-1.856339 1.294282,-2.274639 0.627451,-0.784313 1.241766,-1.176429 1.843072,-1.176429 0.56209,0 0.843107,0.333298 0.843107,0.999964 0,0.575163 -0.346368,1.516453 -1.039178,2.82364 -0.679739,1.307189 -1.019572,2.307084 -1.019572,2.999894 0,1.346403 0.941078,2.019746 2.823429,2.019746 2.271494,0 5.392913,-1.408682 8.31343,-3.857969 0.573903,0.323458 1.338665,0.48533 2.294458,0.48533 1.895423,0 3.568661,-0.771162 5.01964,-2.313644 1.464051,-1.542482 2.196,-3.268002 2.196,-5.176497 0,-0.431372 -0.09149,-0.84984 -0.2745,-1.255068 0.143791,-0.117647 0.333314,-0.176465 0.568608,-0.176465 0.07843,0 0.150318,0.0065 0.215678,0.01961 l 1.058786,-1.137215 c -0.366013,-0.287581 -0.830017,-0.431357 -1.392107,-0.431357 -0.653594,0 -1.202556,0.13724 -1.647001,0.41175 -0.522874,-0.287582 -1.202542,-0.431357 -2.039143,-0.431357 -1.869279,0 -3.555588,0.771371 -5.058854,2.313854 -1.490195,1.542482 -2.235426,3.254721 -2.235426,5.137072 0,0.211503 0.01336,0.411861 0.03943,0.601286 -1.238736,0.924016 -2.49276,1.712568 -3.176568,1.712568 -0.875816,0 -1.313679,-0.346368 -1.313679,-1.039179 0,-0.431372 0.235269,-1.104714 0.705857,-2.019747 0.470588,-0.915032 0.705858,-1.607769 0.705858,-2.078357 0,-0.366013 -0.182988,-0.6601 -0.549001,-0.882322 2.143789,-0.483659 4.084973,-1.483765 5.823534,-3.000104 1.973854,-1.73856 2.960679,-3.614392 2.960679,-5.627462 0,-2.614376 -1.575209,-3.921429 -4.725533,-3.921429 z m -0.549,2.313643 c 0.56209,0 0.843107,0.352904 0.843107,1.058786 0,1.450979 -0.73195,2.843202 -2.196001,4.176533 -1.895423,1.725489 -3.986917,2.804018 -6.274497,3.23539 1.372548,-2.653592 2.666741,-4.666664 3.882426,-6.039212 1.411763,-1.620913 2.659999,-2.431497 3.744965,-2.431497 z m 6.980565,8.313641 c 0.705882,0 1.058786,0.366185 1.058786,1.098211 0,0.90196 -0.431328,2.00642 -1.294071,3.313608 -0.928104,1.411763 -1.810576,2.117783 -2.647176,2.117783 -0.640522,0 -0.96075,-0.307369 -0.96075,-0.921747 0,-0.810457 0.437863,-1.921452 1.313679,-3.333215 0.941175,-1.516338 1.784435,-2.27464 2.529532,-2.27464 z" /><path
       d="m 52.222159,30.434698 -1.058824,1.137255 q -0.09804,-0.01961 -0.215686,-0.01961 -0.352941,0 -0.568627,0.17647 0.27451,0.607843 0.27451,1.254902 0,2.862745 -2.196079,5.176471 -2.17647,2.313725 -5.019608,2.313725 -3.588235,0 -3.588235,-3.039216 0,-2.823529 2.235294,-5.137254 2.254902,-2.313726 5.058824,-2.313726 1.254902,0 2.039215,0.431373 0.666667,-0.411765 1.647059,-0.411765 0.843137,0 1.392157,0.431372 z m -4.411765,2.470589 q 0,-1.09804 -1.058823,-1.09804 -1.117647,0 -2.529412,2.27451 -1.313725,2.117647 -1.313725,3.333334 0,0.921568 0.960784,0.921568 1.254902,0 2.647059,-2.117647 1.294117,-1.960784 1.294117,-3.313725 z"
       id="path1834"
       style="fill:#fff001;fill-opacity:1;stroke:#621c00;stroke-opacity:1" /><path
       d="m 62.731978,33.375875 q 0,2 -1.117647,3.882353 -1.921569,3.215686 -5.764706,3.215686 -1.941176,0 -3.117647,-0.980392 l -0.470588,1.039216 q -1.313726,2.882353 -4.196078,4.019608 -0.705883,0.274509 -1.529412,0.274509 -2.137255,0 -2.137255,-1.803921 0,-1.27451 0.745098,-1.27451 0.09804,0 0.509804,0.196078 0.392157,0.176471 0.745098,0.176471 1.803921,0 3.117647,-2.882353 l 4.17647,-9.098039 h 3.27451 l -0.254902,0.568627 q 1.176471,-0.686274 2.392157,-0.686274 3.627451,0 3.627451,3.352941 z m -3.686274,-0.45098 q 0,-1.196079 -1.039216,-1.196079 -1.156863,0 -2.509804,2.313726 -1.254902,2.117647 -1.254902,3.372549 0,1.019607 1.235294,1.019607 1.235294,0 2.450981,-2.17647 1.117647,-1.980392 1.117647,-3.333333 z"
       id="path1836"
       style="fill:#fff001;fill-opacity:1;stroke:#621c00;stroke-opacity:1" /><path
       id="path1838"
       style="fill:#fff001;fill-opacity:1;stroke:#621c00;stroke-opacity:1"
       d="m 69.202535,30.022892 c -1.568626,0 -3.058877,0.797513 -4.47064,2.392283 -1.359476,1.542481 -2.039143,3.10441 -2.039143,4.686108 0,1.084966 0.359439,1.928226 1.078393,2.529532 0.653594,0.562091 1.536066,0.843108 2.647175,0.843108 1.790749,0 2.970789,-0.409623 4.156098,-1.285578 0.589155,0.875894 1.840373,1.285578 3.137971,1.285578 1.032679,0 1.889009,-0.267947 2.568747,-0.803893 0.75817,-0.575164 1.137215,-1.359606 1.137215,-2.353069 0,-0.653594 -0.24834,-1.43129 -0.745072,-2.33325 -0.496732,-0.915032 -0.745282,-1.562023 -0.745282,-1.941108 0,-0.771241 0.451143,-1.156821 1.353104,-1.156821 0.444443,0 1.026082,0.215663 1.745036,0.647036 l 0.588214,-1.31389 c -0.8366,-0.797385 -1.895313,-1.196036 -3.176357,-1.196036 -0.967319,0 -1.81058,0.261411 -2.529533,0.784286 -0.810457,0.588235 -1.215643,1.346536 -1.215643,2.27464 0,0.705882 0.281016,1.542395 0.843107,2.509714 0.562091,0.954248 0.843107,1.646986 0.843107,2.078358 0,0.705881 -0.339833,1.058997 -1.019571,1.058997 -0.405228,0 -0.869232,-0.150312 -1.392108,-0.450965 -0.391654,-0.297871 -0.817703,-0.604629 -1.098,-1.000175 -1.147465,0.689284 -2.528175,1.220942 -3.686354,1.235461 -0.928104,0 -1.392107,-0.398862 -1.392107,-1.196247 0,-0.483659 0.09149,-0.914987 0.2745,-1.294071 h 5.43139 c 0.4183,-0.69281 0.627429,-1.588141 0.627429,-2.686179 0,-2.209148 -0.973965,-3.313819 -2.921676,-3.313819 z m -0.254893,1.725429 c 0.444444,0 0.666643,0.353115 0.666643,1.058997 0,0.522875 -0.117635,1.091443 -0.352929,1.705821 h -2.529321 c 0.209149,-0.549019 0.503236,-1.104516 0.882321,-1.666607 0.496732,-0.732025 0.94113,-1.098211 1.333286,-1.098211 z"
       sodipodi:nodetypes="scscscscscssccscscsscccsccsssscccs" /></g><g
     aria-label="all OOP!"
     transform="matrix(0.27495592,0,0,0.27495592,128.84255,73.127361)"
     id="text358-7"
     style="line-height:1.25;font-family:'Wild Ride';-inkscape-font-specification:'Wild Ride, Normal';shape-inside:url(#rect360-9);fill:#621c00;fill-opacity:1" /></g></svg>
