<?xml version="1.0" encoding="UTF-8" standalone="no"?>
<!-- Created with Inkscape (http://www.inkscape.org/) -->

<svg
   width="197mm"
   height="95mm"
   viewBox="0 0 197 95"
   version="1.1"
   id="svg5"
   inkscape:version="1.2.1 (9c6d41e410, 2022-07-14)"
   sodipodi:docname="Logo.svg"
   xml:space="preserve"
   xmlns:inkscape="http://www.inkscape.org/namespaces/inkscape"
   xmlns:sodipodi="http://sodipodi.sourceforge.net/DTD/sodipodi-0.dtd"
   xmlns="http://www.w3.org/2000/svg"
   xmlns:svg="http://www.w3.org/2000/svg"><sodipodi:namedview
   id="namedview705"
   pagecolor="#ffffff"
   bordercolor="#111111"
   borderopacity="1"
   inkscape:showpageshadow="0"
   inkscape:pageopacity="0"
   inkscape:pagecheckerboard="1"
   inkscape:deskcolor="#d1d1d1"
   inkscape:document-units="mm"
   showgrid="false"
   inkscape:zoom="3.1396708"
   inkscape:cx="353.85876"
   inkscape:cy="186.64377"
   inkscape:window-width="3836"
   inkscape:window-height="2085"
   inkscape:window-x="1080"
   inkscape:window-y="28"
   inkscape:window-maximized="1"
   inkscape:current-layer="text111" />
    <defs
   id="defs2"><inkscape:path-effect
   effect="bend_path"
   id="path-effect659"
   is_visible="true"
   lpeversion="1"
   bendpath="m 65.670743,86.024469 c 7.105155,-6.695049 17.153962,-10.17256 23.866865,0"
   prop_scale="1.6114545"
   scale_y_rel="false"
   vertical="false"
   hide_knot="false"
   bendpath-nodetypes="cc" /><rect
   x="224.45152"
   y="501.47934"
   width="403.16269"
   height="176.31158"
   id="rect398" /><rect
   x="39.399273"
   y="33.137424"
   width="718.32562"
   height="157.44286"
   id="rect113" />
    </defs><g
   aria-label="Ropes"
   transform="matrix(3.1836158,0,0,3.1836158,-115.00532,-135.51298)"
   id="text111"
   style="font-size:40px;word-spacing:0px;white-space:pre"><path
     id="path276"
     style="fill:#fff001;fill-opacity:1;stroke:#621c00;stroke-opacity:1"
     d="m 56.617915,46.402207 c -2.43137,0 -5.228708,1.346362 -8.392103,4.03917 -2.535946,2.169932 -4.686216,4.568681 -6.450919,7.196129 -0.862745,1.294117 -1.908563,3.241889 -3.13732,5.843194 -1.228757,2.601304 -1.843143,4.601303 -1.843143,5.999994 0,0.562091 0.150271,1.039181 0.450925,1.431337 0.326797,0.444444 0.758229,0.666648 1.294177,0.666648 1.032678,0 1.960745,-0.679749 2.784274,-2.039225 1.398691,-2.588233 2.418396,-4.542412 3.058919,-5.862672 0.535947,-1.098038 0.967217,-1.856289 1.294014,-2.274589 0.627451,-0.784313 1.241837,-1.176495 1.843143,-1.176495 0.562091,0 0.843252,0.333387 0.843252,1.000053 0,0.575163 -0.346524,1.516367 -1.039334,2.823555 -0.679738,1.307188 -1.019532,2.307187 -1.019532,2.999997 0,1.346404 0.941204,2.019585 2.823556,2.019585 2.401024,0 5.086238,-1.341574 8.055451,-4.023424 0.594716,0.433839 1.445393,0.650903 2.552319,0.650903 1.895423,0 3.568603,-0.771226 5.019582,-2.313709 1.464051,-1.542481 2.196189,-3.26805 2.196189,-5.176545 0,-0.431372 -0.09164,-0.849667 -0.274646,-1.254895 -0.406531,-0.704133 -0.634096,-0.989257 -1.195973,-1.313657 -0.522875,-0.287581 -1.202625,-0.431446 -2.039225,-0.431446 -1.86928,0 -3.555597,0.771227 -5.058864,2.313708 -1.490194,1.542483 -2.235308,3.254913 -2.235308,5.137264 0,0.28237 0.02334,0.545046 0.0698,0.788063 -1.336851,1.016953 -2.405918,1.525646 -3.206955,1.525646 -0.875816,0 -1.313818,-0.346363 -1.313818,-1.039173 0,-0.431372 0.235342,-1.104553 0.70593,-2.019584 0.470587,-0.915032 0.705929,-1.60792 0.705929,-2.078507 0,-0.366013 -0.183115,-0.66015 -0.549128,-0.882371 2.143789,-0.48366 4.084992,-1.483659 5.823552,-2.999997 1.973854,-1.738561 2.960716,-3.614238 2.960716,-5.627308 0,-2.614377 -1.575135,-3.92165 -4.725458,-3.92165 z m -0.548966,2.313709 c 0.562091,0 0.84309,0.352931 0.84309,1.058813 0,1.450979 -0.731976,2.84316 -2.196027,4.176492 -1.895423,1.725488 -3.986897,2.803988 -6.274477,3.235361 1.372548,-2.653592 2.666683,-4.666728 3.882368,-6.039276 1.411764,-1.620913 2.66008,-2.43139 3.745046,-2.43139 z m 19.333279,6.529481 c -0.810457,0 -1.607797,0.228773 -2.392109,0.686289 l 0.255004,-0.568607 h -3.274642 l -4.176492,9.098033 c -0.875816,1.921567 -1.914904,2.882315 -3.117517,2.882315 -0.235294,0 -0.483773,-0.05879 -0.745211,-0.176442 -0.274509,-0.130718 -0.444324,-0.196082 -0.509684,-0.196082 -0.496732,0 -0.745211,0.424702 -0.745211,1.274374 0,1.202613 0.712431,1.804024 2.137266,1.804024 0.549019,0 1.058791,-0.09148 1.529379,-0.274483 1.921567,-0.75817 3.320317,-2.098125 4.196133,-4.019691 l 0.470565,-1.039173 c 0.784313,0.653594 1.823563,0.980413 3.117679,0.980413 2.56209,0 4.483749,-1.071931 5.764793,-3.215721 0.745097,-1.2549 1.117573,-2.549036 1.117573,-3.882368 0,-2.235292 -1.209228,-3.352881 -3.627526,-3.352881 z m 10.098085,0 c -1.568625,0 -3.058852,0.79734 -4.470615,2.392109 -1.359476,1.542483 -2.039226,3.104642 -2.039226,4.686339 0,1.084967 0.3595,1.928125 1.078454,2.529432 0.653594,0.562091 1.536003,0.84309 2.647113,0.84309 1.790748,0 2.980196,-0.257142 4.165505,-1.133097 0.589155,0.875901 1.831063,1.133097 3.128667,1.133097 1.032678,0 1.888812,-0.268023 2.56855,-0.803971 0.758169,-0.575163 1.137376,-1.359527 1.137376,-2.35299 0,-0.653594 -0.248479,-1.431389 -0.745211,-2.333349 -0.496731,-0.915032 -0.745048,-1.561937 -0.745048,-1.941022 0,-0.771241 0.450977,-1.157016 1.352936,-1.157016 0.444445,0 1.026149,0.215797 1.745102,0.647169 l 0.588248,-1.313817 c -0.836601,-0.797385 -1.895395,-1.195974 -3.176439,-1.195974 -0.96732,0 -1.810479,0.261455 -2.529432,0.78433 -0.810457,0.588235 -1.215776,1.346324 -1.215776,2.274427 0,0.705882 0.281161,1.542472 0.843252,2.509791 0.562091,0.954247 0.84309,1.647135 0.84309,2.078507 0,0.705882 -0.339956,1.058813 -1.019694,1.058813 -0.405229,0 -0.869181,-0.150433 -1.392056,-0.451087 -0.416222,-0.289086 -0.826259,-0.611264 -1.098095,-0.974244 -1.228743,0.806263 -2.457543,1.209608 -3.686285,1.209608 -0.928103,0 -1.392218,-0.398751 -1.392218,-1.196136 0,-0.483659 0.09164,-0.914929 0.274645,-1.294014 h 5.431387 c 0.418301,-0.69281 0.627367,-1.588195 0.627367,-2.686233 0,-2.209148 -0.973886,-3.313762 -2.921597,-3.313762 z m -11.196017,1.705821 c 0.692809,0 1.039172,0.398751 1.039172,1.196135 0,0.90196 -0.372476,2.01298 -1.117573,3.33324 -0.810457,1.450979 -1.627502,2.176548 -2.451031,2.176548 -0.823529,0 -1.235255,-0.339956 -1.235255,-1.019694 0,-0.8366 0.418295,-1.960758 1.254896,-3.372521 0.901959,-1.542482 1.738549,-2.313708 2.509791,-2.313708 z m 10.941175,0.01964 c 0.444444,0 0.666648,0.352932 0.666648,1.058813 0,0.522876 -0.11759,1.091443 -0.352884,1.705821 h -2.529431 c 0.20915,-0.549019 0.503286,-1.104448 0.882371,-1.666539 0.496732,-0.732025 0.94114,-1.098095 1.333296,-1.098095 z m -22.196115,0.05876 c 0.705881,0 1.058813,0.366069 1.058813,1.098095 0,0.901959 -0.431434,2.006572 -1.294177,3.313761 -0.928104,1.411763 -1.810351,2.117626 -2.646952,2.117626 -0.640522,0 -0.960771,-0.307274 -0.960771,-0.921653 0,-0.810456 0.437839,-1.921476 1.313655,-3.333239 0.941176,-1.516339 1.784334,-2.27459 2.529432,-2.27459 z"
     sodipodi:nodetypes="sccsscscccsscsscscsccscscssssccsssscccssscccscssscccscssssscscscscssccscscssccssccsssscsscssscccssscsscss" /><g
     id="g545"
     transform="matrix(0.88623052,0,0,0.88623052,14.635416,-23.083624)"
     style="fill:#621c00;fill-opacity:1;stroke:#621c00;stroke-opacity:1"
     inkscape:path-effect="#path-effect659"
     class="UnoptimicedTransforms"><g
       aria-label="oops, all OOP!"
       transform="matrix(0.2319381,0,0,0.2319381,2.6153604,-36.284461)"
       id="text396"
       style="line-height:1.25;shape-inside:url(#rect398);fill:#621c00;fill-opacity:1;stroke:#621c00;stroke-opacity:1"><g
         id="g502"
         style="fill:#621c00;fill-opacity:1;stroke:#621c00;stroke-opacity:1"><path
           d="m 279.35003,516.51552 c 0.464,0.58857 1.00801,1.69137 1.67137,3.3177 0.49532,1.26505 1.00138,2.53623 1.51896,3.81422 0.19028,0.44768 0.37404,0.7786 0.5486,0.9926 0.49959,0.63598 1.01799,0.73301 1.55655,0.30239 0.023,-0.0184 0.11862,-0.20413 0.28977,-0.55698 0.14172,-0.24812 0.27177,-0.30944 0.38862,-0.1851 0.38772,0.37244 0.71349,0.95371 0.98706,1.74146 0.62822,1.70095 0.47605,2.92087 -0.4672,3.69473 -0.83186,0.70992 -1.75092,0.80525 -2.77354,0.28035 -0.0208,1.32622 -0.59015,2.46704 -1.71471,3.45939 -1.61814,1.42791 -3.27744,1.24696 -5.01541,-0.5858 -1.30324,-1.37432 -2.01746,-2.85329 -2.10932,-4.46487 -0.082,-1.53207 0.40956,-2.78604 1.46892,-3.72369 1.10592,-0.97886 2.27096,-1.31592 3.46245,-1.01535 -0.69993,-2.05899 -1.24274,-3.35584 -1.6959,-3.90135 -0.54269,-0.6533 -1.13734,-0.71479 -1.77834,-0.1705 -1.13586,0.9645 -1.49836,2.32043 -1.08689,4.02281 -0.90766,-0.22765 -1.81847,-0.44712 -2.73183,-0.65844 -0.18004,-2.46977 0.58357,-4.46785 2.27677,-5.90026 2.23519,-1.89093 3.9995,-1.99132 5.20404,-0.46335 10e-6,10e-6 2e-5,2e-5 3e-5,4e-5 z m 0.88186,9.96425 c -0.7848,-0.50187 -1.54011,-0.44336 -2.25442,0.18229 -0.37366,0.32727 -0.53164,0.80691 -0.47165,1.43332 0.06,0.62646 0.33388,1.20465 0.81648,1.73786 0.65314,0.72165 1.26949,0.82249 1.85084,0.31323 0.82288,-0.72084 0.84002,-1.93299 0.0588,-3.6667 z"
           id="path412"
           style="fill:#621c00;fill-opacity:1;stroke:#621c00;stroke-opacity:1"
           inkscape:original-d="m 282.96102,525.31475 q 0,0.68628 -0.62745,2.2353 -0.50981,1.19608 -1.03922,2.41176 -0.17647,0.43137 -0.17647,0.68628 -0.0196,0.74509 0.90196,0.74509 0.0392,0 0.5098,-0.15686 0.35295,-0.098 0.37255,0.0588 0.098,0.49019 -0.27451,1.21568 -0.7647,1.58824 -2.45098,1.58824 -1.5098,0.0196 -2.09804,-0.96079 -1.19607,0.92157 -3.2549,0.92157 -2.96078,0 -2.96078,-2.35294 0,-1.76471 1.33333,-2.92157 1.27451,-1.09804 3.07843,-1.09804 1.88235,0 2.80392,0.92157 1.01961,-1.86274 1.01961,-2.5098 0,-0.78432 -1.03921,-0.78432 -1.84314,0 -2.88236,1.43138 l -1.33333,-1.43138 q 1.90196,-1.80392 4.58823,-1.80392 3.52942,0 3.52942,1.80392 z m -4.80393,5.07843 q -0.35294,-0.82352 -1.58823,-0.82352 -0.64706,0 -1.13726,0.47058 -0.49019,0.47059 -0.49019,1.13726 0,0.90196 1.03921,0.90196 1.47059,0 2.17647,-1.68628 z" /><path
           d="m 281.90682,499.00413 c 1.43393,6.95115 3.29355,13.76454 5.49109,20.4165 0.27011,0.80249 0.54825,1.39271 0.82453,1.76921 0.3904,0.53202 0.79736,0.64019 1.22146,0.3323 0.0354,-0.0257 0.15077,-0.2018 0.34892,-0.52736 0.13997,-0.23146 0.26579,-0.28147 0.37593,-0.15141 0.30638,0.33091 0.59578,0.87963 0.87785,1.64632 0.20569,0.58506 0.255,1.21754 0.15406,1.89699 -0.0967,0.78198 -0.37071,1.34265 -0.83238,1.68999 -1.35067,1.04258 -2.83536,0.58716 -4.45419,-1.44723 -0.63536,-0.80775 -1.48175,-2.56277 -2.42167,-5.23219 -2.0353,-5.84393 -3.82407,-11.82087 -5.30488,-17.91415 1.21936,-0.84716 2.45921,-1.67415 3.71928,-2.47897 z"
           id="path414"
           style="fill:#621c00;fill-opacity:1;stroke:#621c00;stroke-opacity:1"
           inkscape:original-d="m 292.51002,517.4324 -5.60784,12.29412 q -0.33333,0.7451 -0.33333,1.17647 0,0.60784 0.70588,0.60784 0.0588,0 0.52941,-0.13725 0.33333,-0.098 0.35294,0.0588 0.0784,0.41177 -0.21569,1.13726 -0.23529,0.54902 -0.90196,1 -0.74509,0.52941 -1.54902,0.52941 -2.39215,0.0196 -2.41176,-2.37255 0,-0.96079 1.13725,-3.45098 l 5,-10.82353 z" /><path
           d="m 289.01945,494.88981 c 0.88447,7.01264 2.25672,13.90791 4.02895,20.66216 0.21873,0.81505 0.45918,1.41988 0.71015,1.8118 0.35481,0.55409 0.75062,0.68757 1.18758,0.40966 0.0365,-0.0232 0.1608,-0.1906 0.37605,-0.50073 0.15215,-0.22059 0.27948,-0.26176 0.38031,-0.12528 0.2825,0.34914 0.53468,0.91312 0.76755,1.69315 0.16827,0.59452 0.18012,1.2256 0.0426,1.89353 -0.13909,0.77006 -0.43889,1.30907 -0.9118,1.6248 -1.38362,0.94903 -2.82485,0.40989 -4.32006,-1.71556 -0.58483,-0.8413 -1.33198,-2.64396 -2.10864,-5.35856 -1.67895,-5.9448 -3.06266,-12.00647 -4.08972,-18.16837 1.29245,-0.7667 2.60488,-1.50957 3.93703,-2.2266 z"
           id="path416"
           style="fill:#621c00;fill-opacity:1;stroke:#621c00;stroke-opacity:1"
           inkscape:original-d="m 298.51001,517.4324 -5.60785,12.29412 q -0.33333,0.7451 -0.33333,1.17647 0,0.60784 0.70588,0.60784 0.0588,0 0.52941,-0.13725 0.33334,-0.098 0.35295,0.0588 0.0784,0.41177 -0.21569,1.13726 -0.23529,0.54902 -0.90196,1 -0.7451,0.52941 -1.54902,0.52941 -2.39216,0.0196 -2.41177,-2.37255 0,-0.96079 1.13726,-3.45098 l 5,-10.82353 z" /><path
           d="m 318.62722,490.50363 c 1.28596,7.8824 0.72733,15.13786 -0.46814,20.96897 -1.35989,6.5925 -3.33453,10.38085 -7.25711,12.21433 -1.78336,0.83357 -3.56996,0.77877 -5.4839,-0.23693 -1.77731,-0.95926 -3.39813,-2.5997 -4.73846,-4.99161 -1.73281,-3.09233 -2.91404,-6.96837 -3.09847,-11.60112 -0.17924,-4.82724 0.62565,-9.73675 2.72007,-14.5455 2.55718,-5.83646 6.26045,-9.30874 10.05183,-10.26218 1.97593,-0.49689 3.57248,-0.35294 4.70982,0.37422 1.73123,1.09772 2.86352,3.78397 3.56436,8.07982 z m -5.83077,-2.92736 c -0.34516,-1.48333 -0.90112,-2.13792 -1.67713,-1.94236 -1.26566,0.31894 -2.86456,2.23141 -4.36698,5.73484 -1.48529,3.39162 -2.36661,7.23679 -2.63685,11.48931 -0.32421,4.98204 0.42606,8.88557 1.63956,11.53196 0.38469,0.83892 0.88081,1.46424 1.47274,1.88307 0.59285,0.41948 1.1484,0.51119 1.68047,0.27858 1.68436,-0.73638 2.69924,-2.92569 3.47913,-6.70261 0.58718,-2.83633 0.98367,-6.10974 1.16071,-9.74458 0.21921,-4.67133 0.10909,-8.82913 -0.75165,-12.52821 z"
           id="path418"
           style="fill:#621c00;fill-opacity:1;stroke:#621c00;stroke-opacity:1"
           inkscape:original-d="m 320.09826,520.98142 q 0,7.58824 -3.92157,12.80392 -4.33333,5.7451 -11.64706,5.7451 -3.33333,0 -5.23529,-1.68627 -1.76471,-1.58824 -1.76471,-4.13726 0,-3.31373 2.4902,-7.23529 2.60784,-4.07844 6.72549,-7.54902 5,-4.19608 8.88235,-4.19608 2.01961,0 3,0.88235 1.47059,1.31373 1.47059,5.37255 z m -3.72549,-2.52941 q 0,-1.43137 -0.82353,-1.43137 -1.35294,0 -4.11765,2.70588 -2.70588,2.60784 -5.03921,6.19608 -2.76471,4.23529 -2.76471,7 0,0.86274 0.54902,1.45098 0.54902,0.58823 1.43137,0.58823 2.78432,0 5.52942,-3.13725 2.07843,-2.37255 3.47058,-5.64706 1.76471,-4.17647 1.76471,-7.72549 z" /><g
           id="g506"
           style="fill:#621c00;fill-opacity:1;stroke:#621c00;stroke-opacity:1"><path
             d="m 348.83818,492.87506 c -2.62336,7.48768 -6.71957,13.73588 -10.25091,18.42392 -4.06855,5.38832 -6.97722,8.07238 -10.4393,8.17723 -0.82312,0.0249 -1.56498,-0.16119 -2.26798,-0.57227 -0.7312,-0.41429 -1.41839,-1.02213 -2.06898,-1.83302 -1.2334,-1.5577 -2.1837,-3.64977 -2.65889,-6.32051 -0.61389,-3.45029 -0.51015,-7.45803 0.90617,-11.86285 0.39144,-1.2063 0.85724,-2.39617 1.40368,-3.56624 0,0 0,0 0,0 1.56784,-3.28653 3.83267,-6.38167 6.89279,-9.07859 5.03431,-4.41755 10.4515,-5.93013 14.64072,-4.95057 2.18242,0.51031 3.66705,1.45123 4.40754,2.66898 1.13688,1.85417 0.87967,4.79098 -0.56484,8.91392 z m -4.09214,-5.47331 c 0.37182,-1.48765 0.14765,-2.34303 -0.70128,-2.53951 -1.38204,-0.31987 -3.86393,0.64256 -6.90219,3.17957 -2.97286,2.44383 -5.47807,5.63835 -7.42635,9.47977 -2.28454,4.48737 -2.9421,8.44209 -2.78748,11.34274 0.0493,0.92463 0.26682,1.69627 0.6258,2.31313 0.3601,0.61879 0.79152,0.92169 1.315,0.91772 1.66041,-0.0126 3.2782,-1.61661 5.51102,-4.75286 1.66586,-2.33744 3.46134,-5.16939 5.25713,-8.35548 2.31536,-4.12517 4.178,-7.86285 5.10835,-11.58508 z"
             id="path420"
             style="fill:#621c00;fill-opacity:1;stroke:#621c00;stroke-opacity:1"
             inkscape:original-d="m 341.88255,520.98142 q 0,7.58824 -3.92157,12.80392 -4.33334,5.7451 -11.64706,5.7451 -3.33333,0 -5.2353,-1.68627 -1.7647,-1.58824 -1.7647,-4.13726 0,-3.31373 2.4902,-7.23529 2.60784,-4.07844 6.72549,-7.54902 5,-4.19608 8.88235,-4.19608 2.01961,0 3,0.88235 1.47059,1.31373 1.47059,5.37255 z m -3.72549,-2.52941 q 0,-1.43137 -0.82353,-1.43137 -1.35294,0 -4.11765,2.70588 -2.70588,2.60784 -5.03922,6.19608 -2.7647,4.23529 -2.7647,7 0,0.86274 0.54902,1.45098 0.54902,0.58823 1.43137,0.58823 2.78431,0 5.52941,-3.13725 2.07843,-2.37255 3.47059,-5.64706 1.76471,-4.17647 1.76471,-7.72549 z" /></g><path
           d="m 378.44879,509.14271 c -2.05672,1.83607 -4.77723,2.78778 -8.06324,3.17282 -2.83463,0.34311 -5.65058,0.0697 -8.54952,-0.67638 -1.60236,-0.4077 -4.02828,-1.29457 -7.30923,-2.21093 -0.76445,-0.22344 -1.6093,-0.0663 -2.50787,0.47322 -0.60404,0.36077 -1.64183,1.18796 -2.99162,2.49655 -1.05402,1.02557 -2.59758,2.54403 -4.26206,4.39576 0,0 0,10e-6 0,10e-6 -0.75245,0.84433 -1.55344,1.78415 -2.37994,2.82032 -1.45967,1.72884 -2.40503,2.50767 -3.03833,2.26543 -0.32867,-0.12572 -0.47419,-0.55581 -0.45679,-1.30527 0.007,-0.6618 0.14146,-1.42905 0.42305,-2.28638 0.67113,-2.04332 2.14274,-5.12039 4.72904,-8.56127 2.48285,-3.29974 4.87458,-5.69839 6.88448,-7.27475 0.51514,-0.40384 1.04822,-0.79096 1.59979,-1.15986 3.42114,-2.29006 7.48975,-3.8587 12.19784,-4.48875 6.10868,-0.81977 10.8668,0.49179 13.43948,2.91847 3.60705,3.40235 3.41616,6.63891 0.28492,9.42101 z m -3.7287,-5.15154 c 0.79315,-0.81369 0.89807,-1.50767 0.28621,-2.07577 -1.15511,-1.07252 -3.46324,-1.36848 -6.68995,-0.62534 -2.28439,0.51481 -5.79906,1.97313 -9.95209,4.65276 2.37646,0.77078 4.97943,1.08593 7.9604,0.99032 3.58793,-0.0958 6.42867,-0.9243 8.39543,-2.94197 z"
           id="path422"
           style="fill:#621c00;fill-opacity:1;stroke:#621c00;stroke-opacity:1"
           inkscape:original-d="m 365.64723,518.6873 q 0.0196,2.54902 -2.31373,5 -2,2.11765 -5.41177,3.35294 -1.88235,0.68628 -6.23529,1.64706 -1.01961,0.21569 -1.70588,1.07843 -0.47059,0.58824 -1.29412,2.27451 -0.96078,1.9804 -3.05882,5.86275 -1.2353,2.03921 -2.78432,2.03921 -0.80392,0 -1.29411,-0.66666 -0.45098,-0.58824 -0.45098,-1.43137 0,-2.07844 1.84313,-6 1.7451,-3.70589 3.13726,-5.84314 2.56863,-3.94118 6.70588,-7.39216 4.62745,-3.86274 8.09804,-3.86274 4.7451,0 4.76471,3.94117 z m -4.43138,-0.54902 q 0,-1.05882 -0.84313,-1.05882 -1.60785,0 -3.7451,2.43137 -1.54902,1.7451 -3.88236,6.03922 2.92157,-0.66667 5.43138,-2.54902 3.03921,-2.2549 3.03921,-4.86275 z" /><path
           d="m 387.17178,518.41387 c -0.30456,0.33428 -2.47675,1.36164 -3.82818,1.71727 -2.38488,0.56066 -6.33542,1.57607 -11.06714,3.147 -1.74288,0.57532 -4.30089,1.52607 -7.41558,2.88548 -0.8196,0.35989 -2.38836,1.03793 -4.07782,1.80856 -1.23979,0.52041 -2.08638,0.5025 -2.56444,-0.0597 -0.49605,-0.58332 -0.04,-1.4991 1.37766,-2.76644 1.24801,-1.11568 3.60409,-2.66598 7.02403,-4.33905 2.80763,-1.37052 5.40874,-2.39249 7.77912,-3.0889 2.6743,-0.79187 5.4085,-1.2996 8.19595,-1.4945 6.24664,-0.36947 5.72324,1.04157 4.5764,2.19026 z m -31.4866,13.04515 c -1.32246,1.0957 -2.3723,1.14591 -3.15244,0.24542 -0.53575,-0.6184 -0.36907,-1.33891 0.52766,-2.17499 0.61783,-0.57604 1.26428,-0.91619 1.95384,-1.00117 0.6182,-0.0686 1.0948,0.0891 1.4175,0.46538 0.6204,0.72348 0.35878,1.54954 -0.74656,2.46536 z"
           id="path424"
           style="fill:#621c00;fill-opacity:1;stroke:#621c00;stroke-opacity:1"
           inkscape:original-d="m 374.76485,517.86377 c 0.0803,0.27523 -0.17647,1.7451 -0.52941,2.56863 -0.69281,1.49019 -1.71242,3.73202 -3.05883,6.72549 -0.49673,1.09804 -1.15033,2.6732 -1.96078,4.72549 -0.23529,0.60131 -0.60131,1.4902 -1.09804,2.66667 -0.37909,0.79739 -0.95425,1.19608 -1.72549,1.19608 -0.79739,0 -1.19608,-0.58824 -1.19608,-1.76471 0,-1.05883 0.42484,-2.73857 1.27451,-5.03922 0.69281,-1.86928 1.41177,-3.5098 2.15686,-4.92156 0.8366,-1.59477 1.80392,-3.12419 2.90196,-4.58824 2.43813,-3.17508 2.97765,-2.66465 3.2353,-1.56863 z m -7.21569,20.4902 c 0,1.05882 -0.71242,1.58823 -2.13725,1.58823 -0.98039,0 -1.47059,-0.37908 -1.47059,-1.13725 0,-0.52287 0.22222,-0.96078 0.66666,-1.31373 0.40523,-0.31372 0.87582,-0.47058 1.41177,-0.47058 1.01961,0 1.52941,0.44444 1.52941,1.33333 z"
           sodipodi:nodetypes="cccccssccccssscss" /></g></g></g></g></svg>
