<?xml version="1.0" encoding="UTF-8" standalone="no"?><svg xmlns="http://www.w3.org/2000/svg" xmlns:xlink="http://www.w3.org/1999/xlink" contentStyleType="text/css" height="434px" preserveAspectRatio="none" style="width:852px;height:434px;background:#FFFFFF;" version="1.1" viewBox="0 0 852 434" width="852px" zoomAndPan="magnify"><defs/><g><!--MD5=[8ab7eb4cd4e39d2a6a19fed9f9b9e14d]
class obs--><g id="elem_obs"><rect codeLine="1" fill="#F1F1F1" height="64.2969" id="obs" rx="2.5" ry="2.5" style="stroke:#181818;stroke-width:0.5;" width="95" x="740.5" y="363"/><ellipse cx="755.5" cy="379" fill="#B4A7E5" rx="11" ry="11" style="stroke:#181818;stroke-width:1.0;"/><path d="M751.4219,374.7656 L751.4219,372.6094 L758.8125,372.6094 L758.8125,374.7656 L756.3438,374.7656 L756.3438,382.8438 L758.8125,382.8438 L758.8125,385 L751.4219,385 L751.4219,382.8438 L753.8906,382.8438 L753.8906,374.7656 L751.4219,374.7656 Z " fill="#000000"/><text fill="#000000" font-family="sans-serif" font-size="14" font-style="italic" lengthAdjust="spacing" textLength="63" x="769.5" y="383.8467">Observer</text><line style="stroke:#181818;stroke-width:0.5;" x1="741.5" x2="834.5" y1="395" y2="395"/><line style="stroke:#181818;stroke-width:0.5;" x1="741.5" x2="834.5" y1="403" y2="403"/><ellipse cx="751.5" cy="416.6484" fill="#84BE84" rx="3" ry="3" style="stroke:#038048;stroke-width:1.0;"/><text fill="#000000" font-family="sans-serif" font-size="14" lengthAdjust="spacing" textLength="47" x="760.5" y="419.9951">notify()</text></g><!--MD5=[498bb4b8c8586854b5441efac622a04f]
class attach--><g id="elem_attach"><rect codeLine="5" fill="#F1F1F1" height="64.2969" id="attach" rx="2.5" ry="2.5" style="stroke:#181818;stroke-width:0.5;" width="202" x="7" y="239"/><ellipse cx="66.75" cy="255" fill="#B4A7E5" rx="11" ry="11" style="stroke:#181818;stroke-width:1.0;"/><path d="M62.6719,250.7656 L62.6719,248.6094 L70.0625,248.6094 L70.0625,250.7656 L67.5938,250.7656 L67.5938,258.8438 L70.0625,258.8438 L70.0625,261 L62.6719,261 L62.6719,258.8438 L65.1406,258.8438 L65.1406,250.7656 L62.6719,250.7656 Z " fill="#000000"/><text fill="#000000" font-family="sans-serif" font-size="14" font-style="italic" lengthAdjust="spacing" textLength="74" x="87.25" y="259.8467">Attachable</text><line style="stroke:#181818;stroke-width:0.5;" x1="8" x2="208" y1="271" y2="271"/><line style="stroke:#181818;stroke-width:0.5;" x1="8" x2="208" y1="279" y2="279"/><ellipse cx="18" cy="292.6484" fill="#84BE84" rx="3" ry="3" style="stroke:#038048;stroke-width:1.0;"/><text fill="#000000" font-family="sans-serif" font-size="14" lengthAdjust="spacing" textLength="176" x="27" y="295.9951">attach(listener: Observer)</text></g><!--MD5=[98fc0fa891ea7d0064016719aaa3edbc]
class detach--><g id="elem_detach"><rect codeLine="9" fill="#F1F1F1" height="64.2969" id="detach" rx="2.5" ry="2.5" style="stroke:#181818;stroke-width:0.5;" width="207" x="244.5" y="239"/><ellipse cx="304.25" cy="255" fill="#B4A7E5" rx="11" ry="11" style="stroke:#181818;stroke-width:1.0;"/><path d="M300.1719,250.7656 L300.1719,248.6094 L307.5625,248.6094 L307.5625,250.7656 L305.0938,250.7656 L305.0938,258.8438 L307.5625,258.8438 L307.5625,261 L300.1719,261 L300.1719,258.8438 L302.6406,258.8438 L302.6406,250.7656 L300.1719,250.7656 Z " fill="#000000"/><text fill="#000000" font-family="sans-serif" font-size="14" font-style="italic" lengthAdjust="spacing" textLength="79" x="324.75" y="259.8467">Detachable</text><line style="stroke:#181818;stroke-width:0.5;" x1="245.5" x2="450.5" y1="271" y2="271"/><line style="stroke:#181818;stroke-width:0.5;" x1="245.5" x2="450.5" y1="279" y2="279"/><ellipse cx="255.5" cy="292.6484" fill="#84BE84" rx="3" ry="3" style="stroke:#038048;stroke-width:1.0;"/><text fill="#000000" font-family="sans-serif" font-size="14" lengthAdjust="spacing" textLength="181" x="264.5" y="295.9951">detach(listener: Observer)</text></g><!--MD5=[ebb1579c2e8f6aed150e1e73dc8a2e79]
class sub--><g id="elem_sub"><rect codeLine="13" fill="#F1F1F1" height="64.2969" id="sub" rx="2.5" ry="2.5" style="stroke:#181818;stroke-width:0.5;" width="84" x="487" y="239"/><ellipse cx="502" cy="255" fill="#B4A7E5" rx="11" ry="11" style="stroke:#181818;stroke-width:1.0;"/><path d="M497.9219,250.7656 L497.9219,248.6094 L505.3125,248.6094 L505.3125,250.7656 L502.8438,250.7656 L502.8438,258.8438 L505.3125,258.8438 L505.3125,261 L497.9219,261 L497.9219,258.8438 L500.3906,258.8438 L500.3906,250.7656 L497.9219,250.7656 Z " fill="#000000"/><text fill="#000000" font-family="sans-serif" font-size="14" font-style="italic" lengthAdjust="spacing" textLength="52" x="516" y="259.8467">Subject</text><line style="stroke:#181818;stroke-width:0.5;" x1="488" x2="570" y1="271" y2="271"/><line style="stroke:#181818;stroke-width:0.5;" x1="488" x2="570" y1="279" y2="279"/><ellipse cx="498" cy="292.6484" fill="#84BE84" rx="3" ry="3" style="stroke:#038048;stroke-width:1.0;"/><text fill="#000000" font-family="sans-serif" font-size="14" lengthAdjust="spacing" textLength="47" x="507" y="295.9951">notify()</text></g><!--MD5=[967f32984a2a1d6d7eee75e324b188b4]
class mutsub--><g id="elem_mutsub"><rect codeLine="17" fill="#F1F1F1" height="48" id="mutsub" rx="2.5" ry="2.5" style="stroke:#181818;stroke-width:0.5;" width="114" x="472" y="131"/><ellipse cx="487" cy="147" fill="#B4A7E5" rx="11" ry="11" style="stroke:#181818;stroke-width:1.0;"/><path d="M482.9219,142.7656 L482.9219,140.6094 L490.3125,140.6094 L490.3125,142.7656 L487.8438,142.7656 L487.8438,150.8438 L490.3125,150.8438 L490.3125,153 L482.9219,153 L482.9219,150.8438 L485.3906,150.8438 L485.3906,142.7656 L482.9219,142.7656 Z " fill="#000000"/><text fill="#000000" font-family="sans-serif" font-size="14" font-style="italic" lengthAdjust="spacing" textLength="82" x="501" y="151.8467">MutableSub</text><line style="stroke:#181818;stroke-width:0.5;" x1="473" x2="585" y1="163" y2="163"/><line style="stroke:#181818;stroke-width:0.5;" x1="473" x2="585" y1="171" y2="171"/></g><!--MD5=[6573b784d4c522ebeee8f290bd66cb9a]
class vecsub--><g id="elem_vecsub"><rect codeLine="23" fill="#F1F1F1" height="64.2969" id="vecsub" rx="2.5" ry="2.5" style="stroke:#181818;stroke-width:0.5;" width="207" x="606.5" y="239"/><ellipse cx="657.25" cy="255" fill="#F1F1F1" rx="11" ry="11" style="stroke:#181818;stroke-width:1.0;"/><path d="M656.7344,255.5625 Q654.875,254.8594 654.2188,254.0938 Q653.5781,253.3125 653.5781,252 Q653.5781,250.3125 654.6563,249.3438 Q655.7344,248.375 657.6094,248.375 Q658.4688,248.375 659.3125,248.5781 Q660.1719,248.7656 661.0156,249.1563 L661.0156,251.5469 Q660.2344,250.9844 659.4063,250.7031 Q658.5938,250.4063 657.7969,250.4063 Q656.9219,250.4063 656.4375,250.7656 Q655.9688,251.125 655.9688,251.7813 Q655.9688,252.2969 656.3125,252.6406 Q656.6563,252.9688 657.75,253.375 L658.8125,253.7813 Q660.2969,254.3281 661,255.2344 Q661.7188,256.1406 661.7188,257.5156 Q661.7188,259.3906 660.6094,260.3125 Q659.5,261.2344 657.25,261.2344 Q656.3281,261.2344 655.4063,261.0156 Q654.4844,260.7969 653.625,260.375 L653.625,257.8438 Q654.5938,258.5313 655.5156,258.875 Q656.4375,259.2188 657.3281,259.2188 Q658.2344,259.2188 658.7344,258.8125 Q659.2344,258.3906 659.2344,257.6563 Q659.2344,257.0938 658.8906,256.6875 Q658.5625,256.2656 657.9375,256.0156 L656.7344,255.5625 Z " fill="#000000"/><text fill="#000000" font-family="sans-serif" font-size="14" lengthAdjust="spacing" textLength="97" x="677.75" y="259.8467">VectorSubject</text><line style="stroke:#181818;stroke-width:0.5;" x1="607.5" x2="812.5" y1="271" y2="271"/><rect fill="none" height="6" style="stroke:#C82930;stroke-width:1.0;" width="6" x="614.5" y="281.6484"/><text fill="#000000" font-family="sans-serif" font-size="14" lengthAdjust="spacing" textLength="181" x="626.5" y="287.9951">listeners: Vec&lt;Observer&gt;</text><line style="stroke:#181818;stroke-width:0.5;" x1="607.5" x2="812.5" y1="295.2969" y2="295.2969"/></g><!--MD5=[c59387762c53c3589aebd34fd2056237]
class hshsub--><g id="elem_hshsub"><rect codeLine="29" fill="#F1F1F1" height="64.2969" id="hshsub" rx="2.5" ry="2.5" style="stroke:#181818;stroke-width:0.5;" width="294" x="551" y="7"/><ellipse cx="650.25" cy="23" fill="#F1F1F1" rx="11" ry="11" style="stroke:#181818;stroke-width:1.0;"/><path d="M649.7344,23.5625 Q647.875,22.8594 647.2188,22.0938 Q646.5781,21.3125 646.5781,20 Q646.5781,18.3125 647.6563,17.3438 Q648.7344,16.375 650.6094,16.375 Q651.4688,16.375 652.3125,16.5781 Q653.1719,16.7656 654.0156,17.1563 L654.0156,19.5469 Q653.2344,18.9844 652.4063,18.7031 Q651.5938,18.4063 650.7969,18.4063 Q649.9219,18.4063 649.4375,18.7656 Q648.9688,19.125 648.9688,19.7813 Q648.9688,20.2969 649.3125,20.6406 Q649.6563,20.9688 650.75,21.375 L651.8125,21.7813 Q653.2969,22.3281 654,23.2344 Q654.7188,24.1406 654.7188,25.5156 Q654.7188,27.3906 653.6094,28.3125 Q652.5,29.2344 650.25,29.2344 Q649.3281,29.2344 648.4063,29.0156 Q647.4844,28.7969 646.625,28.375 L646.625,25.8438 Q647.5938,26.5313 648.5156,26.875 Q649.4375,27.2188 650.3281,27.2188 Q651.2344,27.2188 651.7344,26.8125 Q652.2344,26.3906 652.2344,25.6563 Q652.2344,25.0938 651.8906,24.6875 Q651.5625,24.2656 650.9375,24.0156 L649.7344,23.5625 Z " fill="#000000"/><text fill="#000000" font-family="sans-serif" font-size="14" lengthAdjust="spacing" textLength="87" x="670.75" y="27.8467">HashSubject</text><line style="stroke:#181818;stroke-width:0.5;" x1="552" x2="844" y1="39" y2="39"/><rect fill="none" height="6" style="stroke:#C82930;stroke-width:1.0;" width="6" x="559" y="49.6484"/><text fill="#000000" font-family="sans-serif" font-size="14" lengthAdjust="spacing" textLength="268" x="571" y="55.9951">listeners: HashSet&lt;Observer + Hash&gt;</text><line style="stroke:#181818;stroke-width:0.5;" x1="552" x2="844" y1="63.2969" y2="63.2969"/></g><!--MD5=[d53a17c4ab85562abedb41b2a623cf7c]
link mutsub to attach--><g id="link_mutsub_attach"><path codeLine="19" d="M471.78,171.49 C409.91,188.25 309.44,215.45 229.74,237.03 " fill="none" id="mutsub-to-attach" style="stroke:#181818;stroke-width:1.0;"/><polygon fill="none" points="231.78,243.74,210.64,242.21,228.12,230.22,231.78,243.74" style="stroke:#181818;stroke-width:1.0;"/></g><!--MD5=[1a1d1f7216ef894dd20e8681996ccad7]
link mutsub to detach--><g id="link_mutsub_detach"><path codeLine="20" d="M491.94,179.34 C470.05,193.13 441.66,211.01 415.89,227.24 " fill="none" id="mutsub-to-detach" style="stroke:#181818;stroke-width:1.0;"/><polygon fill="none" points="419.65,233.14,399,237.88,412.19,221.3,419.65,233.14" style="stroke:#181818;stroke-width:1.0;"/></g><!--MD5=[36ecf436ea4127405860e9579234f1b0]
link mutsub to sub--><g id="link_mutsub_sub"><path codeLine="21" d="M529,179.34 C529,190.5 529,204.32 529,217.79 " fill="none" id="mutsub-to-sub" style="stroke:#181818;stroke-width:1.0;"/><polygon fill="none" points="536,217.39,529,237.39,522,217.39,536,217.39" style="stroke:#181818;stroke-width:1.0;"/></g><!--MD5=[85be7fe6ec8fcb64c621e8ac4f34922d]
reverse link mutsub to vecsub--><g id="link_mutsub_vecsub"><path codeLine="26" d="M584.09,190.7 C608.36,205.99 636.67,223.81 660.28,238.69 " fill="none" id="mutsub-backto-vecsub" style="stroke:#181818;stroke-width:1.0;stroke-dasharray:7.0,7.0;"/><polygon fill="none" points="580.54,196.73,567.35,180.15,588,184.89,580.54,196.73" style="stroke:#181818;stroke-width:1.0;"/></g><!--MD5=[0959eb3760b4db338a713eff2f255a9b]
link vecsub to obs--><g id="link_vecsub_obs"><path codeLine="27" d="M730.09,303.42 C740.64,319.93 753.63,340.25 764.64,357.46 " fill="none" id="vecsub-to-obs" style="stroke:#181818;stroke-width:1.0;"/><polygon fill="#181818" points="767.17,361.41,765.7064,351.6705,764.4828,357.1935,758.9599,355.9699,767.17,361.41" style="stroke:#181818;stroke-width:1.0;"/></g><!--MD5=[734d74921b5fbfb0649aa3e07fde3055]
link hshsub to mutsub--><g id="link_hshsub_mutsub"><path codeLine="32" d="M651.37,71.45 C629.7,86.08 603.82,103.53 581.47,118.61 " fill="none" id="hshsub-to-mutsub" style="stroke:#181818;stroke-width:1.0;stroke-dasharray:7.0,7.0;"/><polygon fill="none" points="585.43,124.38,564.94,129.76,577.6,112.77,585.43,124.38" style="stroke:#181818;stroke-width:1.0;"/></g><!--MD5=[2ac732afdf2d5eab9fe02b5c0efbb27a]
link hshsub to obs--><g id="link_hshsub_obs"><path codeLine="33" d="M727.74,71.35 C760.39,108.14 810.85,172.59 831,239 C839.26,266.22 837.23,275.25 831,303 C826.81,321.68 818.33,341.03 810,357.07 " fill="none" id="hshsub-to-obs" style="stroke:#181818;stroke-width:1.0;"/><polygon fill="#181818" points="807.66,361.48,815.4125,355.4055,810.004,357.0635,808.3461,351.6551,807.66,361.48" style="stroke:#181818;stroke-width:1.0;"/></g><!--MD5=[af15b5d424618c8451e3bfef0e705831]
@startuml "observer"
interface "Observer" as obs {
    {method} + notify()
}

interface "Attachable" as attach {
    {method} + attach(listener: Observer)
}

interface "Detachable" as detach {
    {method} + detach(listener: Observer)
}

interface "Subject" as sub {
    {method} + notify()
}

interface "MutableSub" as mutsub {
}
mutsub - -|> attach
mutsub - -|> detach
mutsub - -|> sub

struct "VectorSubject" as vecsub {
    {field} - listeners: Vec<Observer>
}
vecsub .u.|> mutsub
vecsub - -> obs

struct "HashSubject" as hshsub {
    {field} - listeners: HashSet<Observer + Hash>
}
hshsub ..|> mutsub
hshsub - -> obs

@enduml

PlantUML version 1.2022.12(Sun Oct 23 18:12:26 GMT 2022)
(GPL source distribution)
Java Runtime: OpenJDK Runtime Environment
JVM: OpenJDK 64-Bit Server VM
Default Encoding: UTF-8
Language: en
Country: US
--></g></svg>