<?xml version="1.0" encoding="us-ascii" standalone="no"?><svg xmlns="http://www.w3.org/2000/svg" xmlns:xlink="http://www.w3.org/1999/xlink" contentStyleType="text/css" height="186px" preserveAspectRatio="none" style="width:261px;height:186px;background:#FFFFFF;" version="1.1" viewBox="0 0 261 186" width="261px" zoomAndPan="magnify"><defs/><g><!--class exec--><g id="elem_exec"><rect codeLine="2" fill="#F1F1F1" height="48" id="exec" rx="2.5" ry="2.5" style="stroke:#181818;stroke-width:0.5;" width="109" x="145" y="7"/><ellipse cx="160" cy="23" fill="#B4A7E5" rx="11" ry="11" style="stroke:#181818;stroke-width:1.0;"/><path d="M155.9219,18.7656 L155.9219,16.6094 L163.3125,16.6094 L163.3125,18.7656 L160.8438,18.7656 L160.8438,26.8438 L163.3125,26.8438 L163.3125,29 L155.9219,29 L155.9219,26.8438 L158.3906,26.8438 L158.3906,18.7656 L155.9219,18.7656 Z " fill="#000000"/><text fill="#000000" font-family="sans-serif" font-size="14" font-style="italic" lengthAdjust="spacing" textLength="77" x="174" y="27.8467">Executable</text><line style="stroke:#181818;stroke-width:0.5;" x1="146" x2="253" y1="39" y2="39"/><line style="stroke:#181818;stroke-width:0.5;" x1="146" x2="253" y1="47" y2="47"/></g><!--class execCmd--><g id="elem_execCmd"><rect codeLine="3" fill="#F1F1F1" height="64.2969" id="execCmd" rx="2.5" ry="2.5" style="stroke:#181818;stroke-width:0.5;" width="179" x="39" y="115"/><ellipse cx="54" cy="131" fill="#F1F1F1" rx="11" ry="11" style="stroke:#181818;stroke-width:1.0;"/><path d="M53.4844,131.5625 Q51.625,130.8594 50.9688,130.0938 Q50.3281,129.3125 50.3281,128 Q50.3281,126.3125 51.4063,125.3438 Q52.4844,124.375 54.3594,124.375 Q55.2188,124.375 56.0625,124.5781 Q56.9219,124.7656 57.7656,125.1563 L57.7656,127.5469 Q56.9844,126.9844 56.1563,126.7031 Q55.3438,126.4063 54.5469,126.4063 Q53.6719,126.4063 53.1875,126.7656 Q52.7188,127.125 52.7188,127.7813 Q52.7188,128.2969 53.0625,128.6406 Q53.4063,128.9688 54.5,129.375 L55.5625,129.7813 Q57.0469,130.3281 57.75,131.2344 Q58.4688,132.1406 58.4688,133.5156 Q58.4688,135.3906 57.3594,136.3125 Q56.25,137.2344 54,137.2344 Q53.0781,137.2344 52.1563,137.0156 Q51.2344,136.7969 50.375,136.375 L50.375,133.8438 Q51.3438,134.5313 52.2656,134.875 Q53.1875,135.2188 54.0781,135.2188 Q54.9844,135.2188 55.4844,134.8125 Q55.9844,134.3906 55.9844,133.6563 Q55.9844,133.0938 55.6406,132.6875 Q55.3125,132.2656 54.6875,132.0156 L53.4844,131.5625 Z " fill="#000000"/><text fill="#000000" font-family="sans-serif" font-size="14" lengthAdjust="spacing" textLength="147" x="68" y="135.8467">ExecutableCommand</text><line style="stroke:#181818;stroke-width:0.5;" x1="40" x2="217" y1="147" y2="147"/><text fill="#000000" font-family="sans-serif" font-size="14" lengthAdjust="spacing" textLength="141" x="45" y="163.9951">delegate: Command</text><line style="stroke:#181818;stroke-width:0.5;" x1="40" x2="217" y1="171.2969" y2="171.2969"/></g><!--class cmd--><g id="elem_cmd"><rect codeLine="6" fill="#F1F1F1" height="48" id="cmd" rx="2.5" ry="2.5" style="stroke:#181818;stroke-width:0.5;" width="103" x="7" y="7"/><ellipse cx="22" cy="23" fill="#B4A7E5" rx="11" ry="11" style="stroke:#181818;stroke-width:1.0;"/><path d="M17.9219,18.7656 L17.9219,16.6094 L25.3125,16.6094 L25.3125,18.7656 L22.8438,18.7656 L22.8438,26.8438 L25.3125,26.8438 L25.3125,29 L17.9219,29 L17.9219,26.8438 L20.3906,26.8438 L20.3906,18.7656 L17.9219,18.7656 Z " fill="#000000"/><text fill="#000000" font-family="sans-serif" font-size="14" font-style="italic" lengthAdjust="spacing" textLength="71" x="36" y="27.8467">Command</text><line style="stroke:#181818;stroke-width:0.5;" x1="8" x2="109" y1="39" y2="39"/><line style="stroke:#181818;stroke-width:0.5;" x1="8" x2="109" y1="47" y2="47"/></g><!--reverse link exec to execCmd--><g id="link_exec_execCmd"><path codeLine="8" d="M173.68,73.46 C165.15,87.15 155.82,102.13 147.87,114.9 " fill="none" id="exec-backto-execCmd" style="stroke:#181818;stroke-width:1.0;stroke-dasharray:7.0,7.0;"/><polygon fill="none" points="167.65,69.91,184.16,56.63,179.53,77.31,167.65,69.91" style="stroke:#181818;stroke-width:1.0;"/></g><!--reverse link cmd to execCmd--><g id="link_cmd_execCmd"><path codeLine="9" d="M83.96,73.46 C92.36,87.15 101.56,102.13 109.4,114.9 " fill="none" id="cmd-backto-execCmd" style="stroke:#181818;stroke-width:1.0;stroke-dasharray:7.0,7.0;"/><polygon fill="none" points="78.13,77.34,73.63,56.63,90.06,70.02,78.13,77.34" style="stroke:#181818;stroke-width:1.0;"/></g><!--SRC=[oymhIIrAIqnELL1ohKXDBYr9JCf9LL98B5P81NAvYakAIfDBaEMSytDp4_DIu4gSSrEgkHI0e3ejCpKdfLOX9JKdDJsn9DLA0QgKgvOh4s4Bilxat1GkBgWX2dgbUZLs45jHXK2g0000]--></g></svg>